<svg width="40" height="56" viewBox="0 0 40 56" fill="none" xmlns="http://www.w3.org/2000/svg">
<rect width="13.19" height="32.9435" transform="matrix(0.866325 0.49948 3.18816e-05 1 28.5723 0)" fill="#6E6E6E"/>
<rect width="32.9796" height="32.9435" transform="matrix(0.866325 -0.49948 -3.18816e-05 1 0.00195312 16.4727)" fill="#5A5A5A"/>
<rect width="13.19" height="32.9796" transform="matrix(0.866357 0.499425 -0.866357 0.499425 28.5723 32.9419)" fill="#AAAAAA"/>
<rect width="13.19" height="32.9435" transform="matrix(0.866325 0.49948 3.18816e-05 1 0 16.4673)" fill="#78909C"/>
<rect width="32.9796" height="32.9435" transform="matrix(0.866325 -0.49948 -3.18816e-05 1 11.4287 23.0557)" fill="#607D8B"/>
<path d="M31.3707 26.6926L29.5819 27.2657L30.9731 28.7544L30.9729 35.856L35.743 28.5242L35.7433 20.7353L33.557 22.9122L31.3707 26.6926Z" fill="white"/>
<path d="M20.2404 33.1097L22.0292 31.6202L20.6379 34.7132L20.6377 41.8148L15.8678 39.9832L15.8681 32.1943L18.0543 31.8502L20.2404 33.1097Z" fill="white"/>
<path fill-rule="evenodd" clip-rule="evenodd" d="M21.2343 34.8276L22.8244 31.1619L23.8181 31.2762L27.7931 28.9844L28.7868 27.7242L30.3768 29.5565L30.3764 39.8653L29.1839 42.6146L27.7926 45.0203L23.8176 47.3121L22.4264 46.5106L21.234 45.1364L21.2343 34.8276Z" fill="white"/>
<path d="M30.9725 40.2086L33.5563 35.7409L33.5564 32.7628L30.9726 36.7724L30.9725 40.2086Z" fill="white"/>
<path d="M20.6375 46.1671L18.0539 44.6787L18.054 41.7006L20.6376 42.7309L20.6375 46.1671Z" fill="white"/>
<path fill-rule="evenodd" clip-rule="evenodd" d="M23.2228 17.6458L21.6327 22.9151L24.2161 30.1306L25.4087 29.4431L25.4091 16.3853L26.2041 15.9269L26.2037 28.9847L27.5949 28.1826L29.9801 18.1024L28.3903 14.6665L23.2228 17.6458Z" fill="white"/>
<path d="M24.216 30.1306L15.6699 31.3926L14.4775 26.353L21.8312 22.8005L24.4147 30.016L24.216 30.1306Z" fill="white"/>
<path d="M27.595 28.1826L36.1413 19.5899L37.334 13.1753L29.7815 18.2169L27.3962 28.2972L27.595 28.1826Z" fill="white"/>
<path d="M30.3775 17.1855L34.5512 14.321L31.7688 12.718L28.9863 14.3223L30.3775 17.1855Z" fill="white"/>
<path d="M21.2346 22.4567L17.0609 24.4049L19.8435 19.5935L22.626 17.9893L21.2346 22.4567Z" fill="white"/>
<rect width="32.9796" height="13.19" transform="matrix(0.866357 -0.499425 0.866357 0.499425 0 16.4707)" fill="#90A4AE"/>
</svg>
