<svg width="271" height="56" viewBox="0 0 271 56" fill="none" xmlns="http://www.w3.org/2000/svg">
<rect width="13.19" height="32.9435" transform="matrix(0.866325 0.49948 3.18816e-05 1 28.5723 0)" fill="#6E6E6E"/>
<rect width="32.9796" height="32.9435" transform="matrix(0.866325 -0.49948 -3.18816e-05 1 0.00146484 16.4727)" fill="#5A5A5A"/>
<rect width="13.19" height="32.9796" transform="matrix(0.866357 0.499425 -0.866357 0.499425 28.5723 32.9417)" fill="#AAAAAA"/>
<rect width="13.19" height="32.9435" transform="matrix(0.866325 0.49948 3.18816e-05 1 0.000488281 16.4672)" fill="#78909C"/>
<rect width="32.9796" height="32.9435" transform="matrix(0.866325 -0.49948 -3.18816e-05 1 11.4282 23.0559)" fill="#607D8B"/>
<path d="M31.3702 26.6926L29.5814 27.2658L30.9726 28.7545L30.9724 35.8561L35.7425 28.5243L35.7428 20.7354L33.5565 22.9122L31.3702 26.6926Z" fill="white"/>
<path d="M20.2404 33.1096L22.0292 31.6202L20.6379 34.7131L20.6377 41.8147L15.8678 39.9832L15.8681 32.1943L18.0543 31.8502L20.2404 33.1096Z" fill="white"/>
<path fill-rule="evenodd" clip-rule="evenodd" d="M21.234 34.8275L22.8241 31.1618L23.8178 31.2761L27.7928 28.9844L28.7866 27.7242L30.3765 29.5565L30.3762 39.8653L29.1836 42.6145L27.7923 45.0203L23.8173 47.312L22.4261 46.5106L21.2337 45.1363L21.234 34.8275Z" fill="white"/>
<path d="M30.9725 40.2088L33.5563 35.7411L33.5564 32.763L30.9726 36.7725L30.9725 40.2088Z" fill="white"/>
<path d="M20.6375 46.1673L18.0539 44.6789L18.054 41.7008L20.6376 42.7311L20.6375 46.1673Z" fill="white"/>
<path fill-rule="evenodd" clip-rule="evenodd" d="M23.2221 17.6457L21.6319 22.915L24.2154 30.1306L25.4079 29.443L25.4083 16.3852L26.2033 15.9269L26.2029 28.9847L27.5941 28.1826L29.9794 18.1023L28.3896 14.6664L23.2221 17.6457Z" fill="white"/>
<path d="M24.2155 30.1306L15.6694 31.3926L14.4771 26.353L21.8308 22.8005L24.4142 30.016L24.2155 30.1306Z" fill="white"/>
<path d="M27.594 28.1827L36.1403 19.59L37.333 13.1753L29.7805 18.217L27.3952 28.2972L27.594 28.1827Z" fill="white"/>
<path d="M30.377 17.1859L34.5507 14.3213L31.7683 12.7184L28.9858 14.3226L30.377 17.1859Z" fill="white"/>
<path d="M21.2344 22.457L17.0607 24.4052L19.8432 19.5937L22.6257 17.9895L21.2344 22.457Z" fill="white"/>
<rect width="32.9796" height="13.19" transform="matrix(0.866357 -0.499425 0.866357 0.499425 0.000488281 16.4709)" fill="#90A4AE"/>
<path d="M58 43.36C58 43.76 58.24 44 58.64 44H62.8C63.24 44 63.44 43.76 63.44 43.36V33.28H68.24C72 33.28 74 31.24 74 27.52V17.76C74 14 72 12 68.24 12H58.64C58.24 12 58 12.24 58 12.64V43.36ZM63.44 28V17.28H66.96C68.04 17.28 68.56 17.84 68.56 18.88V26.4C68.56 27.4 68.04 28 66.96 28H63.44Z" fill="#283738"/>
<path d="M94.0494 17.76C94.0494 14 92.0494 12 88.2894 12H78.2494C77.8494 12 77.6094 12.24 77.6094 12.64V43.36C77.6094 43.76 77.8494 44 78.2494 44H82.4094C82.8094 44 83.0494 43.76 83.0494 43.36V33.28H85.8094L88.4894 43.44C88.5694 43.8 88.7694 44 89.1694 44H93.3294C93.7694 44 94.0094 43.76 93.8894 43.28L91.1294 32.8C93.0494 31.96 94.0494 30.2 94.0494 27.52V17.76ZM83.0494 28V17.28H87.0094C88.0494 17.28 88.6094 17.84 88.6094 18.88V26.4C88.6094 27.44 88.0494 28 87.0094 28H83.0494Z" fill="#283738"/>
<path d="M98.6791 12C98.2391 12 98.0391 12.24 98.0391 12.64V43.36C98.0391 43.76 98.2391 44 98.6791 44H102.839C103.239 44 103.479 43.76 103.479 43.36V12.64C103.479 12.24 103.239 12 102.839 12H98.6791Z" fill="#283738"/>
<path d="M124.212 12C123.732 12 123.452 12.24 123.332 12.72L118.892 32.64L114.452 12.72C114.332 12.24 114.052 12 113.572 12H108.292C107.772 12 107.492 12.28 107.492 12.8V43.2C107.492 43.72 107.772 44 108.292 44H111.972C112.492 44 112.772 43.72 112.772 43.2V25.2H113.052L117.012 43.28C117.132 43.76 117.412 44 117.892 44H119.852C120.332 44 120.612 43.76 120.732 43.28L124.692 25.2H124.972V43.2C124.972 43.72 125.252 44 125.772 44H129.492C130.012 44 130.292 43.72 130.292 43.2V12.8C130.292 12.28 130.012 12 129.492 12H124.212Z" fill="#283738"/>
<path d="M150.249 12.64C150.249 12.24 150.089 12 149.609 12H134.889C134.529 12 134.289 12.24 134.289 12.64V43.36C134.289 43.76 134.529 44 134.889 44H149.609C150.089 44 150.249 43.76 150.249 43.36V39.36C150.249 38.92 150.089 38.72 149.609 38.72H139.609V30.64H147.249C147.649 30.64 147.889 30.4 147.889 29.96V26C147.889 25.56 147.649 25.32 147.249 25.32H139.609V17.32H149.609C150.089 17.32 150.249 17.04 150.249 16.64V12.64Z" fill="#283738"/>
<path d="M171.04 17.76C171.04 14 169 12 165.24 12H155.64C155.24 12 155 12.2 155 12.64V43.36C155 43.76 155.24 44 155.64 44H165.24C169 44 171.04 42 171.04 38.24V30.88C171.04 29.4 169.96 28.28 168.52 28.04V27.96C169.96 27.72 171.04 26.6 171.04 25.12V17.76ZM165.72 23.8C165.72 24.8 165.16 25.36 164.12 25.36H160.48V17.28H164.12C165.2 17.28 165.72 17.84 165.72 18.88V23.8ZM165.72 37.12C165.72 38.2 165.16 38.72 164.12 38.72H160.48V30.64H164.12C165.2 30.64 165.72 31.2 165.72 32.24V37.12Z" fill="#78909C"/>
<path d="M180.479 38.72H189.999C190.439 38.72 190.639 38.96 190.639 39.36V43.36C190.639 43.8 190.439 44 189.999 44H175.679C175.279 44 175.039 43.8 175.039 43.36V12.64C175.039 12.24 175.279 12 175.679 12H179.839C180.279 12 180.479 12.24 180.479 12.64V38.72Z" fill="#78909C"/>
<path d="M193.438 38.24C193.438 42 195.438 44 199.198 44H203.678C207.438 44 209.438 42 209.438 38.24V17.76C209.438 14 207.438 12 203.678 12H199.198C195.438 12 193.438 14 193.438 17.76V38.24ZM200.358 38.84C199.318 38.84 198.757 38.32 198.757 37.24V18.76C198.757 17.72 199.318 17.16 200.358 17.16H202.678C203.718 17.16 204.278 17.72 204.278 18.76V37.24C204.278 38.32 203.718 38.84 202.678 38.84H200.358Z" fill="#78909C"/>
<path d="M229.478 17.76C229.478 14 227.437 12 223.717 12H219.238C215.478 12 213.438 14 213.438 17.76V38.24C213.438 42 215.478 44 219.238 44H223.717C227.437 44 229.478 42 229.478 38.24V33.92C229.478 33.52 229.238 33.28 228.838 33.28H224.838C224.398 33.28 224.198 33.52 224.198 33.92V37.12C224.198 38.2 223.638 38.72 222.598 38.72H220.518C219.478 38.72 218.918 38.2 218.918 37.12V18.88C218.918 17.84 219.438 17.28 220.518 17.28H222.598C223.638 17.28 224.198 17.84 224.198 18.88V22.08C224.198 22.48 224.398 22.72 224.838 22.72H228.838C229.238 22.72 229.478 22.48 229.478 22.08V17.76Z" fill="#78909C"/>
<path d="M250.597 44C251.237 44 251.477 43.6 251.197 43.08L243.957 26.92L250.757 12.96C251.037 12.4 250.797 12 250.197 12H245.997C245.557 12 245.277 12.2 245.077 12.6L238.917 25.2V12.8C238.917 12.28 238.637 12 238.117 12H234.277C233.757 12 233.477 12.28 233.477 12.8V43.2C233.477 43.72 233.757 44 234.277 44H238.117C238.637 44 238.917 43.72 238.917 43.2V34.36L240.397 31.52L245.437 43.4C245.597 43.8 245.877 44 246.357 44H250.597Z" fill="#78909C"/>
<path d="M260.682 12C256.962 12 254.922 14 254.922 17.76V27.2C254.922 27.96 255.282 28.44 256.002 28.68L265.482 31.8V37.12C265.482 38.2 264.922 38.72 263.882 38.72H261.962C260.962 38.72 260.362 38.2 260.362 37.12V34.04C260.362 33.6 260.162 33.4 259.722 33.4H255.562C255.162 33.4 254.922 33.6 254.922 34.04V38.24C254.922 42 256.962 44 260.682 44H265.162C268.922 44 270.922 42 270.922 38.24V29C270.922 28.24 270.562 27.8 269.882 27.52L260.362 24.4V18.88C260.362 17.84 260.962 17.28 261.962 17.28H263.882C264.962 17.28 265.482 17.84 265.482 18.88V22C265.482 22.4 265.722 22.64 266.122 22.64H270.282C270.722 22.64 270.922 22.4 270.922 22V17.76C270.922 14 268.922 12 265.162 12H260.682Z" fill="#78909C"/>
</svg>
