<svg width="283" height="132" viewBox="0 0 283 132" fill="none" xmlns="http://www.w3.org/2000/svg">
<rect x="1" y="1" width="281" height="130" rx="3" stroke="#BBC7CD" stroke-opacity="0.5" stroke-width="2"/>
<circle cx="141" cy="95" r="11" fill="#F57C00"/>
<g filter="url(#filter0_d)">
<path d="M141 94.1074C140.535 94.1074 140.098 94.0163 139.688 93.834C139.268 93.6608 138.904 93.4193 138.594 93.1094C138.293 92.7995 138.056 92.4395 137.883 92.0293C137.701 91.6191 137.609 91.1816 137.609 90.7168C137.609 90.2428 137.701 89.8008 137.883 89.3906C138.056 88.9805 138.293 88.625 138.594 88.3242C138.904 88.0143 139.268 87.7728 139.688 87.5996C140.098 87.4173 140.535 87.3262 141 87.3262C141.465 87.3262 141.902 87.4173 142.312 87.5996C142.732 87.7728 143.092 88.0143 143.393 88.3242C143.702 88.625 143.944 88.9805 144.117 89.3906C144.299 89.8008 144.391 90.2428 144.391 90.7168C144.391 91.1816 144.299 91.6191 144.117 92.0293C143.944 92.4395 143.702 92.7995 143.393 93.1094C143.092 93.4193 142.732 93.6608 142.312 93.834C141.902 94.0163 141.465 94.1074 141 94.1074ZM141 88.6797C140.435 88.6797 139.952 88.8802 139.551 89.2812C139.159 89.6732 138.963 90.1517 138.963 90.7168C138.963 91.2728 139.159 91.7513 139.551 92.1523C139.952 92.5443 140.435 92.7402 141 92.7402C141.565 92.7402 142.044 92.5443 142.436 92.1523C142.837 91.7513 143.037 91.2728 143.037 90.7168C143.037 90.1517 142.837 89.6732 142.436 89.2812C142.044 88.8802 141.565 88.6797 141 88.6797ZM147.316 100.424C147.134 100.424 146.975 100.355 146.838 100.219C146.71 100.091 146.646 99.9316 146.646 99.7402C146.646 99.3027 146.574 98.9017 146.428 98.5371C146.273 98.1816 145.99 97.8763 145.58 97.6211C145.17 97.3659 144.596 97.1654 143.857 97.0195C143.128 96.8828 142.176 96.8145 141 96.8145C139.824 96.8145 138.872 96.8828 138.143 97.0195C137.404 97.1654 136.83 97.3659 136.42 97.6211C136.01 97.8763 135.727 98.1816 135.572 98.5371C135.426 98.9017 135.354 99.3027 135.354 99.7402C135.354 99.9316 135.285 100.091 135.148 100.219C135.021 100.355 134.866 100.424 134.684 100.424C134.492 100.424 134.328 100.355 134.191 100.219C134.064 100.091 134 99.9316 134 99.7402C134 98.6738 134.264 97.849 134.793 97.2656C135.331 96.6823 135.969 96.2585 136.707 95.9941C137.454 95.7207 138.225 95.5658 139.018 95.5293C139.82 95.4837 140.48 95.4609 141 95.4609C141.52 95.4609 142.18 95.4837 142.982 95.5293C143.775 95.5658 144.541 95.7207 145.279 95.9941C146.027 96.2585 146.669 96.6823 147.207 97.2656C147.736 97.849 148 98.6738 148 99.7402C148 99.9316 147.932 100.091 147.795 100.219C147.667 100.355 147.508 100.424 147.316 100.424Z" fill="white"/>
</g>
<rect x="104" y="68" width="75" height="4" rx="2" fill="#BBC7CD"/>
<rect x="89" y="56" width="105" height="4" rx="2" fill="#BBC7CD"/>
<path d="M140.399 33.9231C140.399 33.1951 140.007 32.8031 139.279 32.8031H137.878L140.119 27.8751C140.287 27.4831 140.119 27.2031 139.671 27.2031H137.151C136.815 27.2031 136.647 27.3151 136.479 27.5951L133.455 32.1871C133.175 32.6351 133.062 33.0271 133.062 33.5871V39.0751C133.062 39.8031 133.455 40.1951 134.183 40.1951H139.279C140.007 40.1951 140.399 39.8031 140.399 39.0751V33.9231ZM149.919 33.9231C149.919 33.1951 149.526 32.8031 148.799 32.8031H147.399L149.639 27.8751C149.807 27.4831 149.639 27.2031 149.191 27.2031H146.671C146.335 27.2031 146.167 27.3151 145.999 27.5951L142.975 32.1871C142.695 32.6351 142.583 33.0271 142.583 33.5871V39.0751C142.583 39.8031 142.975 40.1951 143.703 40.1951H148.799C149.526 40.1951 149.919 39.8031 149.919 39.0751V33.9231Z" fill="#9CAEB7"/>
<defs>
<filter id="filter0_d" x="133.5" y="87.3262" width="14.5" height="13.5977" filterUnits="userSpaceOnUse" color-interpolation-filters="sRGB">
<feFlood flood-opacity="0" result="BackgroundImageFix"/>
<feColorMatrix in="SourceAlpha" type="matrix" values="0 0 0 0 0 0 0 0 0 0 0 0 0 0 0 0 0 0 127 0"/>
<feOffset dx="-0.5" dy="0.5"/>
<feColorMatrix type="matrix" values="0 0 0 0 0 0 0 0 0 0 0 0 0 0 0 0 0 0 0.15 0"/>
<feBlend mode="normal" in2="BackgroundImageFix" result="effect1_dropShadow"/>
<feBlend mode="normal" in="SourceGraphic" in2="effect1_dropShadow" result="shape"/>
</filter>
</defs>
</svg>
