<svg width="283" height="132" viewBox="0 0 283 132" fill="none" xmlns="http://www.w3.org/2000/svg">
<rect width="283" height="132" rx="4" fill="white" fill-opacity="0.15"/>
<rect x="1" y="1" width="281" height="130" rx="3" stroke="#BBC7CD" stroke-opacity="0.5" stroke-width="2"/>
<g filter="url(#filter0_d)">
<rect x="110" y="40" width="64" height="68" fill="#212121"/>
</g>
<g filter="url(#filter1_d)">
<rect x="130" y="46" width="24" height="24" rx="12" fill="#F57C00"/>
</g>
<rect x="131" y="86" width="22" height="3" rx="1.5" fill="#BBC7CD"/>
<rect x="136" y="94" width="5" height="5" rx="2.5" fill="#BBC7CD"/>
<rect x="143" y="94" width="5" height="5" rx="2.5" fill="#BBC7CD"/>
<rect x="125" y="78" width="34" height="4" rx="2" fill="white"/>
<g filter="url(#filter2_d)">
<path d="M142 58.1094C141.535 58.1094 141.098 58.0182 140.688 57.8359C140.268 57.6628 139.904 57.4212 139.594 57.1113C139.293 56.8014 139.056 56.4414 138.883 56.0312C138.701 55.6211 138.609 55.1836 138.609 54.7188C138.609 54.2448 138.701 53.8027 138.883 53.3926C139.056 52.9824 139.293 52.627 139.594 52.3262C139.904 52.0163 140.268 51.7747 140.688 51.6016C141.098 51.4193 141.535 51.3281 142 51.3281C142.465 51.3281 142.902 51.4193 143.312 51.6016C143.732 51.7747 144.092 52.0163 144.393 52.3262C144.702 52.627 144.944 52.9824 145.117 53.3926C145.299 53.8027 145.391 54.2448 145.391 54.7188C145.391 55.1836 145.299 55.6211 145.117 56.0312C144.944 56.4414 144.702 56.8014 144.393 57.1113C144.092 57.4212 143.732 57.6628 143.312 57.8359C142.902 58.0182 142.465 58.1094 142 58.1094ZM142 52.6816C141.435 52.6816 140.952 52.8822 140.551 53.2832C140.159 53.6751 139.963 54.1536 139.963 54.7188C139.963 55.2747 140.159 55.7533 140.551 56.1543C140.952 56.5462 141.435 56.7422 142 56.7422C142.565 56.7422 143.044 56.5462 143.436 56.1543C143.837 55.7533 144.037 55.2747 144.037 54.7188C144.037 54.1536 143.837 53.6751 143.436 53.2832C143.044 52.8822 142.565 52.6816 142 52.6816ZM148.316 64.4258C148.134 64.4258 147.975 64.3574 147.838 64.2207C147.71 64.0931 147.646 63.9336 147.646 63.7422C147.646 63.3047 147.574 62.9036 147.428 62.5391C147.273 62.1836 146.99 61.8783 146.58 61.623C146.17 61.3678 145.596 61.1673 144.857 61.0215C144.128 60.8848 143.176 60.8164 142 60.8164C140.824 60.8164 139.872 60.8848 139.143 61.0215C138.404 61.1673 137.83 61.3678 137.42 61.623C137.01 61.8783 136.727 62.1836 136.572 62.5391C136.426 62.9036 136.354 63.3047 136.354 63.7422C136.354 63.9336 136.285 64.0931 136.148 64.2207C136.021 64.3574 135.866 64.4258 135.684 64.4258C135.492 64.4258 135.328 64.3574 135.191 64.2207C135.064 64.0931 135 63.9336 135 63.7422C135 62.6758 135.264 61.8509 135.793 61.2676C136.331 60.6842 136.969 60.2604 137.707 59.9961C138.454 59.7227 139.225 59.5677 140.018 59.5312C140.82 59.4857 141.48 59.4629 142 59.4629C142.52 59.4629 143.18 59.4857 143.982 59.5312C144.775 59.5677 145.541 59.7227 146.279 59.9961C147.027 60.2604 147.669 60.6842 148.207 61.2676C148.736 61.8509 149 62.6758 149 63.7422C149 63.9336 148.932 64.0931 148.795 64.2207C148.667 64.3574 148.508 64.4258 148.316 64.4258Z" fill="white"/>
</g>
<g filter="url(#filter3_d)">
<rect x="32" y="40" width="64" height="68" fill="#212121"/>
</g>
<g filter="url(#filter4_d)">
<rect x="52" y="46" width="24" height="24" rx="12" fill="#00BCD4"/>
</g>
<rect x="53" y="86" width="22" height="3" rx="1.5" fill="#BBC7CD"/>
<rect x="58" y="94" width="5" height="5" rx="2.5" fill="#BBC7CD"/>
<rect x="65" y="94" width="5" height="5" rx="2.5" fill="#BBC7CD"/>
<rect x="47" y="78" width="34" height="4" rx="2" fill="white"/>
<g filter="url(#filter5_d)">
<path d="M64 58.1094C63.5352 58.1094 63.0977 58.0182 62.6875 57.8359C62.2682 57.6628 61.9036 57.4212 61.5938 57.1113C61.293 56.8014 61.056 56.4414 60.8828 56.0312C60.7005 55.6211 60.6094 55.1836 60.6094 54.7188C60.6094 54.2448 60.7005 53.8027 60.8828 53.3926C61.056 52.9824 61.293 52.627 61.5938 52.3262C61.9036 52.0163 62.2682 51.7747 62.6875 51.6016C63.0977 51.4193 63.5352 51.3281 64 51.3281C64.4648 51.3281 64.9023 51.4193 65.3125 51.6016C65.7318 51.7747 66.0918 52.0163 66.3926 52.3262C66.7025 52.627 66.944 52.9824 67.1172 53.3926C67.2995 53.8027 67.3906 54.2448 67.3906 54.7188C67.3906 55.1836 67.2995 55.6211 67.1172 56.0312C66.944 56.4414 66.7025 56.8014 66.3926 57.1113C66.0918 57.4212 65.7318 57.6628 65.3125 57.8359C64.9023 58.0182 64.4648 58.1094 64 58.1094ZM64 52.6816C63.4349 52.6816 62.9518 52.8822 62.5508 53.2832C62.1589 53.6751 61.9629 54.1536 61.9629 54.7188C61.9629 55.2747 62.1589 55.7533 62.5508 56.1543C62.9518 56.5462 63.4349 56.7422 64 56.7422C64.5651 56.7422 65.0436 56.5462 65.4355 56.1543C65.8366 55.7533 66.0371 55.2747 66.0371 54.7188C66.0371 54.1536 65.8366 53.6751 65.4355 53.2832C65.0436 52.8822 64.5651 52.6816 64 52.6816ZM70.3164 64.4258C70.1341 64.4258 69.9746 64.3574 69.8379 64.2207C69.7103 64.0931 69.6465 63.9336 69.6465 63.7422C69.6465 63.3047 69.5736 62.9036 69.4277 62.5391C69.2728 62.1836 68.9902 61.8783 68.5801 61.623C68.1699 61.3678 67.5957 61.1673 66.8574 61.0215C66.1283 60.8848 65.1758 60.8164 64 60.8164C62.8242 60.8164 61.8717 60.8848 61.1426 61.0215C60.4043 61.1673 59.8301 61.3678 59.4199 61.623C59.0098 61.8783 58.7272 62.1836 58.5723 62.5391C58.4264 62.9036 58.3535 63.3047 58.3535 63.7422C58.3535 63.9336 58.2852 64.0931 58.1484 64.2207C58.0208 64.3574 57.8659 64.4258 57.6836 64.4258C57.4922 64.4258 57.3281 64.3574 57.1914 64.2207C57.0638 64.0931 57 63.9336 57 63.7422C57 62.6758 57.2643 61.8509 57.793 61.2676C58.3307 60.6842 58.9688 60.2604 59.707 59.9961C60.4544 59.7227 61.2246 59.5677 62.0176 59.5312C62.8197 59.4857 63.4805 59.4629 64 59.4629C64.5195 59.4629 65.1803 59.4857 65.9824 59.5312C66.7754 59.5677 67.541 59.7227 68.2793 59.9961C69.0267 60.2604 69.6693 60.6842 70.207 61.2676C70.7357 61.8509 71 62.6758 71 63.7422C71 63.9336 70.9316 64.0931 70.7949 64.2207C70.6673 64.3574 70.5078 64.4258 70.3164 64.4258Z" fill="white"/>
</g>
<g filter="url(#filter6_d)">
<rect x="188" y="40" width="64" height="68" fill="#212121"/>
</g>
<g filter="url(#filter7_d)">
<rect x="208" y="46" width="24" height="24" rx="12" fill="#FBC02D"/>
</g>
<rect x="209" y="86" width="22" height="3" rx="1.5" fill="#BBC7CD"/>
<rect x="214" y="94" width="5" height="5" rx="2.5" fill="#BBC7CD"/>
<rect x="221" y="94" width="5" height="5" rx="2.5" fill="#BBC7CD"/>
<rect x="203" y="78" width="34" height="4" rx="2" fill="white"/>
<g filter="url(#filter8_d)">
<path d="M220 58.1094C219.535 58.1094 219.098 58.0182 218.688 57.8359C218.268 57.6628 217.904 57.4212 217.594 57.1113C217.293 56.8014 217.056 56.4414 216.883 56.0312C216.701 55.6211 216.609 55.1836 216.609 54.7188C216.609 54.2448 216.701 53.8027 216.883 53.3926C217.056 52.9824 217.293 52.627 217.594 52.3262C217.904 52.0163 218.268 51.7747 218.688 51.6016C219.098 51.4193 219.535 51.3281 220 51.3281C220.465 51.3281 220.902 51.4193 221.312 51.6016C221.732 51.7747 222.092 52.0163 222.393 52.3262C222.702 52.627 222.944 52.9824 223.117 53.3926C223.299 53.8027 223.391 54.2448 223.391 54.7188C223.391 55.1836 223.299 55.6211 223.117 56.0312C222.944 56.4414 222.702 56.8014 222.393 57.1113C222.092 57.4212 221.732 57.6628 221.312 57.8359C220.902 58.0182 220.465 58.1094 220 58.1094ZM220 52.6816C219.435 52.6816 218.952 52.8822 218.551 53.2832C218.159 53.6751 217.963 54.1536 217.963 54.7188C217.963 55.2747 218.159 55.7533 218.551 56.1543C218.952 56.5462 219.435 56.7422 220 56.7422C220.565 56.7422 221.044 56.5462 221.436 56.1543C221.837 55.7533 222.037 55.2747 222.037 54.7188C222.037 54.1536 221.837 53.6751 221.436 53.2832C221.044 52.8822 220.565 52.6816 220 52.6816ZM226.316 64.4258C226.134 64.4258 225.975 64.3574 225.838 64.2207C225.71 64.0931 225.646 63.9336 225.646 63.7422C225.646 63.3047 225.574 62.9036 225.428 62.5391C225.273 62.1836 224.99 61.8783 224.58 61.623C224.17 61.3678 223.596 61.1673 222.857 61.0215C222.128 60.8848 221.176 60.8164 220 60.8164C218.824 60.8164 217.872 60.8848 217.143 61.0215C216.404 61.1673 215.83 61.3678 215.42 61.623C215.01 61.8783 214.727 62.1836 214.572 62.5391C214.426 62.9036 214.354 63.3047 214.354 63.7422C214.354 63.9336 214.285 64.0931 214.148 64.2207C214.021 64.3574 213.866 64.4258 213.684 64.4258C213.492 64.4258 213.328 64.3574 213.191 64.2207C213.064 64.0931 213 63.9336 213 63.7422C213 62.6758 213.264 61.8509 213.793 61.2676C214.331 60.6842 214.969 60.2604 215.707 59.9961C216.454 59.7227 217.225 59.5677 218.018 59.5312C218.82 59.4857 219.48 59.4629 220 59.4629C220.52 59.4629 221.18 59.4857 221.982 59.5312C222.775 59.5677 223.541 59.7227 224.279 59.9961C225.027 60.2604 225.669 60.6842 226.207 61.2676C226.736 61.8509 227 62.6758 227 63.7422C227 63.9336 226.932 64.0931 226.795 64.2207C226.667 64.3574 226.508 64.4258 226.316 64.4258Z" fill="white"/>
</g>
<rect x="89" y="24" width="105" height="4" rx="2" fill="#BBC7CD"/>
<rect x="110" y="12" width="64" height="4" rx="2" fill="white"/>
<defs>
<filter id="filter0_d" x="108" y="40" width="68" height="72" filterUnits="userSpaceOnUse" color-interpolation-filters="sRGB">
<feFlood flood-opacity="0" result="BackgroundImageFix"/>
<feColorMatrix in="SourceAlpha" type="matrix" values="0 0 0 0 0 0 0 0 0 0 0 0 0 0 0 0 0 0 127 0"/>
<feOffset dy="2"/>
<feGaussianBlur stdDeviation="1"/>
<feColorMatrix type="matrix" values="0 0 0 0 0 0 0 0 0 0 0 0 0 0 0 0 0 0 0.03 0"/>
<feBlend mode="normal" in2="BackgroundImageFix" result="effect1_dropShadow"/>
<feBlend mode="normal" in="SourceGraphic" in2="effect1_dropShadow" result="shape"/>
</filter>
<filter id="filter1_d" x="128" y="46" width="28" height="28" filterUnits="userSpaceOnUse" color-interpolation-filters="sRGB">
<feFlood flood-opacity="0" result="BackgroundImageFix"/>
<feColorMatrix in="SourceAlpha" type="matrix" values="0 0 0 0 0 0 0 0 0 0 0 0 0 0 0 0 0 0 127 0"/>
<feOffset dy="2"/>
<feGaussianBlur stdDeviation="1"/>
<feColorMatrix type="matrix" values="0 0 0 0 0 0 0 0 0 0 0 0 0 0 0 0 0 0 0.03 0"/>
<feBlend mode="normal" in2="BackgroundImageFix" result="effect1_dropShadow"/>
<feBlend mode="normal" in="SourceGraphic" in2="effect1_dropShadow" result="shape"/>
</filter>
<filter id="filter2_d" x="134.5" y="51.3281" width="14.5" height="13.5977" filterUnits="userSpaceOnUse" color-interpolation-filters="sRGB">
<feFlood flood-opacity="0" result="BackgroundImageFix"/>
<feColorMatrix in="SourceAlpha" type="matrix" values="0 0 0 0 0 0 0 0 0 0 0 0 0 0 0 0 0 0 127 0"/>
<feOffset dx="-0.5" dy="0.5"/>
<feColorMatrix type="matrix" values="0 0 0 0 0 0 0 0 0 0 0 0 0 0 0 0 0 0 0.15 0"/>
<feBlend mode="normal" in2="BackgroundImageFix" result="effect1_dropShadow"/>
<feBlend mode="normal" in="SourceGraphic" in2="effect1_dropShadow" result="shape"/>
</filter>
<filter id="filter3_d" x="30" y="40" width="68" height="72" filterUnits="userSpaceOnUse" color-interpolation-filters="sRGB">
<feFlood flood-opacity="0" result="BackgroundImageFix"/>
<feColorMatrix in="SourceAlpha" type="matrix" values="0 0 0 0 0 0 0 0 0 0 0 0 0 0 0 0 0 0 127 0"/>
<feOffset dy="2"/>
<feGaussianBlur stdDeviation="1"/>
<feColorMatrix type="matrix" values="0 0 0 0 0 0 0 0 0 0 0 0 0 0 0 0 0 0 0.03 0"/>
<feBlend mode="normal" in2="BackgroundImageFix" result="effect1_dropShadow"/>
<feBlend mode="normal" in="SourceGraphic" in2="effect1_dropShadow" result="shape"/>
</filter>
<filter id="filter4_d" x="50" y="46" width="28" height="28" filterUnits="userSpaceOnUse" color-interpolation-filters="sRGB">
<feFlood flood-opacity="0" result="BackgroundImageFix"/>
<feColorMatrix in="SourceAlpha" type="matrix" values="0 0 0 0 0 0 0 0 0 0 0 0 0 0 0 0 0 0 127 0"/>
<feOffset dy="2"/>
<feGaussianBlur stdDeviation="1"/>
<feColorMatrix type="matrix" values="0 0 0 0 0 0 0 0 0 0 0 0 0 0 0 0 0 0 0.03 0"/>
<feBlend mode="normal" in2="BackgroundImageFix" result="effect1_dropShadow"/>
<feBlend mode="normal" in="SourceGraphic" in2="effect1_dropShadow" result="shape"/>
</filter>
<filter id="filter5_d" x="56.5" y="51.3281" width="14.5" height="13.5977" filterUnits="userSpaceOnUse" color-interpolation-filters="sRGB">
<feFlood flood-opacity="0" result="BackgroundImageFix"/>
<feColorMatrix in="SourceAlpha" type="matrix" values="0 0 0 0 0 0 0 0 0 0 0 0 0 0 0 0 0 0 127 0"/>
<feOffset dx="-0.5" dy="0.5"/>
<feColorMatrix type="matrix" values="0 0 0 0 0 0 0 0 0 0 0 0 0 0 0 0 0 0 0.15 0"/>
<feBlend mode="normal" in2="BackgroundImageFix" result="effect1_dropShadow"/>
<feBlend mode="normal" in="SourceGraphic" in2="effect1_dropShadow" result="shape"/>
</filter>
<filter id="filter6_d" x="186" y="40" width="68" height="72" filterUnits="userSpaceOnUse" color-interpolation-filters="sRGB">
<feFlood flood-opacity="0" result="BackgroundImageFix"/>
<feColorMatrix in="SourceAlpha" type="matrix" values="0 0 0 0 0 0 0 0 0 0 0 0 0 0 0 0 0 0 127 0"/>
<feOffset dy="2"/>
<feGaussianBlur stdDeviation="1"/>
<feColorMatrix type="matrix" values="0 0 0 0 0 0 0 0 0 0 0 0 0 0 0 0 0 0 0.03 0"/>
<feBlend mode="normal" in2="BackgroundImageFix" result="effect1_dropShadow"/>
<feBlend mode="normal" in="SourceGraphic" in2="effect1_dropShadow" result="shape"/>
</filter>
<filter id="filter7_d" x="206" y="46" width="28" height="28" filterUnits="userSpaceOnUse" color-interpolation-filters="sRGB">
<feFlood flood-opacity="0" result="BackgroundImageFix"/>
<feColorMatrix in="SourceAlpha" type="matrix" values="0 0 0 0 0 0 0 0 0 0 0 0 0 0 0 0 0 0 127 0"/>
<feOffset dy="2"/>
<feGaussianBlur stdDeviation="1"/>
<feColorMatrix type="matrix" values="0 0 0 0 0 0 0 0 0 0 0 0 0 0 0 0 0 0 0.03 0"/>
<feBlend mode="normal" in2="BackgroundImageFix" result="effect1_dropShadow"/>
<feBlend mode="normal" in="SourceGraphic" in2="effect1_dropShadow" result="shape"/>
</filter>
<filter id="filter8_d" x="212.5" y="51.3281" width="14.5" height="13.5977" filterUnits="userSpaceOnUse" color-interpolation-filters="sRGB">
<feFlood flood-opacity="0" result="BackgroundImageFix"/>
<feColorMatrix in="SourceAlpha" type="matrix" values="0 0 0 0 0 0 0 0 0 0 0 0 0 0 0 0 0 0 127 0"/>
<feOffset dx="-0.5" dy="0.5"/>
<feColorMatrix type="matrix" values="0 0 0 0 0 0 0 0 0 0 0 0 0 0 0 0 0 0 0.15 0"/>
<feBlend mode="normal" in2="BackgroundImageFix" result="effect1_dropShadow"/>
<feBlend mode="normal" in="SourceGraphic" in2="effect1_dropShadow" result="shape"/>
</filter>
</defs>
</svg>
