<svg width="283" height="135" viewBox="0 0 283 135" fill="none" xmlns="http://www.w3.org/2000/svg">
<rect x="1" y="1.0293" width="281" height="130" rx="3" fill="#ECEFF1" stroke="#BBC7CD" stroke-width="2"/>
<g filter="url(#filter0_d)">
<path d="M209 2.0293H279C280.105 2.0293 281 2.92473 281 4.0293V128.029C281 129.134 280.105 130.029 279 130.029H209V2.0293Z" fill="white"/>
</g>
<path d="M268.732 16.6543L271.779 13.6074C271.831 13.5553 271.87 13.4967 271.896 13.4316C271.929 13.3665 271.945 13.2982 271.945 13.2266C271.945 13.0833 271.893 12.9629 271.789 12.8652C271.691 12.7611 271.571 12.709 271.428 12.709C271.356 12.709 271.288 12.7253 271.223 12.7578C271.158 12.7839 271.099 12.8229 271.047 12.875L268 15.9219L264.953 12.875C264.901 12.8294 264.846 12.7936 264.787 12.7676C264.729 12.7415 264.663 12.7285 264.592 12.7285C264.449 12.7285 264.325 12.7806 264.221 12.8848C264.123 12.9824 264.074 13.1029 264.074 13.2461C264.074 13.3177 264.087 13.3828 264.113 13.4414C264.139 13.5 264.175 13.5553 264.221 13.6074L267.268 16.6543L264.221 19.7012C264.169 19.7533 264.13 19.8118 264.104 19.877C264.077 19.9355 264.064 20.0007 264.064 20.0723C264.064 20.1439 264.077 20.2122 264.104 20.2773C264.13 20.3359 264.169 20.388 264.221 20.4336C264.266 20.4857 264.318 20.5247 264.377 20.5508C264.442 20.5768 264.51 20.5898 264.582 20.5898C264.654 20.5898 264.719 20.5768 264.777 20.5508C264.842 20.5247 264.901 20.4857 264.953 20.4336L268 17.3867L271.047 20.4336C271.099 20.4857 271.154 20.5247 271.213 20.5508C271.278 20.5768 271.346 20.5898 271.418 20.5898C271.49 20.5898 271.555 20.5768 271.613 20.5508C271.678 20.5247 271.734 20.4857 271.779 20.4336C271.831 20.388 271.87 20.3359 271.896 20.2773C271.923 20.2122 271.936 20.1439 271.936 20.0723C271.936 20.0007 271.923 19.9355 271.896 19.877C271.87 19.8118 271.831 19.7533 271.779 19.7012L268.732 16.6543Z" fill="#BBC7CD"/>
<rect x="216" y="14.0293" width="36" height="3" rx="1.5" fill="#BBC7CD"/>
<defs>
<filter id="filter0_d" x="205" y="2.0293" width="76" height="132" filterUnits="userSpaceOnUse" color-interpolation-filters="sRGB">
<feFlood flood-opacity="0" result="BackgroundImageFix"/>
<feColorMatrix in="SourceAlpha" type="matrix" values="0 0 0 0 0 0 0 0 0 0 0 0 0 0 0 0 0 0 127 0"/>
<feOffset dx="-2" dy="2"/>
<feGaussianBlur stdDeviation="1"/>
<feColorMatrix type="matrix" values="0 0 0 0 0 0 0 0 0 0 0 0 0 0 0 0 0 0 0.06 0"/>
<feBlend mode="normal" in2="BackgroundImageFix" result="effect1_dropShadow"/>
<feBlend mode="normal" in="SourceGraphic" in2="effect1_dropShadow" result="shape"/>
</filter>
</defs>
</svg>
