<svg width="285" height="133" viewBox="0 0 285 133" fill="none" xmlns="http://www.w3.org/2000/svg">
<rect x="1" y="1.44336" width="281" height="130" rx="3" fill="#ECEFF1" stroke="#BBC7CD" stroke-width="2"/>
<g filter="url(#filter0_d)">
<rect x="2" y="54.4434" width="279" height="25" fill="white"/>
</g>
<rect x="78" y="65.4434" width="32" height="3" rx="1.5" fill="#BBC7CD"/>
<rect x="148" y="65.4434" width="32" height="3" rx="1.5" fill="#263238"/>
<path d="M39.4121 67.1133C39.3392 67.1133 39.2708 67.1042 39.207 67.0859C39.1523 67.0677 39.0977 67.0358 39.043 66.9902V67.0039L33 62.4648L26.957 67.0039C26.9023 67.0404 26.8431 67.0677 26.7793 67.0859C26.7246 67.1042 26.6608 67.1133 26.5879 67.1133C26.4238 67.1133 26.2826 67.0586 26.1641 66.9492C26.0456 66.8307 25.9863 66.6849 25.9863 66.5117C25.9863 66.4206 26.0091 66.334 26.0547 66.252C26.1003 66.1608 26.1595 66.0879 26.2324 66.0332L32.6445 61.2344C32.6901 61.1979 32.7448 61.1706 32.8086 61.1523C32.8724 61.125 32.9362 61.1113 33 61.1113C33.0638 61.1113 33.1276 61.125 33.1914 61.1523C33.2552 61.1706 33.3099 61.1979 33.3555 61.2344L39.7676 66.0332C39.8405 66.0879 39.8952 66.1562 39.9316 66.2383C39.9681 66.3203 39.9863 66.4069 39.9863 66.498C39.9863 66.5618 39.9772 66.6257 39.959 66.6895C39.9408 66.7441 39.918 66.7943 39.8906 66.8398C39.8359 66.9219 39.7676 66.9902 39.6855 67.0449C39.6035 67.0905 39.5124 67.1133 39.4121 67.1133ZM37.8125 73.5254H28.1875C28.0234 73.5254 27.8822 73.4661 27.7637 73.3477C27.6543 73.2292 27.5996 73.0879 27.5996 72.9238V65.3223C27.5996 65.1491 27.6543 65.0078 27.7637 64.8984C27.8822 64.7799 28.0234 64.7207 28.1875 64.7207C28.3607 64.7207 28.502 64.7799 28.6113 64.8984C28.7298 65.0078 28.7891 65.1491 28.7891 65.3223V72.3223H37.2109V65.3223C37.2109 65.1491 37.2656 65.0078 37.375 64.8984C37.4935 64.7799 37.6393 64.7207 37.8125 64.7207C37.9766 64.7207 38.1133 64.7799 38.2227 64.8984C38.3411 65.0078 38.4004 65.1491 38.4004 65.3223V72.9238C38.4004 73.0879 38.3411 73.2292 38.2227 73.3477C38.1133 73.4661 37.9766 73.5254 37.8125 73.5254ZM34.5996 73.5254C34.4355 73.5254 34.2943 73.4661 34.1758 73.3477C34.0573 73.2292 33.998 73.0879 33.998 72.9238V67.9199H32.002V72.9238C32.002 73.0879 31.9427 73.2292 31.8242 73.3477C31.7057 73.4661 31.5645 73.5254 31.4004 73.5254C31.2363 73.5254 31.0951 73.4661 30.9766 73.3477C30.8581 73.2292 30.7988 73.0879 30.7988 72.9238V67.3184C30.7988 67.1543 30.8581 67.013 30.9766 66.8945C31.0951 66.776 31.2363 66.7168 31.4004 66.7168H34.5996C34.7637 66.7168 34.9049 66.776 35.0234 66.8945C35.1419 67.013 35.2012 67.1543 35.2012 67.3184V72.9238C35.2012 73.0879 35.1419 73.2292 35.0234 73.3477C34.9049 73.4661 34.7637 73.5254 34.5996 73.5254Z" fill="#BBC7CD"/>
<path d="M57.168 71.7754C57.0586 71.7663 56.9538 71.7389 56.8535 71.6934C56.7624 71.6478 56.6803 71.5885 56.6074 71.5156C56.5345 71.4427 56.4753 71.3607 56.4297 71.2695C56.3932 71.1693 56.375 71.0645 56.375 70.9551C56.375 70.8457 56.3932 70.7454 56.4297 70.6543C56.4753 70.554 56.5345 70.4674 56.6074 70.3945L59.752 67.25L56.6074 64.1055C56.5892 64.0599 56.5755 64.0143 56.5664 63.9688C56.5573 63.9141 56.5527 63.8594 56.5527 63.8047C56.5527 63.5951 56.6302 63.4128 56.7852 63.2578C56.9401 63.1029 57.1224 63.0254 57.332 63.0254C57.4049 63.0254 57.4733 63.0345 57.5371 63.0527C57.6009 63.071 57.6647 63.0938 57.7285 63.1211H57.7148L61.3926 66.7988C61.4655 66.8626 61.5202 66.9447 61.5566 67.0449C61.6022 67.1361 61.625 67.2363 61.625 67.3457C61.625 67.4551 61.6022 67.5599 61.5566 67.6602C61.5202 67.7513 61.4655 67.8333 61.3926 67.9062L57.7148 71.5156C57.651 71.5885 57.569 71.6478 57.4688 71.6934C57.3776 71.7389 57.2773 71.7663 57.168 71.7754Z" fill="#BBC7CD"/>
<path d="M127.168 71.7754C127.059 71.7663 126.954 71.7389 126.854 71.6934C126.762 71.6478 126.68 71.5885 126.607 71.5156C126.535 71.4427 126.475 71.3607 126.43 71.2695C126.393 71.1693 126.375 71.0645 126.375 70.9551C126.375 70.8457 126.393 70.7454 126.43 70.6543C126.475 70.554 126.535 70.4674 126.607 70.3945L129.752 67.25L126.607 64.1055C126.589 64.0599 126.576 64.0143 126.566 63.9688C126.557 63.9141 126.553 63.8594 126.553 63.8047C126.553 63.5951 126.63 63.4128 126.785 63.2578C126.94 63.1029 127.122 63.0254 127.332 63.0254C127.405 63.0254 127.473 63.0345 127.537 63.0527C127.601 63.071 127.665 63.0938 127.729 63.1211H127.715L131.393 66.7988C131.465 66.8626 131.52 66.9447 131.557 67.0449C131.602 67.1361 131.625 67.2363 131.625 67.3457C131.625 67.4551 131.602 67.5599 131.557 67.6602C131.52 67.7513 131.465 67.8333 131.393 67.9062L127.715 71.5156C127.651 71.5885 127.569 71.6478 127.469 71.6934C127.378 71.7389 127.277 71.7663 127.168 71.7754Z" fill="#BBC7CD"/>
<defs>
<filter id="filter0_d" x="2" y="54.4434" width="283" height="29" filterUnits="userSpaceOnUse" color-interpolation-filters="sRGB">
<feFlood flood-opacity="0" result="BackgroundImageFix"/>
<feColorMatrix in="SourceAlpha" type="matrix" values="0 0 0 0 0 0 0 0 0 0 0 0 0 0 0 0 0 0 127 0"/>
<feOffset dx="2" dy="2"/>
<feGaussianBlur stdDeviation="1"/>
<feColorMatrix type="matrix" values="0 0 0 0 0 0 0 0 0 0 0 0 0 0 0 0 0 0 0.03 0"/>
<feBlend mode="normal" in2="BackgroundImageFix" result="effect1_dropShadow"/>
<feBlend mode="normal" in="SourceGraphic" in2="effect1_dropShadow" result="shape"/>
</filter>
</defs>
</svg>
