<svg width="283" height="133" viewBox="0 0 283 133" fill="none" xmlns="http://www.w3.org/2000/svg">
<rect x="1" y="1.0293" width="281" height="130" rx="3" fill="#ECEFF1" stroke="#BBC7CD" stroke-width="2"/>
<g filter="url(#filter0_dd)">
<path fill-rule="evenodd" clip-rule="evenodd" d="M158 32.0293C158 23.1927 150.837 16.0293 142 16.0293C133.163 16.0293 126 23.1927 126 32.0293H73C71.3431 32.0293 70 33.3724 70 35.0293V108.029C70 109.686 71.3431 111.029 73 111.029H211C212.657 111.029 214 109.686 214 108.029V35.0293C214 33.3724 212.657 32.0293 211 32.0293H158Z" fill="white"/>
</g>
<rect x="145" y="93.0293" width="61" height="10" rx="5" fill="#263238"/>
<rect x="166" y="97.0293" width="20" height="2" rx="1" fill="#BBC7CD"/>
<rect x="82" y="93.0293" width="57" height="10" rx="5" fill="#BBC7CD"/>
<rect x="101" y="97.0293" width="20" height="2" rx="1" fill="#263238"/>
<rect x="121" y="58.0293" width="43" height="3" rx="1.5" fill="#263238"/>
<rect x="96" y="69.0293" width="92" height="3" rx="1.5" fill="#BBC7CD"/>
<rect x="106" y="78.0293" width="74" height="3" rx="1.5" fill="#BBC7CD"/>
<path d="M142 19.5293C140.344 19.5293 138.789 19.8418 137.336 20.4668C135.867 21.0918 134.586 21.9512 133.492 23.0449C132.414 24.123 131.562 25.3965 130.938 26.8652C130.312 28.3184 130 29.873 130 31.5293C130 33.1855 130.312 34.7402 130.938 36.1934C131.562 37.6621 132.414 38.9434 133.492 40.0371C134.586 41.1152 135.867 41.9668 137.336 42.5918C138.789 43.2168 140.344 43.5293 142 43.5293C143.656 43.5293 145.211 43.2168 146.664 42.5918C148.133 41.9668 149.406 41.1152 150.484 40.0371C151.578 38.9434 152.438 37.6621 153.062 36.1934C153.688 34.7402 154 33.1855 154 31.5293C154 29.873 153.688 28.3184 153.062 26.8652C152.438 25.3965 151.578 24.123 150.484 23.0449C149.406 21.9512 148.133 21.0918 146.664 20.4668C145.211 19.8418 143.656 19.5293 142 19.5293ZM142 41.5371C140.625 41.5371 139.328 41.2715 138.109 40.7402C136.891 40.2246 135.828 39.5137 134.922 38.6074C134.016 37.7012 133.305 36.6387 132.789 35.4199C132.258 34.2012 131.992 32.9043 131.992 31.5293C131.992 30.1543 132.258 28.8574 132.789 27.6387C133.305 26.4199 134.016 25.3574 134.922 24.4512C135.828 23.5449 136.891 22.834 138.109 22.3184C139.328 21.7871 140.625 21.5215 142 21.5215C143.375 21.5215 144.672 21.7871 145.891 22.3184C147.109 22.834 148.172 23.5449 149.078 24.4512C149.984 25.3574 150.695 26.4199 151.211 27.6387C151.742 28.8574 152.008 30.1543 152.008 31.5293C152.008 32.9043 151.742 34.2012 151.211 35.4199C150.695 36.6387 149.984 37.7012 149.078 38.6074C148.172 39.5137 147.109 40.2246 145.891 40.7402C144.672 41.2715 143.375 41.5371 142 41.5371ZM138.93 25.7871C138.539 26.1777 138.227 26.6387 137.992 27.1699C137.773 27.7012 137.664 28.2637 137.664 28.8574C137.664 29.1387 137.758 29.3809 137.945 29.584C138.148 29.7715 138.391 29.8652 138.672 29.8652C138.938 29.8652 139.164 29.7715 139.352 29.584C139.555 29.3809 139.656 29.1387 139.656 28.8574C139.656 28.5293 139.719 28.2246 139.844 27.9434C139.969 27.6621 140.133 27.4199 140.336 27.2168C140.555 27.0137 140.805 26.8574 141.086 26.748C141.367 26.623 141.672 26.5605 142 26.5605C142.328 26.5605 142.633 26.623 142.914 26.748C143.195 26.8574 143.445 27.0137 143.664 27.2168C143.867 27.4199 144.031 27.6699 144.156 27.9668C144.281 28.248 144.344 28.5527 144.344 28.8809C144.344 29.5215 144.117 30.0684 143.664 30.5215C143.211 30.9746 142.664 31.2012 142.023 31.2012C142.023 31.2012 142.016 31.2012 142 31.2012C141.719 31.2168 141.484 31.3184 141.297 31.5059C141.109 31.6934 141.008 31.9277 140.992 32.209V33.5449C140.992 33.8262 141.086 34.0684 141.273 34.2715C141.477 34.459 141.719 34.5527 142 34.5527C142.281 34.5527 142.516 34.459 142.703 34.2715C142.906 34.0684 143.008 33.8262 143.008 33.5449V33.0996C143.414 32.9902 143.789 32.8418 144.133 32.6543C144.477 32.4512 144.789 32.2168 145.07 31.9512C145.461 31.5449 145.766 31.084 145.984 30.5684C146.219 30.0371 146.336 29.4746 146.336 28.8809C146.336 28.2715 146.219 27.709 145.984 27.1934C145.766 26.6621 145.461 26.2012 145.07 25.8105C144.664 25.4355 144.195 25.1387 143.664 24.9199C143.148 24.6855 142.594 24.5684 142 24.5684C141.406 24.5684 140.844 24.6777 140.312 24.8965C139.797 25.1152 139.336 25.4121 138.93 25.7871ZM143.664 37.2012C143.664 37.6543 143.5 38.0449 143.172 38.373C142.844 38.7012 142.453 38.8652 142 38.8652C141.547 38.8652 141.156 38.7012 140.828 38.373C140.5 38.0449 140.336 37.6543 140.336 37.2012C140.336 36.7324 140.5 36.3418 140.828 36.0293C141.156 35.7012 141.547 35.5371 142 35.5371C142.453 35.5371 142.844 35.7012 143.172 36.0293C143.5 36.3418 143.664 36.7324 143.664 37.2012Z" fill="#BBC7CD"/>
<defs>
<filter id="filter0_dd" x="66" y="16.0293" width="152" height="103" filterUnits="userSpaceOnUse" color-interpolation-filters="sRGB">
<feFlood flood-opacity="0" result="BackgroundImageFix"/>
<feColorMatrix in="SourceAlpha" type="matrix" values="0 0 0 0 0 0 0 0 0 0 0 0 0 0 0 0 0 0 127 0"/>
<feOffset dy="2"/>
<feGaussianBlur stdDeviation="1"/>
<feColorMatrix type="matrix" values="0 0 0 0 0 0 0 0 0 0 0 0 0 0 0 0 0 0 0.03 0"/>
<feBlend mode="normal" in2="BackgroundImageFix" result="effect1_dropShadow"/>
<feColorMatrix in="SourceAlpha" type="matrix" values="0 0 0 0 0 0 0 0 0 0 0 0 0 0 0 0 0 0 127 0"/>
<feOffset dy="4"/>
<feGaussianBlur stdDeviation="2"/>
<feColorMatrix type="matrix" values="0 0 0 0 0 0 0 0 0 0 0 0 0 0 0 0 0 0 0.06 0"/>
<feBlend mode="normal" in2="effect1_dropShadow" result="effect2_dropShadow"/>
<feBlend mode="normal" in="SourceGraphic" in2="effect2_dropShadow" result="shape"/>
</filter>
</defs>
</svg>
