<svg width="283" height="133" viewBox="0 0 283 133" fill="none" xmlns="http://www.w3.org/2000/svg">
<rect x="1" y="1.44336" width="281" height="130" rx="3" fill="#ECEFF1" stroke="#BBC7CD" stroke-width="2"/>
<g filter="url(#filter0_d)">
<rect x="56" y="54.4434" width="171" height="24" rx="3" fill="white"/>
</g>
<path d="M142 54.4434H184L189 66.4434L184 78.4434H142L146 66.4434L142 54.4434Z" fill="#ECEFF1"/>
<rect x="198" y="65.4434" width="20" height="3" rx="1.5" fill="#BBC7CD"/>
<rect x="68" y="65.4434" width="22" height="3" rx="1.5" fill="#BBC7CD"/>
<rect x="154" y="65.4434" width="22" height="3" rx="1.5" fill="#263238"/>
<rect x="111" y="65.4434" width="22" height="3" rx="1.5" fill="#BBC7CD"/>
<path opacity="0.5" d="M98 54.4434H99L103 66.4434L99 78.4434H98L102 66.4434L98 54.4434Z" fill="#BBC7CD"/>
<path opacity="0.5" d="M141 54.4434H142L146 66.4434L142 78.4434H141L145 66.4434L141 54.4434Z" fill="#BBC7CD"/>
<path opacity="0.5" d="M184 54.4434H185L190 66.4434L185 78.4434H184L189 66.4434L184 54.4434Z" fill="#BBC7CD"/>
<defs>
<filter id="filter0_d" x="54" y="54.4434" width="175" height="28" filterUnits="userSpaceOnUse" color-interpolation-filters="sRGB">
<feFlood flood-opacity="0" result="BackgroundImageFix"/>
<feColorMatrix in="SourceAlpha" type="matrix" values="0 0 0 0 0 0 0 0 0 0 0 0 0 0 0 0 0 0 127 0"/>
<feOffset dy="2"/>
<feGaussianBlur stdDeviation="1"/>
<feColorMatrix type="matrix" values="0 0 0 0 0 0 0 0 0 0 0 0 0 0 0 0 0 0 0.03 0"/>
<feBlend mode="normal" in2="BackgroundImageFix" result="effect1_dropShadow"/>
<feBlend mode="normal" in="SourceGraphic" in2="effect1_dropShadow" result="shape"/>
</filter>
</defs>
</svg>
