<svg width="283" height="133" viewBox="0 0 283 133" fill="none" xmlns="http://www.w3.org/2000/svg">
<rect y="0.318115" width="283" height="132" rx="4" fill="white" fill-opacity="0.15"/>
<rect x="1" y="1.31812" width="281" height="130" rx="3" stroke="#BBC7CD" stroke-opacity="0.5" stroke-width="2"/>
<g filter="url(#filter0_d)">
<rect x="28" y="41.3181" width="72" height="51" rx="3" fill="#212121"/>
</g>
<rect x="36" y="49.3181" width="24" height="3" rx="1.5" fill="#BBC7CD"/>
<rect x="36" y="78.3181" width="6" height="6" rx="3" fill="#F57C00"/>
<path d="M41.9212 66.953C42.1872 66.813 42.2992 66.701 42.2992 66.435V63.131C42.2992 61.815 41.5852 61.115 40.2832 61.115H38.7152C37.3992 61.115 36.6992 61.815 36.6992 63.131V64.615C36.6992 64.755 36.7692 64.839 36.9232 64.839H38.3792C38.5192 64.839 38.6032 64.755 38.6032 64.615V63.523C38.6032 63.159 38.7852 62.963 39.1632 62.963H39.8352C40.1852 62.963 40.3952 63.159 40.3952 63.523V65.595L37.0632 67.387C36.7972 67.527 36.6992 67.639 36.6992 67.905V72.035C36.6992 72.217 36.7972 72.315 36.9792 72.315H42.0192C42.2012 72.315 42.2992 72.217 42.2992 72.035V69.893C42.2992 69.711 42.2012 69.613 42.0192 69.613H40.6752C40.4932 69.613 40.3952 69.711 40.3952 69.893V70.467H38.8832C38.7012 70.467 38.6032 70.369 38.6032 70.187V68.969C38.6032 68.815 38.6592 68.717 38.7992 68.633L41.9212 66.953Z" fill="#9CAEB7"/>
<path d="M46.4012 65.441L48.0952 61.437C48.1792 61.241 48.0952 61.115 47.8852 61.115H46.4292C46.2612 61.115 46.1632 61.185 46.1072 61.325L44.1192 66.057C44.0212 66.309 43.9792 66.491 43.9792 66.757V70.355C43.9792 71.629 44.6652 72.315 45.9392 72.315H47.6192C48.8932 72.315 49.5792 71.629 49.5792 70.355V67.401C49.5792 66.127 48.8932 65.441 47.6192 65.441H46.4012ZM46.3872 70.467C46.0232 70.467 45.8272 70.271 45.8272 69.907V67.849C45.8272 67.485 46.0232 67.289 46.3872 67.289H47.1712C47.5352 67.289 47.7312 67.485 47.7312 67.849V69.907C47.7312 70.271 47.5352 70.467 47.1712 70.467H46.3872Z" fill="#9CAEB7"/>
<path d="M53.9052 61.983C52.6592 61.983 51.6792 62.991 51.6792 64.223C51.6792 65.427 52.6592 66.407 53.9052 66.407C55.1092 66.407 56.0892 65.427 56.0892 64.223C56.0892 62.991 55.1092 61.983 53.9052 61.983ZM59.3652 62.039C59.1972 62.039 59.1412 62.109 59.0432 62.263L52.5892 71.993C52.4632 72.189 52.6032 72.315 52.8132 72.315H54.1292C54.2972 72.315 54.3532 72.245 54.4512 72.091L60.8912 62.361C61.0172 62.165 60.8772 62.039 60.6672 62.039H59.3652ZM53.9052 63.439C54.2972 63.439 54.6612 63.789 54.6612 64.223C54.6612 64.629 54.2972 64.979 53.9052 64.979C53.4712 64.979 53.1212 64.629 53.1212 64.223C53.1212 63.789 53.4712 63.439 53.9052 63.439ZM59.4212 68.101C58.1752 68.101 57.1952 69.109 57.1952 70.341C57.1952 71.545 58.1752 72.525 59.4212 72.525C60.6252 72.525 61.6052 71.545 61.6052 70.341C61.6052 69.109 60.6252 68.101 59.4212 68.101ZM59.4212 69.557C59.8132 69.557 60.1772 69.907 60.1772 70.341C60.1772 70.747 59.8132 71.097 59.4212 71.097C58.9872 71.097 58.6372 70.747 58.6372 70.341C58.6372 69.907 58.9872 69.557 59.4212 69.557Z" fill="#9CAEB7"/>
<g filter="url(#filter1_d)">
<rect x="106" y="41.3181" width="72" height="51" rx="3" fill="#212121"/>
</g>
<rect x="114" y="49.3181" width="15" height="3" rx="1.5" fill="#BBC7CD"/>
<rect x="114" y="78.3181" width="6" height="6" rx="3" fill="#E91E63"/>
<path d="M117.121 65.441L118.815 61.437C118.899 61.241 118.815 61.115 118.605 61.115H117.149C116.981 61.115 116.883 61.185 116.827 61.325L114.839 66.057C114.741 66.309 114.699 66.491 114.699 66.757V70.355C114.699 71.629 115.385 72.315 116.659 72.315H118.339C119.613 72.315 120.299 71.629 120.299 70.355V67.401C120.299 66.127 119.613 65.441 118.339 65.441H117.121ZM117.107 70.467C116.743 70.467 116.547 70.271 116.547 69.907V67.849C116.547 67.485 116.743 67.289 117.107 67.289H117.891C118.255 67.289 118.451 67.485 118.451 67.849V69.907C118.451 70.271 118.255 70.467 117.891 70.467H117.107Z" fill="#9CAEB7"/>
<path d="M124.625 61.983C123.379 61.983 122.399 62.991 122.399 64.223C122.399 65.427 123.379 66.407 124.625 66.407C125.829 66.407 126.809 65.427 126.809 64.223C126.809 62.991 125.829 61.983 124.625 61.983ZM130.085 62.039C129.917 62.039 129.861 62.109 129.763 62.263L123.309 71.993C123.183 72.189 123.323 72.315 123.533 72.315H124.849C125.017 72.315 125.073 72.245 125.171 72.091L131.611 62.361C131.737 62.165 131.597 62.039 131.387 62.039H130.085ZM124.625 63.439C125.017 63.439 125.381 63.789 125.381 64.223C125.381 64.629 125.017 64.979 124.625 64.979C124.191 64.979 123.841 64.629 123.841 64.223C123.841 63.789 124.191 63.439 124.625 63.439ZM130.141 68.101C128.895 68.101 127.915 69.109 127.915 70.341C127.915 71.545 128.895 72.525 130.141 72.525C131.345 72.525 132.325 71.545 132.325 70.341C132.325 69.109 131.345 68.101 130.141 68.101ZM130.141 69.557C130.533 69.557 130.897 69.907 130.897 70.341C130.897 70.747 130.533 71.097 130.141 71.097C129.707 71.097 129.357 70.747 129.357 70.341C129.357 69.907 129.707 69.557 130.141 69.557Z" fill="#9CAEB7"/>
<g filter="url(#filter2_d)">
<rect x="184" y="41.3181" width="72" height="51" rx="3" fill="#212121"/>
</g>
<rect x="192" y="49.3181" width="33" height="3" rx="1.5" fill="#BBC7CD"/>
<rect x="192" y="78.3181" width="6" height="6" rx="3" fill="#4CAF50"/>
<path d="M195.121 65.441L196.815 61.437C196.899 61.241 196.815 61.115 196.605 61.115H195.149C194.981 61.115 194.883 61.185 194.827 61.325L192.839 66.057C192.741 66.309 192.699 66.491 192.699 66.757V70.355C192.699 71.629 193.385 72.315 194.659 72.315H196.339C197.613 72.315 198.299 71.629 198.299 70.355V67.401C198.299 66.127 197.613 65.441 196.339 65.441H195.121ZM195.107 70.467C194.743 70.467 194.547 70.271 194.547 69.907V67.849C194.547 67.485 194.743 67.289 195.107 67.289H195.891C196.255 67.289 196.451 67.485 196.451 67.849V69.907C196.451 70.271 196.255 70.467 195.891 70.467H195.107Z" fill="#9CAEB7"/>
<path d="M205.201 66.953C205.467 66.813 205.579 66.701 205.579 66.435V63.131C205.579 61.815 204.865 61.115 203.563 61.115H201.995C200.679 61.115 199.979 61.815 199.979 63.131V64.615C199.979 64.755 200.049 64.839 200.203 64.839H201.659C201.799 64.839 201.883 64.755 201.883 64.615V63.523C201.883 63.159 202.065 62.963 202.443 62.963H203.115C203.465 62.963 203.675 63.159 203.675 63.523V65.595L200.343 67.387C200.077 67.527 199.979 67.639 199.979 67.905V72.035C199.979 72.217 200.077 72.315 200.259 72.315H205.299C205.481 72.315 205.579 72.217 205.579 72.035V69.893C205.579 69.711 205.481 69.613 205.299 69.613H203.955C203.773 69.613 203.675 69.711 203.675 69.893V70.467H202.163C201.981 70.467 201.883 70.369 201.883 70.187V68.969C201.883 68.815 201.939 68.717 202.079 68.633L205.201 66.953Z" fill="#9CAEB7"/>
<path d="M209.905 61.983C208.659 61.983 207.679 62.991 207.679 64.223C207.679 65.427 208.659 66.407 209.905 66.407C211.109 66.407 212.089 65.427 212.089 64.223C212.089 62.991 211.109 61.983 209.905 61.983ZM215.365 62.039C215.197 62.039 215.141 62.109 215.043 62.263L208.589 71.993C208.463 72.189 208.603 72.315 208.813 72.315H210.129C210.297 72.315 210.353 72.245 210.451 72.091L216.891 62.361C217.017 62.165 216.877 62.039 216.667 62.039H215.365ZM209.905 63.439C210.297 63.439 210.661 63.789 210.661 64.223C210.661 64.629 210.297 64.979 209.905 64.979C209.471 64.979 209.121 64.629 209.121 64.223C209.121 63.789 209.471 63.439 209.905 63.439ZM215.421 68.101C214.175 68.101 213.195 69.109 213.195 70.341C213.195 71.545 214.175 72.525 215.421 72.525C216.625 72.525 217.605 71.545 217.605 70.341C217.605 69.109 216.625 68.101 215.421 68.101ZM215.421 69.557C215.813 69.557 216.177 69.907 216.177 70.341C216.177 70.747 215.813 71.097 215.421 71.097C214.987 71.097 214.637 70.747 214.637 70.341C214.637 69.907 214.987 69.557 215.421 69.557Z" fill="#9CAEB7"/>
<defs>
<filter id="filter0_d" x="26" y="41.3181" width="76" height="55" filterUnits="userSpaceOnUse" color-interpolation-filters="sRGB">
<feFlood flood-opacity="0" result="BackgroundImageFix"/>
<feColorMatrix in="SourceAlpha" type="matrix" values="0 0 0 0 0 0 0 0 0 0 0 0 0 0 0 0 0 0 127 0"/>
<feOffset dy="2"/>
<feGaussianBlur stdDeviation="1"/>
<feColorMatrix type="matrix" values="0 0 0 0 0 0 0 0 0 0 0 0 0 0 0 0 0 0 0.03 0"/>
<feBlend mode="normal" in2="BackgroundImageFix" result="effect1_dropShadow"/>
<feBlend mode="normal" in="SourceGraphic" in2="effect1_dropShadow" result="shape"/>
</filter>
<filter id="filter1_d" x="104" y="41.3181" width="76" height="55" filterUnits="userSpaceOnUse" color-interpolation-filters="sRGB">
<feFlood flood-opacity="0" result="BackgroundImageFix"/>
<feColorMatrix in="SourceAlpha" type="matrix" values="0 0 0 0 0 0 0 0 0 0 0 0 0 0 0 0 0 0 127 0"/>
<feOffset dy="2"/>
<feGaussianBlur stdDeviation="1"/>
<feColorMatrix type="matrix" values="0 0 0 0 0 0 0 0 0 0 0 0 0 0 0 0 0 0 0.03 0"/>
<feBlend mode="normal" in2="BackgroundImageFix" result="effect1_dropShadow"/>
<feBlend mode="normal" in="SourceGraphic" in2="effect1_dropShadow" result="shape"/>
</filter>
<filter id="filter2_d" x="182" y="41.3181" width="76" height="55" filterUnits="userSpaceOnUse" color-interpolation-filters="sRGB">
<feFlood flood-opacity="0" result="BackgroundImageFix"/>
<feColorMatrix in="SourceAlpha" type="matrix" values="0 0 0 0 0 0 0 0 0 0 0 0 0 0 0 0 0 0 127 0"/>
<feOffset dy="2"/>
<feGaussianBlur stdDeviation="1"/>
<feColorMatrix type="matrix" values="0 0 0 0 0 0 0 0 0 0 0 0 0 0 0 0 0 0 0.03 0"/>
<feBlend mode="normal" in2="BackgroundImageFix" result="effect1_dropShadow"/>
<feBlend mode="normal" in="SourceGraphic" in2="effect1_dropShadow" result="shape"/>
</filter>
</defs>
</svg>
