<svg width="299" height="137" viewBox="0 0 299 137" fill="none" xmlns="http://www.w3.org/2000/svg">
<rect x="8" y="4.56885" width="283" height="132" rx="4" fill="white" fill-opacity="0.15"/>
<rect x="9" y="5.56885" width="281" height="130" rx="3" stroke="#BBC7CD" stroke-opacity="0.5" stroke-width="2"/>
<path d="M244.938 46.686H201.062C198.271 46.686 195.896 47.6652 193.938 49.6235C191.979 51.5819 191 53.936 191 56.686V93.311C191 96.061 191.979 98.4152 193.938 100.374C195.896 102.332 198.271 103.311 201.062 103.311H244.938C247.729 103.311 250.104 102.332 252.062 100.374C254.021 98.4152 255 96.061 255 93.311V56.686C255 53.936 254.021 51.5819 252.062 49.6235C250.104 47.6652 247.729 46.686 244.938 46.686ZM201.062 52.1235H244.938C246.188 52.1235 247.25 52.5819 248.125 53.4985C249.042 54.3735 249.5 55.436 249.5 56.686V86.686L239.562 76.7485C239.312 76.4985 239.021 76.311 238.688 76.186C238.396 76.0194 238.062 75.936 237.688 75.936C237.646 75.936 237.604 75.936 237.562 75.936C237.562 75.936 237.542 75.936 237.5 75.936C237.125 75.936 236.75 76.0402 236.375 76.2485C236.042 76.4152 235.75 76.6235 235.5 76.8735L230.812 82.561L213.938 65.7485C213.729 65.4985 213.458 65.311 213.125 65.186C212.792 65.0194 212.458 64.936 212.125 64.936C212.083 64.936 212.062 64.936 212.062 64.936C212.062 64.936 212.042 64.936 212 64.936C211.625 64.9777 211.25 65.0819 210.875 65.2485C210.542 65.4152 210.25 65.6444 210 65.936L196.5 82.061V56.686C196.5 55.436 196.938 54.3735 197.812 53.4985C198.729 52.5819 199.812 52.1235 201.062 52.1235ZM196.5 93.311V90.6235L212.188 71.7485L227.25 86.811L218.062 97.811H201.062C199.812 97.811 198.729 97.3735 197.812 96.4985C196.938 95.6235 196.5 94.561 196.5 93.311ZM244.938 97.8735H225.188L237.812 82.686L249.312 94.2485C249.104 95.2902 248.583 96.1652 247.75 96.8735C246.958 97.5402 246.021 97.8735 244.938 97.8735Z" fill="#BBC7CD"/>
<rect x="44" y="100.999" width="38" height="10" rx="5" fill="#BBC7CD"/>
<rect x="52" y="104.999" width="22" height="2" rx="1" fill="#263238"/>
<rect x="44" y="82.9985" width="58" height="4" rx="2" fill="#BBC7CD"/>
<rect x="44" y="70.9985" width="68" height="4" rx="2" fill="#BBC7CD"/>
<rect x="44" y="46.9985" width="49" height="4" rx="2" fill="white"/>
<rect x="44" y="58.9985" width="86" height="4" rx="2" fill="white"/>
<g filter="url(#filter0_ddd)">
<path d="M10 8.56885C10 7.46428 10.8954 6.56885 12 6.56885H287C288.105 6.56885 289 7.46428 289 8.56885V30.5688H10V8.56885Z" fill="#212121"/>
</g>
<path d="M31.5311 13.8361C31.6922 13.4008 32.3078 13.4008 32.4689 13.8361L33.5408 16.7327C33.5914 16.8695 33.6993 16.9774 33.8362 17.0281L36.7327 18.0999C37.1681 18.261 37.1681 18.8767 36.7327 19.0378L33.8362 20.1096C33.6993 20.1602 33.5914 20.2682 33.5408 20.405L32.4689 23.3016C32.3078 23.7369 31.6922 23.7369 31.5311 23.3016L30.4592 20.405C30.4086 20.2682 30.3007 20.1602 30.1638 20.1096L27.2673 19.0378C26.8319 18.8767 26.8319 18.261 27.2673 18.0999L30.1638 17.0281C30.3007 16.9774 30.4086 16.8695 30.4592 16.7327L31.5311 13.8361Z" fill="#F57C00"/>
<rect x="229" y="17.0688" width="16" height="3" rx="1.5" fill="#BBC7CD"/>
<rect x="257" y="17.0688" width="16" height="3" rx="1.5" fill="#2196F3"/>
<defs>
<filter id="filter0_ddd" x="0" y="0.568848" width="299" height="44" filterUnits="userSpaceOnUse" color-interpolation-filters="sRGB">
<feFlood flood-opacity="0" result="BackgroundImageFix"/>
<feColorMatrix in="SourceAlpha" type="matrix" values="0 0 0 0 0 0 0 0 0 0 0 0 0 0 0 0 0 0 127 0"/>
<feOffset dy="2"/>
<feGaussianBlur stdDeviation="3"/>
<feColorMatrix type="matrix" values="0 0 0 0 0 0 0 0 0 0 0 0 0 0 0 0 0 0 0.12 0"/>
<feBlend mode="normal" in2="BackgroundImageFix" result="effect1_dropShadow"/>
<feColorMatrix in="SourceAlpha" type="matrix" values="0 0 0 0 0 0 0 0 0 0 0 0 0 0 0 0 0 0 127 0"/>
<feOffset/>
<feGaussianBlur stdDeviation="1"/>
<feColorMatrix type="matrix" values="0 0 0 0 0 0 0 0 0 0 0 0 0 0 0 0 0 0 0.06 0"/>
<feBlend mode="normal" in2="effect1_dropShadow" result="effect2_dropShadow"/>
<feColorMatrix in="SourceAlpha" type="matrix" values="0 0 0 0 0 0 0 0 0 0 0 0 0 0 0 0 0 0 127 0"/>
<feOffset dy="4"/>
<feGaussianBlur stdDeviation="5"/>
<feColorMatrix type="matrix" values="0 0 0 0 0 0 0 0 0 0 0 0 0 0 0 0 0 0 0.03 0"/>
<feBlend mode="normal" in2="effect2_dropShadow" result="effect3_dropShadow"/>
<feBlend mode="normal" in="SourceGraphic" in2="effect3_dropShadow" result="shape"/>
</filter>
</defs>
</svg>
