<svg width="283" height="132" viewBox="0 0 283 132" fill="none" xmlns="http://www.w3.org/2000/svg">
<rect x="1" y="1" width="281" height="130" rx="3" fill="white" stroke="#BBC7CD" stroke-width="2"/>
<rect x="40" y="80" width="48" height="4" rx="2" fill="#BBC7CD"/>
<rect x="46" y="92" width="36" height="4" rx="2" fill="#BBC7CD"/>
<rect x="43" y="104" width="42" height="4" rx="2" fill="#BBC7CD"/>
<rect x="36" y="68" width="56" height="4" rx="2" fill="#263238"/>
<path d="M74.9688 25.8438H53.0312C51.6354 25.8438 50.4479 26.3333 49.4688 27.3125C48.4896 28.2917 48 29.4688 48 30.8438V49.1562C48 50.5312 48.4896 51.7083 49.4688 52.6875C50.4479 53.6667 51.6354 54.1562 53.0312 54.1562H74.9688C76.3646 54.1562 77.5521 53.6667 78.5312 52.6875C79.5104 51.7083 80 50.5312 80 49.1562V30.8438C80 29.4688 79.5104 28.2917 78.5312 27.3125C77.5521 26.3333 76.3646 25.8438 74.9688 25.8438ZM53.0312 28.5625H74.9688C75.5938 28.5625 76.125 28.7917 76.5625 29.25C77.0208 29.6875 77.25 30.2188 77.25 30.8438V45.8438L72.2812 40.875C72.1562 40.75 72.0104 40.6562 71.8438 40.5938C71.6979 40.5104 71.5312 40.4688 71.3438 40.4688C71.3229 40.4688 71.3021 40.4688 71.2812 40.4688C71.2812 40.4688 71.2708 40.4688 71.25 40.4688C71.0625 40.4688 70.875 40.5208 70.6875 40.625C70.5208 40.7083 70.375 40.8125 70.25 40.9375L67.9062 43.7812L59.4688 35.375C59.3646 35.25 59.2292 35.1562 59.0625 35.0938C58.8958 35.0104 58.7292 34.9688 58.5625 34.9688C58.5417 34.9688 58.5312 34.9688 58.5312 34.9688C58.5312 34.9688 58.5208 34.9688 58.5 34.9688C58.3125 34.9896 58.125 35.0417 57.9375 35.125C57.7708 35.2083 57.625 35.3229 57.5 35.4688L50.75 43.5312V30.8438C50.75 30.2188 50.9688 29.6875 51.4062 29.25C51.8646 28.7917 52.4062 28.5625 53.0312 28.5625ZM50.75 49.1562V47.8125L58.5938 38.375L66.125 45.9062L61.5312 51.4062H53.0312C52.4062 51.4062 51.8646 51.1875 51.4062 50.75C50.9688 50.3125 50.75 49.7812 50.75 49.1562ZM74.9688 51.4375H65.0938L71.4062 43.8438L77.1562 49.625C77.0521 50.1458 76.7917 50.5833 76.375 50.9375C75.9792 51.2708 75.5104 51.4375 74.9688 51.4375Z" fill="#BBC7CD"/>
<rect x="121" y="80" width="42" height="4" rx="2" fill="#BBC7CD"/>
<rect x="116" y="92" width="52" height="4" rx="2" fill="#BBC7CD"/>
<rect x="124" y="104" width="36" height="4" rx="2" fill="#BBC7CD"/>
<rect x="118" y="68" width="48" height="4" rx="2" fill="#263238"/>
<path d="M152.969 25.8438H131.031C129.635 25.8438 128.448 26.3333 127.469 27.3125C126.49 28.2917 126 29.4688 126 30.8438V49.1562C126 50.5312 126.49 51.7083 127.469 52.6875C128.448 53.6667 129.635 54.1562 131.031 54.1562H152.969C154.365 54.1562 155.552 53.6667 156.531 52.6875C157.51 51.7083 158 50.5312 158 49.1562V30.8438C158 29.4688 157.51 28.2917 156.531 27.3125C155.552 26.3333 154.365 25.8438 152.969 25.8438ZM131.031 28.5625H152.969C153.594 28.5625 154.125 28.7917 154.562 29.25C155.021 29.6875 155.25 30.2188 155.25 30.8438V45.8438L150.281 40.875C150.156 40.75 150.01 40.6562 149.844 40.5938C149.698 40.5104 149.531 40.4688 149.344 40.4688C149.323 40.4688 149.302 40.4688 149.281 40.4688C149.281 40.4688 149.271 40.4688 149.25 40.4688C149.062 40.4688 148.875 40.5208 148.688 40.625C148.521 40.7083 148.375 40.8125 148.25 40.9375L145.906 43.7812L137.469 35.375C137.365 35.25 137.229 35.1562 137.062 35.0938C136.896 35.0104 136.729 34.9688 136.562 34.9688C136.542 34.9688 136.531 34.9688 136.531 34.9688C136.531 34.9688 136.521 34.9688 136.5 34.9688C136.312 34.9896 136.125 35.0417 135.938 35.125C135.771 35.2083 135.625 35.3229 135.5 35.4688L128.75 43.5312V30.8438C128.75 30.2188 128.969 29.6875 129.406 29.25C129.865 28.7917 130.406 28.5625 131.031 28.5625ZM128.75 49.1562V47.8125L136.594 38.375L144.125 45.9062L139.531 51.4062H131.031C130.406 51.4062 129.865 51.1875 129.406 50.75C128.969 50.3125 128.75 49.7812 128.75 49.1562ZM152.969 51.4375H143.094L149.406 43.8438L155.156 49.625C155.052 50.1458 154.792 50.5833 154.375 50.9375C153.979 51.2708 153.51 51.4375 152.969 51.4375Z" fill="#BBC7CD"/>
<rect x="199" y="80" width="40" height="4" rx="2" fill="#BBC7CD"/>
<rect x="201" y="92" width="36" height="4" rx="2" fill="#BBC7CD"/>
<rect x="196" y="104" width="46" height="4" rx="2" fill="#BBC7CD"/>
<rect x="191" y="68" width="56" height="4" rx="2" fill="#263238"/>
<path d="M229.969 25.8438H208.031C206.635 25.8438 205.448 26.3333 204.469 27.3125C203.49 28.2917 203 29.4688 203 30.8438V49.1562C203 50.5312 203.49 51.7083 204.469 52.6875C205.448 53.6667 206.635 54.1562 208.031 54.1562H229.969C231.365 54.1562 232.552 53.6667 233.531 52.6875C234.51 51.7083 235 50.5312 235 49.1562V30.8438C235 29.4688 234.51 28.2917 233.531 27.3125C232.552 26.3333 231.365 25.8438 229.969 25.8438ZM208.031 28.5625H229.969C230.594 28.5625 231.125 28.7917 231.562 29.25C232.021 29.6875 232.25 30.2188 232.25 30.8438V45.8438L227.281 40.875C227.156 40.75 227.01 40.6562 226.844 40.5938C226.698 40.5104 226.531 40.4688 226.344 40.4688C226.323 40.4688 226.302 40.4688 226.281 40.4688C226.281 40.4688 226.271 40.4688 226.25 40.4688C226.062 40.4688 225.875 40.5208 225.688 40.625C225.521 40.7083 225.375 40.8125 225.25 40.9375L222.906 43.7812L214.469 35.375C214.365 35.25 214.229 35.1562 214.062 35.0938C213.896 35.0104 213.729 34.9688 213.562 34.9688C213.542 34.9688 213.531 34.9688 213.531 34.9688C213.531 34.9688 213.521 34.9688 213.5 34.9688C213.312 34.9896 213.125 35.0417 212.938 35.125C212.771 35.2083 212.625 35.3229 212.5 35.4688L205.75 43.5312V30.8438C205.75 30.2188 205.969 29.6875 206.406 29.25C206.865 28.7917 207.406 28.5625 208.031 28.5625ZM205.75 49.1562V47.8125L213.594 38.375L221.125 45.9062L216.531 51.4062H208.031C207.406 51.4062 206.865 51.1875 206.406 50.75C205.969 50.3125 205.75 49.7812 205.75 49.1562ZM229.969 51.4375H220.094L226.406 43.8438L232.156 49.625C232.052 50.1458 231.792 50.5833 231.375 50.9375C230.979 51.2708 230.51 51.4375 229.969 51.4375Z" fill="#BBC7CD"/>
</svg>
