<svg width="283" height="134" viewBox="0 0 283 134" fill="none" xmlns="http://www.w3.org/2000/svg">
<rect width="283" height="132" rx="4" fill="white" fill-opacity="0.15"/>
<rect x="1" y="1" width="281" height="130" rx="3" stroke="#BBC7CD" stroke-opacity="0.5" stroke-width="2"/>
<g filter="url(#filter0_d)">
<rect x="64" y="2" width="155" height="128" fill="#212121"/>
</g>
<rect x="80" y="44" width="115" height="3" rx="1.5" fill="#BBC7CD"/>
<rect x="80" y="54" width="123" height="3" rx="1.5" fill="#BBC7CD"/>
<rect x="80" y="63" width="112" height="3" rx="1.5" fill="#BBC7CD"/>
<rect x="80" y="72" width="118" height="3" rx="1.5" fill="#BBC7CD"/>
<rect x="80" y="81" width="107" height="3" rx="1.5" fill="#BBC7CD"/>
<rect x="80" y="91" width="118" height="3" rx="1.5" fill="#BBC7CD"/>
<rect x="80" y="100" width="121" height="3" rx="1.5" fill="#BBC7CD"/>
<rect x="80" y="109" width="114" height="3" rx="1.5" fill="#BBC7CD"/>
<rect x="80" y="26" width="72" height="6" rx="3" fill="white"/>
<defs>
<filter id="filter0_d" x="62" y="2" width="159" height="132" filterUnits="userSpaceOnUse" color-interpolation-filters="sRGB">
<feFlood flood-opacity="0" result="BackgroundImageFix"/>
<feColorMatrix in="SourceAlpha" type="matrix" values="0 0 0 0 0 0 0 0 0 0 0 0 0 0 0 0 0 0 127 0"/>
<feOffset dy="2"/>
<feGaussianBlur stdDeviation="1"/>
<feColorMatrix type="matrix" values="0 0 0 0 0 0 0 0 0 0 0 0 0 0 0 0 0 0 0.03 0"/>
<feBlend mode="normal" in2="BackgroundImageFix" result="effect1_dropShadow"/>
<feBlend mode="normal" in="SourceGraphic" in2="effect1_dropShadow" result="shape"/>
</filter>
</defs>
</svg>
