<svg width="283" height="132" viewBox="0 0 283 132" fill="none" xmlns="http://www.w3.org/2000/svg">
<rect x="1" y="1" width="281" height="130" rx="3" stroke="#BBC7CD" stroke-opacity="0.5" stroke-width="2"/>
<path d="M255.578 38.2656C255.443 38.2656 255.312 38.2396 255.188 38.1875C255.073 38.1354 254.974 38.0677 254.891 37.9844L250.953 34.0625L247.031 37.9844C246.969 38.0156 246.901 38.0417 246.828 38.0625C246.755 38.0729 246.682 38.0781 246.609 38.0781C246.339 38.0781 246.104 37.9844 245.906 37.7969C245.719 37.599 245.625 37.3646 245.625 37.0938C245.625 37 245.635 36.9115 245.656 36.8281C245.688 36.7448 245.724 36.6667 245.766 36.5938L250.344 32.0156C250.438 31.9323 250.542 31.8646 250.656 31.8125C250.781 31.7604 250.911 31.7344 251.047 31.7344C251.182 31.7344 251.307 31.7604 251.422 31.8125C251.536 31.8646 251.641 31.9323 251.734 32.0156L256.312 36.5938C256.396 36.6875 256.464 36.7969 256.516 36.9219C256.568 37.0365 256.594 37.1562 256.594 37.2812C256.594 37.4167 256.568 37.5469 256.516 37.6719C256.464 37.7865 256.396 37.8906 256.312 37.9844C256.219 38.0677 256.115 38.1354 256 38.1875C255.885 38.2396 255.76 38.2656 255.625 38.2656C255.615 38.2656 255.604 38.2656 255.594 38.2656C255.594 38.2656 255.589 38.2656 255.578 38.2656Z" fill="#9CAEB7"/>
<path d="M251 82.3125C250.865 82.3125 250.734 82.2865 250.609 82.2344C250.495 82.1823 250.391 82.1146 250.297 82.0312L245.688 77.375C245.646 77.3021 245.609 77.2188 245.578 77.125C245.547 77.0312 245.531 76.9375 245.531 76.8438C245.531 76.5625 245.63 76.3281 245.828 76.1406C246.026 75.9427 246.26 75.8438 246.531 75.8438C246.625 75.8438 246.714 75.8594 246.797 75.8906C246.88 75.9115 246.958 75.9427 247.031 75.9844L247.016 75.9688L251 79.9531L254.984 75.9688C255.047 75.9375 255.12 75.9115 255.203 75.8906C255.286 75.8594 255.375 75.8438 255.469 75.8438C255.75 75.8438 255.984 75.9427 256.172 76.1406C256.37 76.3281 256.469 76.5625 256.469 76.8438C256.469 76.9375 256.453 77.0312 256.422 77.125C256.391 77.2188 256.349 77.3073 256.297 77.3906L256.312 77.375L251.656 82.0312C251.573 82.1146 251.474 82.1823 251.359 82.2344C251.255 82.2865 251.135 82.3125 251 82.3125Z" fill="#9CAEB7"/>
<rect x="32" y="45" width="151" height="4" rx="2" fill="#BBC7CD"/>
<rect x="32" y="57" width="119" height="4" rx="2" fill="#BBC7CD"/>
<rect x="32" y="33" width="83" height="4" rx="2" fill="white"/>
<rect x="32" y="77" width="69" height="4" rx="2" fill="white"/>
<path d="M251 104.312C250.865 104.312 250.734 104.286 250.609 104.234C250.495 104.182 250.391 104.115 250.297 104.031L245.688 99.375C245.646 99.3021 245.609 99.2188 245.578 99.125C245.547 99.0312 245.531 98.9375 245.531 98.8438C245.531 98.5625 245.63 98.3281 245.828 98.1406C246.026 97.9427 246.26 97.8438 246.531 97.8438C246.625 97.8438 246.714 97.8594 246.797 97.8906C246.88 97.9115 246.958 97.9427 247.031 97.9844L247.016 97.9688L251 101.953L254.984 97.9688C255.047 97.9375 255.12 97.9115 255.203 97.8906C255.286 97.8594 255.375 97.8438 255.469 97.8438C255.75 97.8438 255.984 97.9427 256.172 98.1406C256.37 98.3281 256.469 98.5625 256.469 98.8438C256.469 98.9375 256.453 99.0312 256.422 99.125C256.391 99.2188 256.349 99.3073 256.297 99.3906L256.312 99.375L251.656 104.031C251.573 104.115 251.474 104.182 251.359 104.234C251.255 104.286 251.135 104.312 251 104.312Z" fill="#9CAEB7"/>
<rect x="32" y="99" width="114" height="4" rx="2" fill="white"/>
</svg>
