<svg width="283" height="132" viewBox="0 0 283 132" fill="none" xmlns="http://www.w3.org/2000/svg">
<rect width="283" height="132" rx="4" fill="white" fill-opacity="0.15"/>
<rect x="1" y="1" width="281" height="130" rx="3" stroke="#BBC7CD" stroke-opacity="0.5" stroke-width="2"/>
<g filter="url(#filter0_d)">
<rect x="2" y="2" width="279" height="36" fill="#212121"/>
</g>
<rect x="165" y="18" width="16" height="3" rx="1.5" fill="#BBC7CD"/>
<rect x="193" y="18" width="16" height="3" rx="1.5" fill="#BBC7CD"/>
<rect x="221" y="18" width="16" height="3" rx="1.5" fill="#BBC7CD"/>
<path d="M27.5372 11.1319C27.7066 10.7175 28.2934 10.7175 28.4628 11.1319L31.2821 18.0271C31.2992 18.069 31.322 18.1083 31.3497 18.144L35.9114 24.0333C36.1855 24.3872 35.8922 24.8953 35.4486 24.8349L28.0675 23.8289C28.0227 23.8228 27.9773 23.8228 27.9325 23.8289L20.5514 24.8349C20.1078 24.8953 19.8145 24.3872 20.0886 24.0333L24.6503 18.144C24.678 18.1083 24.7008 18.069 24.7179 18.0271L27.5372 11.1319Z" fill="#D9E0E3"/>
<defs>
<filter id="filter0_d" x="0" y="2" width="283" height="40" filterUnits="userSpaceOnUse" color-interpolation-filters="sRGB">
<feFlood flood-opacity="0" result="BackgroundImageFix"/>
<feColorMatrix in="SourceAlpha" type="matrix" values="0 0 0 0 0 0 0 0 0 0 0 0 0 0 0 0 0 0 127 0"/>
<feOffset dy="2"/>
<feGaussianBlur stdDeviation="1"/>
<feColorMatrix type="matrix" values="0 0 0 0 0 0 0 0 0 0 0 0 0 0 0 0 0 0 0.03 0"/>
<feBlend mode="normal" in2="BackgroundImageFix" result="effect1_dropShadow"/>
<feBlend mode="normal" in="SourceGraphic" in2="effect1_dropShadow" result="shape"/>
</filter>
</defs>
</svg>
