<svg width="283" height="132" viewBox="0 0 283 132" fill="none" xmlns="http://www.w3.org/2000/svg">
<rect width="283" height="132" rx="4" fill="white" fill-opacity="0.15"/>
<rect x="1" y="1" width="281" height="130" rx="3" stroke="#BBC7CD" stroke-opacity="0.5" stroke-width="2"/>
<g filter="url(#filter0_d)">
<rect x="53" y="32" width="50" height="68" fill="#212121"/>
</g>
<rect x="60" y="84" width="36" height="10" rx="5" fill="#BBC7CD"/>
<rect x="68" y="88" width="20" height="2" rx="1" fill="#263238"/>
<rect x="67" y="55" width="22" height="3" rx="1.5" fill="#BBC7CD"/>
<rect x="61" y="55" width="3" height="3" rx="1.5" fill="#00BCD4"/>
<rect x="61" y="40" width="34" height="4" rx="2" fill="white"/>
<g filter="url(#filter1_d)">
<rect x="111" y="22" width="62" height="84.32" fill="#212121"/>
</g>
<rect x="119.68" y="86.4766" width="44.64" height="12.4" rx="6.2" fill="#BBC7CD"/>
<rect x="129.602" y="91.4375" width="24.8" height="2.48" rx="1.24" fill="#263238"/>
<rect x="128.359" y="50.5234" width="27.28" height="3.72" rx="1.86" fill="#BBC7CD"/>
<rect x="128.359" y="59.2031" width="34.72" height="3.72" rx="1.86" fill="#BBC7CD"/>
<rect x="120.922" y="50.5234" width="3.72" height="3.72" rx="1.86" fill="#00BCD4"/>
<rect x="120.922" y="59.2031" width="3.72" height="3.72" rx="1.86" fill="#00BCD4"/>
<rect x="120.922" y="31.9219" width="42.16" height="4.96" rx="2.48" fill="white"/>
<g filter="url(#filter2_d)">
<rect x="181" y="32" width="50" height="68" fill="#212121"/>
</g>
<rect x="188" y="84" width="36" height="10" rx="5" fill="#BBC7CD"/>
<rect x="196" y="88" width="20" height="2" rx="1" fill="#263238"/>
<rect x="195" y="55" width="22" height="3" rx="1.5" fill="#BBC7CD"/>
<rect x="195" y="62" width="28" height="3" rx="1.5" fill="#BBC7CD"/>
<rect x="195" y="69" width="19" height="3" rx="1.5" fill="#BBC7CD"/>
<rect x="189" y="55" width="3" height="3" rx="1.5" fill="#00BCD4"/>
<rect x="189" y="62" width="3" height="3" rx="1.5" fill="#00BCD4"/>
<rect x="189" y="69" width="3" height="3" rx="1.5" fill="#00BCD4"/>
<rect x="189" y="40" width="34" height="4" rx="2" fill="white"/>
<defs>
<filter id="filter0_d" x="51" y="32" width="54" height="72" filterUnits="userSpaceOnUse" color-interpolation-filters="sRGB">
<feFlood flood-opacity="0" result="BackgroundImageFix"/>
<feColorMatrix in="SourceAlpha" type="matrix" values="0 0 0 0 0 0 0 0 0 0 0 0 0 0 0 0 0 0 127 0"/>
<feOffset dy="2"/>
<feGaussianBlur stdDeviation="1"/>
<feColorMatrix type="matrix" values="0 0 0 0 0 0 0 0 0 0 0 0 0 0 0 0 0 0 0.03 0"/>
<feBlend mode="normal" in2="BackgroundImageFix" result="effect1_dropShadow"/>
<feBlend mode="normal" in="SourceGraphic" in2="effect1_dropShadow" result="shape"/>
</filter>
<filter id="filter1_d" x="109" y="22" width="66" height="88.32" filterUnits="userSpaceOnUse" color-interpolation-filters="sRGB">
<feFlood flood-opacity="0" result="BackgroundImageFix"/>
<feColorMatrix in="SourceAlpha" type="matrix" values="0 0 0 0 0 0 0 0 0 0 0 0 0 0 0 0 0 0 127 0"/>
<feOffset dy="2"/>
<feGaussianBlur stdDeviation="1"/>
<feColorMatrix type="matrix" values="0 0 0 0 0 0 0 0 0 0 0 0 0 0 0 0 0 0 0.03 0"/>
<feBlend mode="normal" in2="BackgroundImageFix" result="effect1_dropShadow"/>
<feBlend mode="normal" in="SourceGraphic" in2="effect1_dropShadow" result="shape"/>
</filter>
<filter id="filter2_d" x="179" y="32" width="54" height="72" filterUnits="userSpaceOnUse" color-interpolation-filters="sRGB">
<feFlood flood-opacity="0" result="BackgroundImageFix"/>
<feColorMatrix in="SourceAlpha" type="matrix" values="0 0 0 0 0 0 0 0 0 0 0 0 0 0 0 0 0 0 127 0"/>
<feOffset dy="2"/>
<feGaussianBlur stdDeviation="1"/>
<feColorMatrix type="matrix" values="0 0 0 0 0 0 0 0 0 0 0 0 0 0 0 0 0 0 0.03 0"/>
<feBlend mode="normal" in2="BackgroundImageFix" result="effect1_dropShadow"/>
<feBlend mode="normal" in="SourceGraphic" in2="effect1_dropShadow" result="shape"/>
</filter>
</defs>
</svg>
