<svg width="283" height="133" viewBox="0 0 283 133" fill="none" xmlns="http://www.w3.org/2000/svg">
<rect x="1" y="1.31812" width="281" height="130" rx="3" fill="#ECEFF1" stroke="#BBC7CD" stroke-width="2"/>
<g filter="url(#filter0_ddd)">
<rect x="48" y="16.3181" width="187" height="101" rx="3" fill="white"/>
</g>
<rect x="64" y="28.3181" width="56" height="3" rx="1.5" fill="#263238"/>
<rect opacity="0.5" x="64" y="47.3181" width="24" height="3" rx="1.5" fill="#BBC7CD"/>
<rect x="150" y="47.3181" width="69" height="3" rx="1.5" fill="#BBC7CD"/>
<rect opacity="0.5" x="64" y="58.3181" width="28" height="3" rx="1.5" fill="#BBC7CD"/>
<rect x="141" y="58.3181" width="78" height="3" rx="1.5" fill="#BBC7CD"/>
<rect opacity="0.5" x="64" y="69.3181" width="18" height="3" rx="1.5" fill="#BBC7CD"/>
<rect x="157" y="69.3181" width="62" height="3" rx="1.5" fill="#BBC7CD"/>
<rect opacity="0.5" x="64" y="80.3181" width="21" height="3" rx="1.5" fill="#BBC7CD"/>
<rect x="147" y="80.3181" width="72" height="3" rx="1.5" fill="#BBC7CD"/>
<rect opacity="0.5" x="64" y="91.3181" width="24" height="3" rx="1.5" fill="#BBC7CD"/>
<rect x="167" y="91.3181" width="52" height="3" rx="1.5" fill="#BBC7CD"/>
<rect opacity="0.5" x="64" y="102.318" width="31" height="3" rx="1.5" fill="#BBC7CD"/>
<rect x="157" y="102.318" width="62" height="3" rx="1.5" fill="#BBC7CD"/>
<defs>
<filter id="filter0_ddd" x="38" y="10.3181" width="207" height="121" filterUnits="userSpaceOnUse" color-interpolation-filters="sRGB">
<feFlood flood-opacity="0" result="BackgroundImageFix"/>
<feColorMatrix in="SourceAlpha" type="matrix" values="0 0 0 0 0 0 0 0 0 0 0 0 0 0 0 0 0 0 127 0"/>
<feOffset dy="2"/>
<feGaussianBlur stdDeviation="3"/>
<feColorMatrix type="matrix" values="0 0 0 0 0 0 0 0 0 0 0 0 0 0 0 0 0 0 0.12 0"/>
<feBlend mode="normal" in2="BackgroundImageFix" result="effect1_dropShadow"/>
<feColorMatrix in="SourceAlpha" type="matrix" values="0 0 0 0 0 0 0 0 0 0 0 0 0 0 0 0 0 0 127 0"/>
<feOffset/>
<feGaussianBlur stdDeviation="1"/>
<feColorMatrix type="matrix" values="0 0 0 0 0 0 0 0 0 0 0 0 0 0 0 0 0 0 0.06 0"/>
<feBlend mode="normal" in2="effect1_dropShadow" result="effect2_dropShadow"/>
<feColorMatrix in="SourceAlpha" type="matrix" values="0 0 0 0 0 0 0 0 0 0 0 0 0 0 0 0 0 0 127 0"/>
<feOffset dy="4"/>
<feGaussianBlur stdDeviation="5"/>
<feColorMatrix type="matrix" values="0 0 0 0 0 0 0 0 0 0 0 0 0 0 0 0 0 0 0.03 0"/>
<feBlend mode="normal" in2="effect2_dropShadow" result="effect3_dropShadow"/>
<feBlend mode="normal" in="SourceGraphic" in2="effect3_dropShadow" result="shape"/>
</filter>
</defs>
</svg>
