<svg width="283" height="133" viewBox="0 0 283 133" fill="none" xmlns="http://www.w3.org/2000/svg">
<rect x="1" y="1.31812" width="281" height="130" rx="3" fill="#ECEFF1" stroke="#BBC7CD" stroke-width="2"/>
<g filter="url(#filter0_ddd)">
<rect x="28" y="41.3181" width="72" height="51" rx="3" fill="white"/>
</g>
<rect x="36" y="49.3181" width="24" height="3" rx="1.5" fill="#BBC7CD"/>
<rect x="36" y="78.3181" width="6" height="6" rx="3" fill="#F57C00"/>
<path d="M41.922 66.9562C42.188 66.8162 42.3 66.7042 42.3 66.4382V63.1342C42.3 61.8182 41.586 61.1182 40.284 61.1182H38.716C37.4 61.1182 36.7 61.8182 36.7 63.1342V64.6182C36.7 64.7582 36.77 64.8422 36.924 64.8422H38.38C38.52 64.8422 38.604 64.7582 38.604 64.6182V63.5262C38.604 63.1622 38.786 62.9662 39.164 62.9662H39.836C40.186 62.9662 40.396 63.1622 40.396 63.5262V65.5982L37.064 67.3902C36.798 67.5302 36.7 67.6422 36.7 67.9082V72.0382C36.7 72.2202 36.798 72.3182 36.98 72.3182H42.02C42.202 72.3182 42.3 72.2202 42.3 72.0382V69.8962C42.3 69.7142 42.202 69.6162 42.02 69.6162H40.676C40.494 69.6162 40.396 69.7142 40.396 69.8962V70.4702H38.884C38.702 70.4702 38.604 70.3722 38.604 70.1902V68.9722C38.604 68.8182 38.66 68.7202 38.8 68.6362L41.922 66.9562Z" fill="#9CAEB7"/>
<path d="M46.402 65.4442L48.096 61.4402C48.18 61.2442 48.096 61.1182 47.886 61.1182H46.43C46.262 61.1182 46.164 61.1882 46.108 61.3282L44.12 66.0602C44.022 66.3122 43.98 66.4942 43.98 66.7602V70.3582C43.98 71.6322 44.666 72.3182 45.94 72.3182H47.62C48.894 72.3182 49.58 71.6322 49.58 70.3582V67.4042C49.58 66.1302 48.894 65.4442 47.62 65.4442H46.402ZM46.388 70.4702C46.024 70.4702 45.828 70.2742 45.828 69.9102V67.8522C45.828 67.4882 46.024 67.2922 46.388 67.2922H47.172C47.536 67.2922 47.732 67.4882 47.732 67.8522V69.9102C47.732 70.2742 47.536 70.4702 47.172 70.4702H46.388Z" fill="#9CAEB7"/>
<path d="M53.906 61.9862C52.66 61.9862 51.68 62.9942 51.68 64.2262C51.68 65.4302 52.66 66.4102 53.906 66.4102C55.11 66.4102 56.09 65.4302 56.09 64.2262C56.09 62.9942 55.11 61.9862 53.906 61.9862ZM59.366 62.0422C59.198 62.0422 59.142 62.1122 59.044 62.2662L52.59 71.9962C52.464 72.1922 52.604 72.3182 52.814 72.3182H54.13C54.298 72.3182 54.354 72.2482 54.452 72.0942L60.892 62.3642C61.018 62.1682 60.878 62.0422 60.668 62.0422H59.366ZM53.906 63.4422C54.298 63.4422 54.662 63.7922 54.662 64.2262C54.662 64.6322 54.298 64.9822 53.906 64.9822C53.472 64.9822 53.122 64.6322 53.122 64.2262C53.122 63.7922 53.472 63.4422 53.906 63.4422ZM59.422 68.1042C58.176 68.1042 57.196 69.1122 57.196 70.3442C57.196 71.5482 58.176 72.5282 59.422 72.5282C60.626 72.5282 61.606 71.5482 61.606 70.3442C61.606 69.1122 60.626 68.1042 59.422 68.1042ZM59.422 69.5602C59.814 69.5602 60.178 69.9102 60.178 70.3442C60.178 70.7502 59.814 71.1002 59.422 71.1002C58.988 71.1002 58.638 70.7502 58.638 70.3442C58.638 69.9102 58.988 69.5602 59.422 69.5602Z" fill="#9CAEB7"/>
<g filter="url(#filter1_ddd)">
<rect x="106" y="41.3181" width="72" height="51" rx="3" fill="white"/>
</g>
<rect x="114" y="49.3181" width="15" height="3" rx="1.5" fill="#BBC7CD"/>
<rect x="114" y="78.3181" width="6" height="6" rx="3" fill="#E91E63"/>
<path d="M117.122 65.4442L118.816 61.4402C118.9 61.2442 118.816 61.1182 118.606 61.1182H117.15C116.982 61.1182 116.884 61.1882 116.828 61.3282L114.84 66.0602C114.742 66.3122 114.7 66.4942 114.7 66.7602V70.3582C114.7 71.6322 115.386 72.3182 116.66 72.3182H118.34C119.614 72.3182 120.3 71.6322 120.3 70.3582V67.4042C120.3 66.1302 119.614 65.4442 118.34 65.4442H117.122ZM117.108 70.4702C116.744 70.4702 116.548 70.2742 116.548 69.9102V67.8522C116.548 67.4882 116.744 67.2922 117.108 67.2922H117.892C118.256 67.2922 118.452 67.4882 118.452 67.8522V69.9102C118.452 70.2742 118.256 70.4702 117.892 70.4702H117.108Z" fill="#9CAEB7"/>
<path d="M124.626 61.9862C123.38 61.9862 122.4 62.9942 122.4 64.2262C122.4 65.4302 123.38 66.4102 124.626 66.4102C125.83 66.4102 126.81 65.4302 126.81 64.2262C126.81 62.9942 125.83 61.9862 124.626 61.9862ZM130.086 62.0422C129.918 62.0422 129.862 62.1122 129.764 62.2662L123.31 71.9962C123.184 72.1922 123.324 72.3182 123.534 72.3182H124.85C125.018 72.3182 125.074 72.2482 125.172 72.0942L131.612 62.3642C131.738 62.1682 131.598 62.0422 131.388 62.0422H130.086ZM124.626 63.4422C125.018 63.4422 125.382 63.7922 125.382 64.2262C125.382 64.6322 125.018 64.9822 124.626 64.9822C124.192 64.9822 123.842 64.6322 123.842 64.2262C123.842 63.7922 124.192 63.4422 124.626 63.4422ZM130.142 68.1042C128.896 68.1042 127.916 69.1122 127.916 70.3442C127.916 71.5482 128.896 72.5282 130.142 72.5282C131.346 72.5282 132.326 71.5482 132.326 70.3442C132.326 69.1122 131.346 68.1042 130.142 68.1042ZM130.142 69.5602C130.534 69.5602 130.898 69.9102 130.898 70.3442C130.898 70.7502 130.534 71.1002 130.142 71.1002C129.708 71.1002 129.358 70.7502 129.358 70.3442C129.358 69.9102 129.708 69.5602 130.142 69.5602Z" fill="#9CAEB7"/>
<g filter="url(#filter2_ddd)">
<rect x="184" y="41.3181" width="72" height="51" rx="3" fill="white"/>
</g>
<rect x="192" y="49.3181" width="33" height="3" rx="1.5" fill="#BBC7CD"/>
<rect x="192" y="78.3181" width="6" height="6" rx="3" fill="#4CAF50"/>
<path d="M195.122 65.4442L196.816 61.4402C196.9 61.2442 196.816 61.1182 196.606 61.1182H195.15C194.982 61.1182 194.884 61.1882 194.828 61.3282L192.84 66.0602C192.742 66.3122 192.7 66.4942 192.7 66.7602V70.3582C192.7 71.6322 193.386 72.3182 194.66 72.3182H196.34C197.614 72.3182 198.3 71.6322 198.3 70.3582V67.4042C198.3 66.1302 197.614 65.4442 196.34 65.4442H195.122ZM195.108 70.4702C194.744 70.4702 194.548 70.2742 194.548 69.9102V67.8522C194.548 67.4882 194.744 67.2922 195.108 67.2922H195.892C196.256 67.2922 196.452 67.4882 196.452 67.8522V69.9102C196.452 70.2742 196.256 70.4702 195.892 70.4702H195.108Z" fill="#9CAEB7"/>
<path d="M205.202 66.9562C205.468 66.8162 205.58 66.7042 205.58 66.4382V63.1342C205.58 61.8182 204.866 61.1182 203.564 61.1182H201.996C200.68 61.1182 199.98 61.8182 199.98 63.1342V64.6182C199.98 64.7582 200.05 64.8422 200.204 64.8422H201.66C201.8 64.8422 201.884 64.7582 201.884 64.6182V63.5262C201.884 63.1622 202.066 62.9662 202.444 62.9662H203.116C203.466 62.9662 203.676 63.1622 203.676 63.5262V65.5982L200.344 67.3902C200.078 67.5302 199.98 67.6422 199.98 67.9082V72.0382C199.98 72.2202 200.078 72.3182 200.26 72.3182H205.3C205.482 72.3182 205.58 72.2202 205.58 72.0382V69.8962C205.58 69.7142 205.482 69.6162 205.3 69.6162H203.956C203.774 69.6162 203.676 69.7142 203.676 69.8962V70.4702H202.164C201.982 70.4702 201.884 70.3722 201.884 70.1902V68.9722C201.884 68.8182 201.94 68.7202 202.08 68.6362L205.202 66.9562Z" fill="#9CAEB7"/>
<path d="M209.906 61.9862C208.66 61.9862 207.68 62.9942 207.68 64.2262C207.68 65.4302 208.66 66.4102 209.906 66.4102C211.11 66.4102 212.09 65.4302 212.09 64.2262C212.09 62.9942 211.11 61.9862 209.906 61.9862ZM215.366 62.0422C215.198 62.0422 215.142 62.1122 215.044 62.2662L208.59 71.9962C208.464 72.1922 208.604 72.3182 208.814 72.3182H210.13C210.298 72.3182 210.354 72.2482 210.452 72.0942L216.892 62.3642C217.018 62.1682 216.878 62.0422 216.668 62.0422H215.366ZM209.906 63.4422C210.298 63.4422 210.662 63.7922 210.662 64.2262C210.662 64.6322 210.298 64.9822 209.906 64.9822C209.472 64.9822 209.122 64.6322 209.122 64.2262C209.122 63.7922 209.472 63.4422 209.906 63.4422ZM215.422 68.1042C214.176 68.1042 213.196 69.1122 213.196 70.3442C213.196 71.5482 214.176 72.5282 215.422 72.5282C216.626 72.5282 217.606 71.5482 217.606 70.3442C217.606 69.1122 216.626 68.1042 215.422 68.1042ZM215.422 69.5602C215.814 69.5602 216.178 69.9102 216.178 70.3442C216.178 70.7502 215.814 71.1002 215.422 71.1002C214.988 71.1002 214.638 70.7502 214.638 70.3442C214.638 69.9102 214.988 69.5602 215.422 69.5602Z" fill="#9CAEB7"/>
<defs>
<filter id="filter0_ddd" x="23" y="38.3181" width="82" height="62" filterUnits="userSpaceOnUse" color-interpolation-filters="sRGB">
<feFlood flood-opacity="0" result="BackgroundImageFix"/>
<feColorMatrix in="SourceAlpha" type="matrix" values="0 0 0 0 0 0 0 0 0 0 0 0 0 0 0 0 0 0 127 0"/>
<feOffset dy="1"/>
<feGaussianBlur stdDeviation="2"/>
<feColorMatrix type="matrix" values="0 0 0 0 0 0 0 0 0 0 0 0 0 0 0 0 0 0 0.08 0"/>
<feBlend mode="normal" in2="BackgroundImageFix" result="effect1_dropShadow"/>
<feColorMatrix in="SourceAlpha" type="matrix" values="0 0 0 0 0 0 0 0 0 0 0 0 0 0 0 0 0 0 127 0"/>
<feOffset/>
<feGaussianBlur stdDeviation="1"/>
<feColorMatrix type="matrix" values="0 0 0 0 0 0 0 0 0 0 0 0 0 0 0 0 0 0 0.05 0"/>
<feBlend mode="normal" in2="effect1_dropShadow" result="effect2_dropShadow"/>
<feColorMatrix in="SourceAlpha" type="matrix" values="0 0 0 0 0 0 0 0 0 0 0 0 0 0 0 0 0 0 127 0"/>
<feOffset dy="3"/>
<feGaussianBlur stdDeviation="2.5"/>
<feColorMatrix type="matrix" values="0 0 0 0 0 0 0 0 0 0 0 0 0 0 0 0 0 0 0.02 0"/>
<feBlend mode="normal" in2="effect2_dropShadow" result="effect3_dropShadow"/>
<feBlend mode="normal" in="SourceGraphic" in2="effect3_dropShadow" result="shape"/>
</filter>
<filter id="filter1_ddd" x="101" y="38.3181" width="82" height="62" filterUnits="userSpaceOnUse" color-interpolation-filters="sRGB">
<feFlood flood-opacity="0" result="BackgroundImageFix"/>
<feColorMatrix in="SourceAlpha" type="matrix" values="0 0 0 0 0 0 0 0 0 0 0 0 0 0 0 0 0 0 127 0"/>
<feOffset dy="1"/>
<feGaussianBlur stdDeviation="2"/>
<feColorMatrix type="matrix" values="0 0 0 0 0 0 0 0 0 0 0 0 0 0 0 0 0 0 0.08 0"/>
<feBlend mode="normal" in2="BackgroundImageFix" result="effect1_dropShadow"/>
<feColorMatrix in="SourceAlpha" type="matrix" values="0 0 0 0 0 0 0 0 0 0 0 0 0 0 0 0 0 0 127 0"/>
<feOffset/>
<feGaussianBlur stdDeviation="1"/>
<feColorMatrix type="matrix" values="0 0 0 0 0 0 0 0 0 0 0 0 0 0 0 0 0 0 0.05 0"/>
<feBlend mode="normal" in2="effect1_dropShadow" result="effect2_dropShadow"/>
<feColorMatrix in="SourceAlpha" type="matrix" values="0 0 0 0 0 0 0 0 0 0 0 0 0 0 0 0 0 0 127 0"/>
<feOffset dy="3"/>
<feGaussianBlur stdDeviation="2.5"/>
<feColorMatrix type="matrix" values="0 0 0 0 0 0 0 0 0 0 0 0 0 0 0 0 0 0 0.02 0"/>
<feBlend mode="normal" in2="effect2_dropShadow" result="effect3_dropShadow"/>
<feBlend mode="normal" in="SourceGraphic" in2="effect3_dropShadow" result="shape"/>
</filter>
<filter id="filter2_ddd" x="179" y="38.3181" width="82" height="62" filterUnits="userSpaceOnUse" color-interpolation-filters="sRGB">
<feFlood flood-opacity="0" result="BackgroundImageFix"/>
<feColorMatrix in="SourceAlpha" type="matrix" values="0 0 0 0 0 0 0 0 0 0 0 0 0 0 0 0 0 0 127 0"/>
<feOffset dy="1"/>
<feGaussianBlur stdDeviation="2"/>
<feColorMatrix type="matrix" values="0 0 0 0 0 0 0 0 0 0 0 0 0 0 0 0 0 0 0.08 0"/>
<feBlend mode="normal" in2="BackgroundImageFix" result="effect1_dropShadow"/>
<feColorMatrix in="SourceAlpha" type="matrix" values="0 0 0 0 0 0 0 0 0 0 0 0 0 0 0 0 0 0 127 0"/>
<feOffset/>
<feGaussianBlur stdDeviation="1"/>
<feColorMatrix type="matrix" values="0 0 0 0 0 0 0 0 0 0 0 0 0 0 0 0 0 0 0.05 0"/>
<feBlend mode="normal" in2="effect1_dropShadow" result="effect2_dropShadow"/>
<feColorMatrix in="SourceAlpha" type="matrix" values="0 0 0 0 0 0 0 0 0 0 0 0 0 0 0 0 0 0 127 0"/>
<feOffset dy="3"/>
<feGaussianBlur stdDeviation="2.5"/>
<feColorMatrix type="matrix" values="0 0 0 0 0 0 0 0 0 0 0 0 0 0 0 0 0 0 0.02 0"/>
<feBlend mode="normal" in2="effect2_dropShadow" result="effect3_dropShadow"/>
<feBlend mode="normal" in="SourceGraphic" in2="effect3_dropShadow" result="shape"/>
</filter>
</defs>
</svg>
