<svg width="283" height="132" viewBox="0 0 283 132" fill="none" xmlns="http://www.w3.org/2000/svg">
<rect x="1" y="1" width="281" height="130" rx="3" stroke="#BBC7CD" stroke-opacity="0.5" stroke-width="2"/>
<path d="M240.938 43.6875H197.062C194.271 43.6875 191.896 44.6667 189.938 46.625C187.979 48.5833 187 50.9375 187 53.6875V90.3125C187 93.0625 187.979 95.4167 189.938 97.375C191.896 99.3333 194.271 100.312 197.062 100.312H240.938C243.729 100.312 246.104 99.3333 248.062 97.375C250.021 95.4167 251 93.0625 251 90.3125V53.6875C251 50.9375 250.021 48.5833 248.062 46.625C246.104 44.6667 243.729 43.6875 240.938 43.6875ZM197.062 49.125H240.938C242.188 49.125 243.25 49.5833 244.125 50.5C245.042 51.375 245.5 52.4375 245.5 53.6875V83.6875L235.562 73.75C235.312 73.5 235.021 73.3125 234.688 73.1875C234.396 73.0208 234.062 72.9375 233.688 72.9375C233.646 72.9375 233.604 72.9375 233.562 72.9375C233.562 72.9375 233.542 72.9375 233.5 72.9375C233.125 72.9375 232.75 73.0417 232.375 73.25C232.042 73.4167 231.75 73.625 231.5 73.875L226.812 79.5625L209.938 62.75C209.729 62.5 209.458 62.3125 209.125 62.1875C208.792 62.0208 208.458 61.9375 208.125 61.9375C208.083 61.9375 208.062 61.9375 208.062 61.9375C208.062 61.9375 208.042 61.9375 208 61.9375C207.625 61.9792 207.25 62.0833 206.875 62.25C206.542 62.4167 206.25 62.6458 206 62.9375L192.5 79.0625V53.6875C192.5 52.4375 192.938 51.375 193.812 50.5C194.729 49.5833 195.812 49.125 197.062 49.125ZM192.5 90.3125V87.625L208.188 68.75L223.25 83.8125L214.062 94.8125H197.062C195.812 94.8125 194.729 94.375 193.812 93.5C192.938 92.625 192.5 91.5625 192.5 90.3125ZM240.938 94.875H221.188L233.812 79.6875L245.312 91.25C245.104 92.2917 244.583 93.1667 243.75 93.875C242.958 94.5417 242.021 94.875 240.938 94.875Z" fill="#BBC7CD"/>
<rect x="24" y="98" width="38" height="10" rx="5" fill="#BBC7CD"/>
<rect x="32" y="102" width="22" height="2" rx="1" fill="#263238"/>
<rect x="24" y="80" width="95" height="4" rx="2" fill="#BBC7CD"/>
<rect x="24" y="68" width="105" height="4" rx="2" fill="#BBC7CD"/>
<rect x="24" y="44" width="64" height="4" rx="2" fill="white"/>
<rect x="24" y="56" width="78" height="4" rx="2" fill="white"/>
<circle cx="30" cy="18" r="6" fill="#F57C00"/>
</svg>
