<svg width="283" height="133" viewBox="0 0 283 133" fill="none" xmlns="http://www.w3.org/2000/svg">
<rect y="0.880859" width="283" height="132" rx="4" fill="white" fill-opacity="0.15"/>
<rect x="1" y="1.88086" width="281" height="130" rx="3" stroke="#BBC7CD" stroke-opacity="0.5" stroke-width="2"/>
<g filter="url(#filter0_d)">
<rect x="64" y="22.8809" width="155" height="87" rx="3" fill="#212121"/>
</g>
<rect x="72" y="39.8809" width="62" height="3" rx="1.5" fill="#BBC7CD"/>
<rect x="200.5" y="32.3809" width="9" height="9" rx="4.5" fill="#212121" stroke="#BBC7CD" stroke-width="3"/>
<rect x="72" y="30.8809" width="77" height="3" rx="1.5" fill="white"/>
<rect opacity="0.5" x="64" y="50.8809" width="155" height="1" fill="#BBC7CD"/>
<rect x="72" y="68.8809" width="44" height="3" rx="1.5" fill="#BBC7CD"/>
<rect x="200.5" y="61.3809" width="9" height="9" rx="4.5" fill="#4CAF50" stroke="#419544" stroke-width="3"/>
<rect x="72" y="59.8809" width="60" height="3" rx="1.5" fill="white"/>
<rect opacity="0.5" x="64" y="79.8809" width="155" height="1" fill="#BBC7CD"/>
<rect x="72" y="97.8809" width="68" height="3" rx="1.5" fill="#BBC7CD"/>
<rect x="200.5" y="90.3809" width="9" height="9" rx="4.5" fill="#212121" stroke="#BBC7CD" stroke-width="3"/>
<rect x="72" y="88.8809" width="53" height="3" rx="1.5" fill="white"/>
<defs>
<filter id="filter0_d" x="62" y="22.8809" width="159" height="91" filterUnits="userSpaceOnUse" color-interpolation-filters="sRGB">
<feFlood flood-opacity="0" result="BackgroundImageFix"/>
<feColorMatrix in="SourceAlpha" type="matrix" values="0 0 0 0 0 0 0 0 0 0 0 0 0 0 0 0 0 0 127 0"/>
<feOffset dy="2"/>
<feGaussianBlur stdDeviation="1"/>
<feColorMatrix type="matrix" values="0 0 0 0 0 0 0 0 0 0 0 0 0 0 0 0 0 0 0.03 0"/>
<feBlend mode="normal" in2="BackgroundImageFix" result="effect1_dropShadow"/>
<feBlend mode="normal" in="SourceGraphic" in2="effect1_dropShadow" result="shape"/>
</filter>
</defs>
</svg>
