<svg width="283" height="132" viewBox="0 0 283 132" fill="none" xmlns="http://www.w3.org/2000/svg">
<g clip-path="url(#clip0)">
<rect x="1" y="1" width="281" height="130" rx="3" fill="#ECEFF1" stroke="#BBC7CD" stroke-width="2"/>
<g filter="url(#filter0_ddd)">
<rect x="2" y="46" width="279" height="40" fill="white"/>
</g>
<rect x="26" y="58" width="32" height="16" rx="2" fill="#F7F9F9"/>
<rect x="76" y="58" width="32" height="16" rx="2" fill="#F7F9F9"/>
<rect x="126" y="58" width="32" height="16" rx="2" fill="#F7F9F9"/>
<rect x="176" y="58" width="32" height="16" rx="2" fill="#F7F9F9"/>
<rect x="226" y="58" width="32" height="16" rx="2" fill="#F7F9F9"/>
<path d="M41.5372 61.1317C41.7066 60.7174 42.2934 60.7174 42.4628 61.1317L43.9591 64.7909C43.9763 64.8328 43.999 64.8721 44.0266 64.9079L46.4474 68.0333C46.7215 68.3872 46.4282 68.8954 45.9846 68.8349L42.0675 68.3012C42.0227 68.2951 41.9773 68.2951 41.9325 68.3012L38.0154 68.8349C37.5718 68.8954 37.2785 68.3872 37.5526 68.0333L39.9734 64.9079C40.001 64.8721 40.0237 64.8328 40.0409 64.7909L41.5372 61.1317Z" fill="#9CAEB7"/>
<path d="M91.5245 61.4633C91.6742 61.0027 92.3258 61.0027 92.4755 61.4633L93.2349 63.8003C93.3019 64.0063 93.4938 64.1457 93.7104 64.1457L96.1677 64.1458C96.652 64.1459 96.8534 64.7656 96.4616 65.0503L94.4737 66.4947C94.2985 66.6221 94.2251 66.8477 94.2921 67.0537L95.0513 69.3907C95.201 69.8514 94.6737 70.2344 94.2819 69.9498L92.2939 68.5055C92.1186 68.3782 91.8814 68.3782 91.7061 68.5055L89.7181 69.9498C89.3263 70.2344 88.799 69.8514 88.9487 69.3907L89.7079 67.0537C89.7749 66.8477 89.7015 66.6221 89.5263 66.4947L87.5384 65.0503C87.1466 64.7656 87.348 64.1459 87.8323 64.1458L90.2896 64.1457C90.5062 64.1457 90.6981 64.0063 90.7651 63.8003L91.5245 61.4633Z" fill="#9CAEB7"/>
<path d="M141.531 61.2671C141.692 60.8318 142.308 60.8318 142.469 61.2671L143.541 64.1637C143.592 64.3006 143.699 64.4085 143.836 64.4591L146.733 65.5311C147.168 65.6922 147.168 66.3078 146.733 66.4689L143.836 67.5409C143.699 67.5915 143.592 67.6994 143.541 67.8363L142.469 70.7329C142.308 71.1682 141.692 71.1682 141.531 70.7329L140.459 67.8363C140.408 67.6994 140.301 67.5915 140.164 67.5409L137.267 66.4689C136.832 66.3078 136.832 65.6922 137.267 65.5311L140.164 64.4591C140.301 64.4085 140.408 64.3006 140.459 64.1637L141.531 61.2671Z" fill="#9CAEB7"/>
<path d="M191.519 61.6845C191.657 61.2008 192.343 61.2008 192.481 61.6845L193.013 63.5496C193.087 63.8091 193.354 63.963 193.616 63.8974L195.497 63.4259C195.985 63.3036 196.328 63.8972 195.978 64.2586L194.629 65.6522C194.441 65.8461 194.441 66.1539 194.629 66.3478L195.978 67.7414C196.328 68.1028 195.985 68.6964 195.497 68.5741L193.616 68.1026C193.354 68.037 193.087 68.1909 193.013 68.4504L192.481 70.3155C192.343 70.7992 191.657 70.7992 191.519 70.3155L190.987 68.4504C190.913 68.1909 190.646 68.037 190.384 68.1026L188.503 68.5741C188.015 68.6964 187.672 68.1028 188.022 67.7414L189.371 66.3478C189.559 66.1539 189.559 65.8461 189.371 65.6522L188.022 64.2586C187.672 63.8972 188.015 63.3036 188.503 63.4259L190.384 63.8974C190.646 63.963 190.913 63.8091 190.987 63.5496L191.519 61.6845Z" fill="#9CAEB7"/>
<path d="M241.515 61.9181C241.642 61.4148 242.358 61.4148 242.485 61.9181L242.848 63.3552C242.924 63.6573 243.255 63.8167 243.539 63.688L244.889 63.076C245.362 62.8616 245.808 63.4207 245.494 63.834L244.596 65.0139C244.408 65.262 244.49 65.6202 244.767 65.7619L246.087 66.4357C246.55 66.6717 246.391 67.3689 245.872 67.3809L244.39 67.4152C244.078 67.4224 243.849 67.7097 243.912 68.015L244.208 69.4673C244.312 69.976 243.667 70.2862 243.334 69.888L242.384 68.7508C242.184 68.5118 241.816 68.5118 241.616 68.7508L240.666 69.888C240.333 70.2862 239.688 69.976 239.792 69.4673L240.088 68.015C240.151 67.7097 239.922 67.4224 239.61 67.4152L238.128 67.3809C237.609 67.3689 237.45 66.6717 237.913 66.4357L239.233 65.7619C239.51 65.6202 239.592 65.262 239.404 65.0139L238.506 63.834C238.192 63.4207 238.638 62.8616 239.111 63.076L240.461 63.688C240.745 63.8167 241.076 63.6573 241.152 63.3552L241.515 61.9181Z" fill="#9CAEB7"/>
</g>
<defs>
<filter id="filter0_ddd" x="-8" y="40" width="299" height="60" filterUnits="userSpaceOnUse" color-interpolation-filters="sRGB">
<feFlood flood-opacity="0" result="BackgroundImageFix"/>
<feColorMatrix in="SourceAlpha" type="matrix" values="0 0 0 0 0 0 0 0 0 0 0 0 0 0 0 0 0 0 127 0"/>
<feOffset dy="2"/>
<feGaussianBlur stdDeviation="3"/>
<feColorMatrix type="matrix" values="0 0 0 0 0 0 0 0 0 0 0 0 0 0 0 0 0 0 0.12 0"/>
<feBlend mode="normal" in2="BackgroundImageFix" result="effect1_dropShadow"/>
<feColorMatrix in="SourceAlpha" type="matrix" values="0 0 0 0 0 0 0 0 0 0 0 0 0 0 0 0 0 0 127 0"/>
<feOffset/>
<feGaussianBlur stdDeviation="1"/>
<feColorMatrix type="matrix" values="0 0 0 0 0 0 0 0 0 0 0 0 0 0 0 0 0 0 0.06 0"/>
<feBlend mode="normal" in2="effect1_dropShadow" result="effect2_dropShadow"/>
<feColorMatrix in="SourceAlpha" type="matrix" values="0 0 0 0 0 0 0 0 0 0 0 0 0 0 0 0 0 0 127 0"/>
<feOffset dy="4"/>
<feGaussianBlur stdDeviation="5"/>
<feColorMatrix type="matrix" values="0 0 0 0 0 0 0 0 0 0 0 0 0 0 0 0 0 0 0.03 0"/>
<feBlend mode="normal" in2="effect2_dropShadow" result="effect3_dropShadow"/>
<feBlend mode="normal" in="SourceGraphic" in2="effect3_dropShadow" result="shape"/>
</filter>
<clipPath id="clip0">
<rect width="283" height="132" fill="white"/>
</clipPath>
</defs>
</svg>
