<svg width="283" height="133" viewBox="0 0 283 133" fill="none" xmlns="http://www.w3.org/2000/svg">
<rect x="1" y="1.56885" width="281" height="130" rx="3" fill="#F5F7F8" stroke="#BBC7CD" stroke-width="2"/>
<path d="M236.938 42.6875H193.062C190.271 42.6875 187.896 43.6667 185.938 45.625C183.979 47.5833 183 49.9375 183 52.6875V89.3125C183 92.0625 183.979 94.4167 185.938 96.375C187.896 98.3333 190.271 99.3125 193.062 99.3125H236.938C239.729 99.3125 242.104 98.3333 244.062 96.375C246.021 94.4167 247 92.0625 247 89.3125V52.6875C247 49.9375 246.021 47.5833 244.062 45.625C242.104 43.6667 239.729 42.6875 236.938 42.6875ZM193.062 48.125H236.938C238.188 48.125 239.25 48.5833 240.125 49.5C241.042 50.375 241.5 51.4375 241.5 52.6875V82.6875L231.562 72.75C231.312 72.5 231.021 72.3125 230.688 72.1875C230.396 72.0208 230.062 71.9375 229.688 71.9375C229.646 71.9375 229.604 71.9375 229.562 71.9375C229.562 71.9375 229.542 71.9375 229.5 71.9375C229.125 71.9375 228.75 72.0417 228.375 72.25C228.042 72.4167 227.75 72.625 227.5 72.875L222.812 78.5625L205.938 61.75C205.729 61.5 205.458 61.3125 205.125 61.1875C204.792 61.0208 204.458 60.9375 204.125 60.9375C204.083 60.9375 204.062 60.9375 204.062 60.9375C204.062 60.9375 204.042 60.9375 204 60.9375C203.625 60.9792 203.25 61.0833 202.875 61.25C202.542 61.4167 202.25 61.6458 202 61.9375L188.5 78.0625V52.6875C188.5 51.4375 188.938 50.375 189.812 49.5C190.729 48.5833 191.812 48.125 193.062 48.125ZM188.5 89.3125V86.625L204.188 67.75L219.25 82.8125L210.062 93.8125H193.062C191.812 93.8125 190.729 93.375 189.812 92.5C188.938 91.625 188.5 90.5625 188.5 89.3125ZM236.938 93.875H217.188L229.812 78.6875L241.312 90.25C241.104 91.2917 240.583 92.1667 239.75 92.875C238.958 93.5417 238.021 93.875 236.938 93.875Z" fill="#BBC7CD"/>
<rect x="36" y="97" width="38" height="10" rx="5" fill="#BBC7CD"/>
<rect x="44" y="101" width="22" height="2" rx="1" fill="#263238"/>
<rect x="36" y="79" width="58" height="4" rx="2" fill="#BBC7CD"/>
<rect x="36" y="67" width="68" height="4" rx="2" fill="#BBC7CD"/>
<rect x="36" y="43" width="49" height="4" rx="2" fill="#263238"/>
<rect x="36" y="55" width="86" height="4" rx="2" fill="#263238"/>
<path d="M2 4.56885C2 3.46428 2.89543 2.56885 4 2.56885H279C280.105 2.56885 281 3.46428 281 4.56885V26.5688H2V4.56885Z" fill="#263238"/>
<path d="M23.5311 9.8361C23.6922 9.40079 24.3078 9.40079 24.4689 9.8361L25.5408 12.7327C25.5914 12.8695 25.6993 12.9774 25.8362 13.0281L28.7327 14.0999C29.1681 14.261 29.1681 14.8767 28.7327 15.0378L25.8362 16.1096C25.6993 16.1602 25.5914 16.2682 25.5408 16.405L24.4689 19.3016C24.3078 19.7369 23.6922 19.7369 23.5311 19.3016L22.4592 16.405C22.4086 16.2682 22.3007 16.1602 22.1638 16.1096L19.2673 15.0378C18.8319 14.8767 18.8319 14.261 19.2673 14.0999L22.1638 13.0281C22.3007 12.9774 22.4086 12.8695 22.4592 12.7327L23.5311 9.8361Z" fill="#F57C00"/>
<rect x="221" y="13.0688" width="16" height="3" rx="1.5" fill="#BBC7CD"/>
<rect x="249" y="13.0688" width="16" height="3" rx="1.5" fill="#2196F3"/>
</svg>
