<svg width="283" height="135" viewBox="0 0 283 135" fill="none" xmlns="http://www.w3.org/2000/svg">
<rect y="0.732178" width="283" height="132" rx="4" fill="white" fill-opacity="0.15"/>
<rect x="1" y="1.73218" width="281" height="130" rx="3" stroke="#BBC7CD" stroke-opacity="0.5" stroke-width="2"/>
<g filter="url(#filter0_d)">
<path d="M16 50.7322C16 49.0753 17.3431 47.7322 19 47.7322H264C265.657 47.7322 267 49.0753 267 50.7322V130.732H16V50.7322Z" fill="#212121"/>
</g>
<g filter="url(#filter1_d)">
<rect x="2" y="2.73218" width="279" height="32" fill="#212121"/>
</g>
<rect x="229" y="13.7322" width="38" height="10" rx="4" fill="#BBC7CD"/>
<rect x="237" y="17.7322" width="22" height="2" rx="1" fill="#263238"/>
<rect x="16" y="11.7322" width="120" height="3" rx="1.5" fill="white"/>
<rect x="16" y="21.7322" width="87" height="3" rx="1.5" fill="#BBC7CD"/>
<defs>
<filter id="filter0_d" x="14" y="47.7322" width="255" height="87" filterUnits="userSpaceOnUse" color-interpolation-filters="sRGB">
<feFlood flood-opacity="0" result="BackgroundImageFix"/>
<feColorMatrix in="SourceAlpha" type="matrix" values="0 0 0 0 0 0 0 0 0 0 0 0 0 0 0 0 0 0 127 0"/>
<feOffset dy="2"/>
<feGaussianBlur stdDeviation="1"/>
<feColorMatrix type="matrix" values="0 0 0 0 0 0 0 0 0 0 0 0 0 0 0 0 0 0 0.03 0"/>
<feBlend mode="normal" in2="BackgroundImageFix" result="effect1_dropShadow"/>
<feBlend mode="normal" in="SourceGraphic" in2="effect1_dropShadow" result="shape"/>
</filter>
<filter id="filter1_d" x="0" y="2.73218" width="283" height="36" filterUnits="userSpaceOnUse" color-interpolation-filters="sRGB">
<feFlood flood-opacity="0" result="BackgroundImageFix"/>
<feColorMatrix in="SourceAlpha" type="matrix" values="0 0 0 0 0 0 0 0 0 0 0 0 0 0 0 0 0 0 127 0"/>
<feOffset dy="2"/>
<feGaussianBlur stdDeviation="1"/>
<feColorMatrix type="matrix" values="0 0 0 0 0 0 0 0 0 0 0 0 0 0 0 0 0 0 0.03 0"/>
<feBlend mode="normal" in2="BackgroundImageFix" result="effect1_dropShadow"/>
<feBlend mode="normal" in="SourceGraphic" in2="effect1_dropShadow" result="shape"/>
</filter>
</defs>
</svg>
