<svg width="283" height="133" viewBox="0 0 283 133" fill="none" xmlns="http://www.w3.org/2000/svg">
<rect x="1" y="1.90405" width="281" height="130" rx="3" fill="#ECEFF1" stroke="#BBC7CD" stroke-width="2"/>
<g filter="url(#filter0_d)">
<rect x="28" y="24.9041" width="72" height="36" rx="3" fill="white"/>
</g>
<rect x="36" y="49.9041" width="24" height="3" rx="1.5" fill="#BBC7CD"/>
<rect x="84.5" y="31.4041" width="9" height="9" rx="4.5" fill="#BBC7CD" stroke="white"/>
<rect x="36" y="32.9041" width="18" height="3" rx="1.5" fill="#263238"/>
<g filter="url(#filter1_d)">
<rect x="28" y="72.9041" width="72" height="36" rx="3" fill="white"/>
</g>
<rect x="36" y="97.9041" width="24" height="3" rx="1.5" fill="#BBC7CD"/>
<rect x="84.5" y="79.4041" width="9" height="9" rx="4.5" fill="#BBC7CD" stroke="white"/>
<rect x="36" y="80.9041" width="33" height="3" rx="1.5" fill="#263238"/>
<g filter="url(#filter2_d)">
<rect x="106" y="24.9041" width="72" height="36" rx="3" fill="white"/>
</g>
<rect x="114" y="49.9041" width="18" height="3" rx="1.5" fill="#BBC7CD"/>
<rect x="162.5" y="31.4041" width="9" height="9" rx="4.5" fill="#BBC7CD" stroke="white"/>
<rect x="114" y="32.9041" width="26" height="3" rx="1.5" fill="#263238"/>
<g filter="url(#filter3_d)">
<rect x="106" y="72.9041" width="72" height="36" rx="3" fill="white"/>
</g>
<rect x="114" y="97.9041" width="24" height="3" rx="1.5" fill="#BBC7CD"/>
<rect x="162.5" y="79.4041" width="9" height="9" rx="4.5" fill="#BBC7CD" stroke="white"/>
<rect x="114" y="80.9041" width="18" height="3" rx="1.5" fill="#263238"/>
<g filter="url(#filter4_d)">
<rect x="184" y="24.9041" width="72" height="36" rx="3" fill="white"/>
</g>
<rect x="192" y="49.9041" width="18" height="3" rx="1.5" fill="#BBC7CD"/>
<rect x="240.5" y="31.4041" width="9" height="9" rx="4.5" fill="#BBC7CD" stroke="white"/>
<rect x="192" y="32.9041" width="29" height="3" rx="1.5" fill="#263238"/>
<g filter="url(#filter5_d)">
<rect x="184" y="72.9041" width="72" height="36" rx="3" fill="white"/>
</g>
<rect x="192" y="97.9041" width="20" height="3" rx="1.5" fill="#BBC7CD"/>
<rect x="240.5" y="79.4041" width="9" height="9" rx="4.5" fill="#BBC7CD" stroke="white"/>
<rect x="192" y="80.9041" width="24" height="3" rx="1.5" fill="#263238"/>
<defs>
<filter id="filter0_d" x="26" y="24.9041" width="76" height="40" filterUnits="userSpaceOnUse" color-interpolation-filters="sRGB">
<feFlood flood-opacity="0" result="BackgroundImageFix"/>
<feColorMatrix in="SourceAlpha" type="matrix" values="0 0 0 0 0 0 0 0 0 0 0 0 0 0 0 0 0 0 127 0"/>
<feOffset dy="2"/>
<feGaussianBlur stdDeviation="1"/>
<feColorMatrix type="matrix" values="0 0 0 0 0 0 0 0 0 0 0 0 0 0 0 0 0 0 0.03 0"/>
<feBlend mode="normal" in2="BackgroundImageFix" result="effect1_dropShadow"/>
<feBlend mode="normal" in="SourceGraphic" in2="effect1_dropShadow" result="shape"/>
</filter>
<filter id="filter1_d" x="26" y="72.9041" width="76" height="40" filterUnits="userSpaceOnUse" color-interpolation-filters="sRGB">
<feFlood flood-opacity="0" result="BackgroundImageFix"/>
<feColorMatrix in="SourceAlpha" type="matrix" values="0 0 0 0 0 0 0 0 0 0 0 0 0 0 0 0 0 0 127 0"/>
<feOffset dy="2"/>
<feGaussianBlur stdDeviation="1"/>
<feColorMatrix type="matrix" values="0 0 0 0 0 0 0 0 0 0 0 0 0 0 0 0 0 0 0.03 0"/>
<feBlend mode="normal" in2="BackgroundImageFix" result="effect1_dropShadow"/>
<feBlend mode="normal" in="SourceGraphic" in2="effect1_dropShadow" result="shape"/>
</filter>
<filter id="filter2_d" x="104" y="24.9041" width="76" height="40" filterUnits="userSpaceOnUse" color-interpolation-filters="sRGB">
<feFlood flood-opacity="0" result="BackgroundImageFix"/>
<feColorMatrix in="SourceAlpha" type="matrix" values="0 0 0 0 0 0 0 0 0 0 0 0 0 0 0 0 0 0 127 0"/>
<feOffset dy="2"/>
<feGaussianBlur stdDeviation="1"/>
<feColorMatrix type="matrix" values="0 0 0 0 0 0 0 0 0 0 0 0 0 0 0 0 0 0 0.03 0"/>
<feBlend mode="normal" in2="BackgroundImageFix" result="effect1_dropShadow"/>
<feBlend mode="normal" in="SourceGraphic" in2="effect1_dropShadow" result="shape"/>
</filter>
<filter id="filter3_d" x="104" y="72.9041" width="76" height="40" filterUnits="userSpaceOnUse" color-interpolation-filters="sRGB">
<feFlood flood-opacity="0" result="BackgroundImageFix"/>
<feColorMatrix in="SourceAlpha" type="matrix" values="0 0 0 0 0 0 0 0 0 0 0 0 0 0 0 0 0 0 127 0"/>
<feOffset dy="2"/>
<feGaussianBlur stdDeviation="1"/>
<feColorMatrix type="matrix" values="0 0 0 0 0 0 0 0 0 0 0 0 0 0 0 0 0 0 0.03 0"/>
<feBlend mode="normal" in2="BackgroundImageFix" result="effect1_dropShadow"/>
<feBlend mode="normal" in="SourceGraphic" in2="effect1_dropShadow" result="shape"/>
</filter>
<filter id="filter4_d" x="182" y="24.9041" width="76" height="40" filterUnits="userSpaceOnUse" color-interpolation-filters="sRGB">
<feFlood flood-opacity="0" result="BackgroundImageFix"/>
<feColorMatrix in="SourceAlpha" type="matrix" values="0 0 0 0 0 0 0 0 0 0 0 0 0 0 0 0 0 0 127 0"/>
<feOffset dy="2"/>
<feGaussianBlur stdDeviation="1"/>
<feColorMatrix type="matrix" values="0 0 0 0 0 0 0 0 0 0 0 0 0 0 0 0 0 0 0.03 0"/>
<feBlend mode="normal" in2="BackgroundImageFix" result="effect1_dropShadow"/>
<feBlend mode="normal" in="SourceGraphic" in2="effect1_dropShadow" result="shape"/>
</filter>
<filter id="filter5_d" x="182" y="72.9041" width="76" height="40" filterUnits="userSpaceOnUse" color-interpolation-filters="sRGB">
<feFlood flood-opacity="0" result="BackgroundImageFix"/>
<feColorMatrix in="SourceAlpha" type="matrix" values="0 0 0 0 0 0 0 0 0 0 0 0 0 0 0 0 0 0 127 0"/>
<feOffset dy="2"/>
<feGaussianBlur stdDeviation="1"/>
<feColorMatrix type="matrix" values="0 0 0 0 0 0 0 0 0 0 0 0 0 0 0 0 0 0 0.03 0"/>
<feBlend mode="normal" in2="BackgroundImageFix" result="effect1_dropShadow"/>
<feBlend mode="normal" in="SourceGraphic" in2="effect1_dropShadow" result="shape"/>
</filter>
</defs>
</svg>
