<svg width="283" height="133" viewBox="0 0 283 133" fill="none" xmlns="http://www.w3.org/2000/svg">
<g clip-path="url(#clip0)">
<rect x="1" y="1.73218" width="281" height="130" rx="3" fill="#ECEFF1" stroke="#BBC7CD" stroke-width="2"/>
<g filter="url(#filter0_d)">
<path d="M16 50.7322C16 49.0753 17.3431 47.7322 19 47.7322H264C265.657 47.7322 267 49.0753 267 50.7322V130.732H16V50.7322Z" fill="white"/>
</g>
<g filter="url(#filter1_ddd)">
<path d="M2 4.73218C2 3.62761 2.89543 2.73218 4 2.73218H279C280.105 2.73218 281 3.62761 281 4.73218V34.7322H2V4.73218Z" fill="white"/>
</g>
<rect x="229" y="13.7322" width="38" height="10" rx="4" fill="#BBC7CD"/>
<rect x="237" y="17.7322" width="22" height="2" rx="1" fill="#263238"/>
<rect x="16" y="11.7322" width="120" height="3" rx="1.5" fill="#263238"/>
<rect x="16" y="21.7322" width="87" height="3" rx="1.5" fill="#BBC7CD"/>
</g>
<defs>
<filter id="filter0_d" x="13" y="46.7322" width="257" height="89" filterUnits="userSpaceOnUse" color-interpolation-filters="sRGB">
<feFlood flood-opacity="0" result="BackgroundImageFix"/>
<feColorMatrix in="SourceAlpha" type="matrix" values="0 0 0 0 0 0 0 0 0 0 0 0 0 0 0 0 0 0 127 0"/>
<feOffset dy="2"/>
<feGaussianBlur stdDeviation="1.5"/>
<feColorMatrix type="matrix" values="0 0 0 0 0 0 0 0 0 0 0 0 0 0 0 0 0 0 0.06 0"/>
<feBlend mode="normal" in2="BackgroundImageFix" result="effect1_dropShadow"/>
<feBlend mode="normal" in="SourceGraphic" in2="effect1_dropShadow" result="shape"/>
</filter>
<filter id="filter1_ddd" x="-8" y="-3.26782" width="299" height="52" filterUnits="userSpaceOnUse" color-interpolation-filters="sRGB">
<feFlood flood-opacity="0" result="BackgroundImageFix"/>
<feColorMatrix in="SourceAlpha" type="matrix" values="0 0 0 0 0 0 0 0 0 0 0 0 0 0 0 0 0 0 127 0"/>
<feOffset dy="2"/>
<feGaussianBlur stdDeviation="3"/>
<feColorMatrix type="matrix" values="0 0 0 0 0 0 0 0 0 0 0 0 0 0 0 0 0 0 0.12 0"/>
<feBlend mode="normal" in2="BackgroundImageFix" result="effect1_dropShadow"/>
<feColorMatrix in="SourceAlpha" type="matrix" values="0 0 0 0 0 0 0 0 0 0 0 0 0 0 0 0 0 0 127 0"/>
<feOffset/>
<feGaussianBlur stdDeviation="1"/>
<feColorMatrix type="matrix" values="0 0 0 0 0 0 0 0 0 0 0 0 0 0 0 0 0 0 0.06 0"/>
<feBlend mode="normal" in2="effect1_dropShadow" result="effect2_dropShadow"/>
<feColorMatrix in="SourceAlpha" type="matrix" values="0 0 0 0 0 0 0 0 0 0 0 0 0 0 0 0 0 0 127 0"/>
<feOffset dy="4"/>
<feGaussianBlur stdDeviation="5"/>
<feColorMatrix type="matrix" values="0 0 0 0 0 0 0 0 0 0 0 0 0 0 0 0 0 0 0.03 0"/>
<feBlend mode="normal" in2="effect2_dropShadow" result="effect3_dropShadow"/>
<feBlend mode="normal" in="SourceGraphic" in2="effect3_dropShadow" result="shape"/>
</filter>
<clipPath id="clip0">
<rect width="283" height="132" fill="white" transform="translate(0 0.732178)"/>
</clipPath>
</defs>
</svg>
