<svg width="283" height="135" viewBox="0 0 283 135" fill="none" xmlns="http://www.w3.org/2000/svg">
<rect y="0.0292969" width="283" height="132" rx="4" fill="white" fill-opacity="0.15"/>
<rect x="1" y="1.0293" width="281" height="130" rx="3" stroke="#BBC7CD" stroke-opacity="0.5" stroke-width="2"/>
<g filter="url(#filter0_d)">
<path d="M209 2.0293H279C280.105 2.0293 281 2.92473 281 4.0293V128.029C281 129.134 280.105 130.029 279 130.029H209V2.0293Z" fill="#212121"/>
</g>
<path d="M268.73 16.6543L271.777 13.6074C271.829 13.5553 271.868 13.4967 271.895 13.4316C271.927 13.3665 271.943 13.2982 271.943 13.2266C271.943 13.0833 271.891 12.9629 271.787 12.8652C271.689 12.7611 271.569 12.709 271.426 12.709C271.354 12.709 271.286 12.7253 271.221 12.7578C271.156 12.7839 271.097 12.8229 271.045 12.875L267.998 15.9219L264.951 12.875C264.899 12.8294 264.844 12.7936 264.785 12.7676C264.727 12.7415 264.661 12.7285 264.59 12.7285C264.447 12.7285 264.323 12.7806 264.219 12.8848C264.121 12.9824 264.072 13.1029 264.072 13.2461C264.072 13.3177 264.085 13.3828 264.111 13.4414C264.137 13.5 264.173 13.5553 264.219 13.6074L267.266 16.6543L264.219 19.7012C264.167 19.7533 264.128 19.8118 264.102 19.877C264.076 19.9355 264.062 20.0007 264.062 20.0723C264.062 20.1439 264.076 20.2122 264.102 20.2773C264.128 20.3359 264.167 20.388 264.219 20.4336C264.264 20.4857 264.316 20.5247 264.375 20.5508C264.44 20.5768 264.508 20.5898 264.58 20.5898C264.652 20.5898 264.717 20.5768 264.775 20.5508C264.84 20.5247 264.899 20.4857 264.951 20.4336L267.998 17.3867L271.045 20.4336C271.097 20.4857 271.152 20.5247 271.211 20.5508C271.276 20.5768 271.344 20.5898 271.416 20.5898C271.488 20.5898 271.553 20.5768 271.611 20.5508C271.676 20.5247 271.732 20.4857 271.777 20.4336C271.829 20.388 271.868 20.3359 271.895 20.2773C271.921 20.2122 271.934 20.1439 271.934 20.0723C271.934 20.0007 271.921 19.9355 271.895 19.877C271.868 19.8118 271.829 19.7533 271.777 19.7012L268.73 16.6543Z" fill="#BBC7CD"/>
<rect x="216" y="14.0293" width="36" height="3" rx="1.5" fill="#BBC7CD"/>
<defs>
<filter id="filter0_d" x="205" y="2.0293" width="76" height="132" filterUnits="userSpaceOnUse" color-interpolation-filters="sRGB">
<feFlood flood-opacity="0" result="BackgroundImageFix"/>
<feColorMatrix in="SourceAlpha" type="matrix" values="0 0 0 0 0 0 0 0 0 0 0 0 0 0 0 0 0 0 127 0"/>
<feOffset dx="-2" dy="2"/>
<feGaussianBlur stdDeviation="1"/>
<feColorMatrix type="matrix" values="0 0 0 0 0 0 0 0 0 0 0 0 0 0 0 0 0 0 0.06 0"/>
<feBlend mode="normal" in2="BackgroundImageFix" result="effect1_dropShadow"/>
<feBlend mode="normal" in="SourceGraphic" in2="effect1_dropShadow" result="shape"/>
</filter>
</defs>
</svg>
