<svg width="283" height="133" viewBox="0 0 283 133" fill="none" xmlns="http://www.w3.org/2000/svg">
<rect x="1" y="1.90405" width="281" height="130" rx="3" fill="#ECEFF1" stroke="#BBC7CD" stroke-width="2"/>
<g filter="url(#filter0_d)">
<rect x="48" y="24.9041" width="187" height="81" rx="3" fill="white"/>
</g>
<rect x="60" y="36.9041" width="33" height="3" rx="1.5" fill="#263238"/>
<rect x="60" y="45.9041" width="55" height="3" rx="1.5" fill="#BBC7CD"/>
<rect x="213.5" y="37.4041" width="9" height="9" rx="4.5" fill="#BBC7CD" stroke="white"/>
<rect x="205.5" y="37.4041" width="9" height="9" rx="4.5" fill="#BBC7CD" stroke="white"/>
<rect x="197.5" y="37.4041" width="9" height="9" rx="4.5" fill="#BBC7CD" stroke="white"/>
<rect x="48.25" y="55.1541" width="186.5" height="0.5" fill="#D9E0E3" stroke="#F7F9F9" stroke-width="0.5"/>
<rect x="60" y="61.9041" width="25" height="3" rx="1.5" fill="#263238"/>
<rect x="60" y="70.9041" width="67" height="3" rx="1.5" fill="#BBC7CD"/>
<rect x="213.5" y="62.4041" width="9" height="9" rx="4.5" fill="#BBC7CD" stroke="white"/>
<rect x="205.5" y="62.4041" width="9" height="9" rx="4.5" fill="#BBC7CD" stroke="white"/>
<rect x="48.25" y="80.1541" width="186.5" height="0.5" fill="#D9E0E3" stroke="#F7F9F9" stroke-width="0.5"/>
<rect x="60" y="86.9041" width="45" height="3" rx="1.5" fill="#263238"/>
<rect x="60" y="95.9041" width="49" height="3" rx="1.5" fill="#BBC7CD"/>
<rect x="213.5" y="87.4041" width="9" height="9" rx="4.5" fill="#BBC7CD" stroke="white"/>
<defs>
<filter id="filter0_d" x="46" y="24.9041" width="191" height="85" filterUnits="userSpaceOnUse" color-interpolation-filters="sRGB">
<feFlood flood-opacity="0" result="BackgroundImageFix"/>
<feColorMatrix in="SourceAlpha" type="matrix" values="0 0 0 0 0 0 0 0 0 0 0 0 0 0 0 0 0 0 127 0"/>
<feOffset dy="2"/>
<feGaussianBlur stdDeviation="1"/>
<feColorMatrix type="matrix" values="0 0 0 0 0 0 0 0 0 0 0 0 0 0 0 0 0 0 0.03 0"/>
<feBlend mode="normal" in2="BackgroundImageFix" result="effect1_dropShadow"/>
<feBlend mode="normal" in="SourceGraphic" in2="effect1_dropShadow" result="shape"/>
</filter>
</defs>
</svg>
