<svg width="283" height="133" viewBox="0 0 283 133" fill="none" xmlns="http://www.w3.org/2000/svg">
<rect y="0.318115" width="283" height="132" rx="4" fill="white" fill-opacity="0.15"/>
<rect x="1" y="1.31812" width="281" height="130" rx="3" stroke="#BBC7CD" stroke-opacity="0.5" stroke-width="2"/>
<g filter="url(#filter0_d)">
<rect x="48" y="16.3181" width="187" height="101" rx="3" fill="#212121"/>
</g>
<rect x="64" y="28.3181" width="56" height="3" rx="1.5" fill="white"/>
<rect opacity="0.5" x="64" y="47.3181" width="24" height="3" rx="1.5" fill="#BBC7CD"/>
<rect x="150" y="47.3181" width="69" height="3" rx="1.5" fill="#BBC7CD"/>
<rect opacity="0.5" x="64" y="58.3181" width="28" height="3" rx="1.5" fill="#BBC7CD"/>
<rect x="141" y="58.3181" width="78" height="3" rx="1.5" fill="#BBC7CD"/>
<rect opacity="0.5" x="64" y="69.3181" width="18" height="3" rx="1.5" fill="#BBC7CD"/>
<rect x="157" y="69.3181" width="62" height="3" rx="1.5" fill="#BBC7CD"/>
<rect opacity="0.5" x="64" y="80.3181" width="21" height="3" rx="1.5" fill="#BBC7CD"/>
<rect x="147" y="80.3181" width="72" height="3" rx="1.5" fill="#BBC7CD"/>
<rect opacity="0.5" x="64" y="91.3181" width="24" height="3" rx="1.5" fill="#BBC7CD"/>
<rect x="167" y="91.3181" width="52" height="3" rx="1.5" fill="#BBC7CD"/>
<rect opacity="0.5" x="64" y="102.318" width="31" height="3" rx="1.5" fill="#BBC7CD"/>
<rect x="157" y="102.318" width="62" height="3" rx="1.5" fill="#BBC7CD"/>
<defs>
<filter id="filter0_d" x="46" y="16.3181" width="191" height="105" filterUnits="userSpaceOnUse" color-interpolation-filters="sRGB">
<feFlood flood-opacity="0" result="BackgroundImageFix"/>
<feColorMatrix in="SourceAlpha" type="matrix" values="0 0 0 0 0 0 0 0 0 0 0 0 0 0 0 0 0 0 127 0"/>
<feOffset dy="2"/>
<feGaussianBlur stdDeviation="1"/>
<feColorMatrix type="matrix" values="0 0 0 0 0 0 0 0 0 0 0 0 0 0 0 0 0 0 0.03 0"/>
<feBlend mode="normal" in2="BackgroundImageFix" result="effect1_dropShadow"/>
<feBlend mode="normal" in="SourceGraphic" in2="effect1_dropShadow" result="shape"/>
</filter>
</defs>
</svg>
