<svg width="283" height="135" viewBox="0 0 283 135" fill="none" xmlns="http://www.w3.org/2000/svg">
<rect y="0.443359" width="283" height="132" rx="4" fill="white" fill-opacity="0.15"/>
<rect x="1" y="1.44336" width="281" height="130" rx="3" stroke="#BBC7CD" stroke-opacity="0.5" stroke-width="2"/>
<g filter="url(#filter0_d)">
<path d="M2 4.44336C2 3.33879 2.89543 2.44336 4 2.44336H44V130.443H4C2.89543 130.443 2 129.548 2 128.443V4.44336Z" fill="#212121"/>
</g>
<rect x="19" y="10.4434" width="8" height="8" rx="4" fill="#F57C00"/>
<rect x="16" y="33.4434" width="20" height="3" rx="1.5" fill="#BBC7CD"/>
<rect x="16" y="44.4434" width="17" height="3" rx="1.5" fill="white"/>
<rect x="16" y="77.4434" width="20" height="3" rx="1.5" fill="#BBC7CD"/>
<rect x="16" y="55.4434" width="14" height="3" rx="1.5" fill="#BBC7CD"/>
<rect x="16" y="66.4434" width="17" height="3" rx="1.5" fill="#BBC7CD"/>
<rect x="8" y="32.4434" width="5" height="5" rx="2.5" fill="#BBC7CD"/>
<rect x="8" y="43.4434" width="5" height="5" rx="2.5" fill="#BBC7CD"/>
<rect x="8" y="76.4434" width="5" height="5" rx="2.5" fill="#BBC7CD"/>
<rect x="8" y="54.4434" width="5" height="5" rx="2.5" fill="#BBC7CD"/>
<rect x="8" y="65.4434" width="5" height="5" rx="2.5" fill="#BBC7CD"/>
<defs>
<filter id="filter0_d" x="0" y="2.44336" width="46" height="132" filterUnits="userSpaceOnUse" color-interpolation-filters="sRGB">
<feFlood flood-opacity="0" result="BackgroundImageFix"/>
<feColorMatrix in="SourceAlpha" type="matrix" values="0 0 0 0 0 0 0 0 0 0 0 0 0 0 0 0 0 0 127 0"/>
<feOffset dy="2"/>
<feGaussianBlur stdDeviation="1"/>
<feColorMatrix type="matrix" values="0 0 0 0 0 0 0 0 0 0 0 0 0 0 0 0 0 0 0.03 0"/>
<feBlend mode="normal" in2="BackgroundImageFix" result="effect1_dropShadow"/>
<feBlend mode="normal" in="SourceGraphic" in2="effect1_dropShadow" result="shape"/>
</filter>
</defs>
</svg>
