<svg width="283" height="132" viewBox="0 0 283 132" fill="none" xmlns="http://www.w3.org/2000/svg">
<rect width="283" height="132" rx="4" fill="white" fill-opacity="0.15"/>
<rect x="1" y="1" width="281" height="130" rx="3" stroke="#BBC7CD" stroke-opacity="0.5" stroke-width="2"/>
<path d="M2 4C2 2.89543 2.89543 2 4 2H279C280.105 2 281 2.89543 281 4V30H2V4Z" fill="#00BCD4"/>
<rect x="39" y="10" width="102" height="3" rx="1.5" fill="#212121"/>
<rect x="39" y="19" width="74" height="3" rx="1.5" fill="#212121" fill-opacity="0.5"/>
<path d="M261 24C259.896 24 258.859 23.7917 257.891 23.375C256.911 22.9583 256.057 22.3906 255.328 21.6719C254.609 20.9427 254.042 20.0885 253.625 19.1094C253.208 18.1406 253 17.1042 253 16C253 14.8958 253.208 13.8594 253.625 12.8906C254.042 11.9115 254.609 11.0625 255.328 10.3438C256.057 9.61458 256.911 9.04167 257.891 8.625C258.859 8.20833 259.896 8 261 8C262.104 8 263.141 8.20833 264.109 8.625C265.089 9.04167 265.938 9.61458 266.656 10.3438C267.385 11.0625 267.958 11.9115 268.375 12.8906C268.792 13.8594 269 14.8958 269 16C269 17.1042 268.792 18.1406 268.375 19.1094C267.958 20.0885 267.385 20.9427 266.656 21.6719C265.938 22.3906 265.089 22.9583 264.109 23.375C263.141 23.7917 262.104 24 261 24ZM261 9.32812C260.083 9.32812 259.219 9.50521 258.406 9.85938C257.594 10.2031 256.885 10.6771 256.281 11.2812C255.677 11.8854 255.203 12.5938 254.859 13.4062C254.505 14.2188 254.328 15.0833 254.328 16C254.328 16.9167 254.505 17.7812 254.859 18.5938C255.203 19.4062 255.677 20.1146 256.281 20.7188C256.885 21.3229 257.594 21.7969 258.406 22.1406C259.219 22.4948 260.083 22.6719 261 22.6719C261.917 22.6719 262.781 22.4948 263.594 22.1406C264.406 21.7969 265.115 21.3229 265.719 20.7188C266.323 20.1146 266.797 19.4062 267.141 18.5938C267.495 17.7812 267.672 16.9167 267.672 16C267.672 15.0833 267.495 14.2188 267.141 13.4062C266.797 12.5938 266.323 11.8854 265.719 11.2812C265.115 10.6771 264.406 10.2031 263.594 9.85938C262.781 9.50521 261.917 9.32812 261 9.32812ZM258.328 19.3281C258.234 19.3281 258.146 19.3125 258.062 19.2812C257.99 19.25 257.922 19.2031 257.859 19.1406C257.797 19.0781 257.75 19.0052 257.719 18.9219C257.688 18.8385 257.672 18.7552 257.672 18.6719C257.672 18.5781 257.688 18.4896 257.719 18.4062C257.75 18.3229 257.797 18.2552 257.859 18.2031L263.203 12.8594C263.255 12.8073 263.318 12.7656 263.391 12.7344C263.474 12.7031 263.562 12.6875 263.656 12.6875C263.833 12.6875 263.984 12.7552 264.109 12.8906C264.245 13.0156 264.312 13.1667 264.312 13.3438C264.312 13.4375 264.297 13.526 264.266 13.6094C264.234 13.6823 264.193 13.75 264.141 13.8125V13.7969L258.797 19.1406C258.745 19.2031 258.677 19.25 258.594 19.2812C258.51 19.3125 258.427 19.3281 258.344 19.3281C258.333 19.3281 258.328 19.3281 258.328 19.3281ZM263.672 19.3281C263.672 19.3281 263.667 19.3281 263.656 19.3281C263.573 19.3281 263.49 19.3125 263.406 19.2812C263.323 19.25 263.255 19.2031 263.203 19.1406L257.859 13.7969C257.807 13.7448 257.766 13.6823 257.734 13.6094C257.703 13.526 257.688 13.4375 257.688 13.3438C257.688 13.1667 257.75 13.0156 257.875 12.8906C258.01 12.7552 258.167 12.6875 258.344 12.6875C258.438 12.6875 258.521 12.7031 258.594 12.7344C258.677 12.7656 258.75 12.8073 258.812 12.8594H258.797L264.141 18.2031C264.203 18.2552 264.25 18.3229 264.281 18.4062C264.312 18.4896 264.328 18.5781 264.328 18.6719C264.328 18.7552 264.312 18.8385 264.281 18.9219C264.25 19.0052 264.203 19.0781 264.141 19.1406C264.078 19.2031 264.005 19.25 263.922 19.2812C263.849 19.3125 263.766 19.3281 263.672 19.3281Z" fill="#212121"/>
<rect x="14" y="9" width="14" height="14" rx="2" fill="#212121"/>
</svg>
