<svg width="283" height="132" viewBox="0 0 283 132" fill="none" xmlns="http://www.w3.org/2000/svg">
<rect x="1" y="1" width="281" height="130" rx="3" fill="#F5F7F8" stroke="#BBC7CD" stroke-width="2"/>
<g filter="url(#filter0_d)">
<rect x="110" y="40" width="64" height="68" fill="white"/>
</g>
<g filter="url(#filter1_d)">
<rect x="130" y="46" width="24" height="24" rx="12" fill="#F57C00"/>
</g>
<rect x="131" y="86" width="22" height="3" rx="1.5" fill="#BBC7CD"/>
<rect x="136" y="94" width="5" height="5" rx="2.5" fill="#BBC7CD"/>
<rect x="143" y="94" width="5" height="5" rx="2.5" fill="#BBC7CD"/>
<rect x="125" y="78" width="34" height="4" rx="2" fill="#263238"/>
<g filter="url(#filter2_d)">
<path d="M142 58.1074C141.535 58.1074 141.098 58.0163 140.688 57.834C140.268 57.6608 139.904 57.4193 139.594 57.1094C139.293 56.7995 139.056 56.4395 138.883 56.0293C138.701 55.6191 138.609 55.1816 138.609 54.7168C138.609 54.2428 138.701 53.8008 138.883 53.3906C139.056 52.9805 139.293 52.625 139.594 52.3242C139.904 52.0143 140.268 51.7728 140.688 51.5996C141.098 51.4173 141.535 51.3262 142 51.3262C142.465 51.3262 142.902 51.4173 143.312 51.5996C143.732 51.7728 144.092 52.0143 144.393 52.3242C144.702 52.625 144.944 52.9805 145.117 53.3906C145.299 53.8008 145.391 54.2428 145.391 54.7168C145.391 55.1816 145.299 55.6191 145.117 56.0293C144.944 56.4395 144.702 56.7995 144.393 57.1094C144.092 57.4193 143.732 57.6608 143.312 57.834C142.902 58.0163 142.465 58.1074 142 58.1074ZM142 52.6797C141.435 52.6797 140.952 52.8802 140.551 53.2812C140.159 53.6732 139.963 54.1517 139.963 54.7168C139.963 55.2728 140.159 55.7513 140.551 56.1523C140.952 56.5443 141.435 56.7402 142 56.7402C142.565 56.7402 143.044 56.5443 143.436 56.1523C143.837 55.7513 144.037 55.2728 144.037 54.7168C144.037 54.1517 143.837 53.6732 143.436 53.2812C143.044 52.8802 142.565 52.6797 142 52.6797ZM148.316 64.4238C148.134 64.4238 147.975 64.3555 147.838 64.2188C147.71 64.0911 147.646 63.9316 147.646 63.7402C147.646 63.3027 147.574 62.9017 147.428 62.5371C147.273 62.1816 146.99 61.8763 146.58 61.6211C146.17 61.3659 145.596 61.1654 144.857 61.0195C144.128 60.8828 143.176 60.8145 142 60.8145C140.824 60.8145 139.872 60.8828 139.143 61.0195C138.404 61.1654 137.83 61.3659 137.42 61.6211C137.01 61.8763 136.727 62.1816 136.572 62.5371C136.426 62.9017 136.354 63.3027 136.354 63.7402C136.354 63.9316 136.285 64.0911 136.148 64.2188C136.021 64.3555 135.866 64.4238 135.684 64.4238C135.492 64.4238 135.328 64.3555 135.191 64.2188C135.064 64.0911 135 63.9316 135 63.7402C135 62.6738 135.264 61.849 135.793 61.2656C136.331 60.6823 136.969 60.2585 137.707 59.9941C138.454 59.7207 139.225 59.5658 140.018 59.5293C140.82 59.4837 141.48 59.4609 142 59.4609C142.52 59.4609 143.18 59.4837 143.982 59.5293C144.775 59.5658 145.541 59.7207 146.279 59.9941C147.027 60.2585 147.669 60.6823 148.207 61.2656C148.736 61.849 149 62.6738 149 63.7402C149 63.9316 148.932 64.0911 148.795 64.2188C148.667 64.3555 148.508 64.4238 148.316 64.4238Z" fill="white"/>
</g>
<g filter="url(#filter3_d)">
<rect x="32" y="40" width="64" height="68" fill="white"/>
</g>
<g filter="url(#filter4_d)">
<rect x="52" y="46" width="24" height="24" rx="12" fill="#00BCD4"/>
</g>
<rect x="53" y="86" width="22" height="3" rx="1.5" fill="#BBC7CD"/>
<rect x="58" y="94" width="5" height="5" rx="2.5" fill="#BBC7CD"/>
<rect x="65" y="94" width="5" height="5" rx="2.5" fill="#BBC7CD"/>
<rect x="47" y="78" width="34" height="4" rx="2" fill="#263238"/>
<g filter="url(#filter5_d)">
<path d="M64 58.1074C63.5352 58.1074 63.0977 58.0163 62.6875 57.834C62.2682 57.6608 61.9036 57.4193 61.5938 57.1094C61.293 56.7995 61.056 56.4395 60.8828 56.0293C60.7005 55.6191 60.6094 55.1816 60.6094 54.7168C60.6094 54.2428 60.7005 53.8008 60.8828 53.3906C61.056 52.9805 61.293 52.625 61.5938 52.3242C61.9036 52.0143 62.2682 51.7728 62.6875 51.5996C63.0977 51.4173 63.5352 51.3262 64 51.3262C64.4648 51.3262 64.9023 51.4173 65.3125 51.5996C65.7318 51.7728 66.0918 52.0143 66.3926 52.3242C66.7025 52.625 66.944 52.9805 67.1172 53.3906C67.2995 53.8008 67.3906 54.2428 67.3906 54.7168C67.3906 55.1816 67.2995 55.6191 67.1172 56.0293C66.944 56.4395 66.7025 56.7995 66.3926 57.1094C66.0918 57.4193 65.7318 57.6608 65.3125 57.834C64.9023 58.0163 64.4648 58.1074 64 58.1074ZM64 52.6797C63.4349 52.6797 62.9518 52.8802 62.5508 53.2812C62.1589 53.6732 61.9629 54.1517 61.9629 54.7168C61.9629 55.2728 62.1589 55.7513 62.5508 56.1523C62.9518 56.5443 63.4349 56.7402 64 56.7402C64.5651 56.7402 65.0436 56.5443 65.4355 56.1523C65.8366 55.7513 66.0371 55.2728 66.0371 54.7168C66.0371 54.1517 65.8366 53.6732 65.4355 53.2812C65.0436 52.8802 64.5651 52.6797 64 52.6797ZM70.3164 64.4238C70.1341 64.4238 69.9746 64.3555 69.8379 64.2188C69.7103 64.0911 69.6465 63.9316 69.6465 63.7402C69.6465 63.3027 69.5736 62.9017 69.4277 62.5371C69.2728 62.1816 68.9902 61.8763 68.5801 61.6211C68.1699 61.3659 67.5957 61.1654 66.8574 61.0195C66.1283 60.8828 65.1758 60.8145 64 60.8145C62.8242 60.8145 61.8717 60.8828 61.1426 61.0195C60.4043 61.1654 59.8301 61.3659 59.4199 61.6211C59.0098 61.8763 58.7272 62.1816 58.5723 62.5371C58.4264 62.9017 58.3535 63.3027 58.3535 63.7402C58.3535 63.9316 58.2852 64.0911 58.1484 64.2188C58.0208 64.3555 57.8659 64.4238 57.6836 64.4238C57.4922 64.4238 57.3281 64.3555 57.1914 64.2188C57.0638 64.0911 57 63.9316 57 63.7402C57 62.6738 57.2643 61.849 57.793 61.2656C58.3307 60.6823 58.9688 60.2585 59.707 59.9941C60.4544 59.7207 61.2246 59.5658 62.0176 59.5293C62.8197 59.4837 63.4805 59.4609 64 59.4609C64.5195 59.4609 65.1803 59.4837 65.9824 59.5293C66.7754 59.5658 67.541 59.7207 68.2793 59.9941C69.0267 60.2585 69.6693 60.6823 70.207 61.2656C70.7357 61.849 71 62.6738 71 63.7402C71 63.9316 70.9316 64.0911 70.7949 64.2188C70.6673 64.3555 70.5078 64.4238 70.3164 64.4238Z" fill="white"/>
</g>
<g filter="url(#filter6_d)">
<rect x="188" y="40" width="64" height="68" fill="white"/>
</g>
<g filter="url(#filter7_d)">
<rect x="208" y="46" width="24" height="24" rx="12" fill="#FBC02D"/>
</g>
<rect x="209" y="86" width="22" height="3" rx="1.5" fill="#BBC7CD"/>
<rect x="214" y="94" width="5" height="5" rx="2.5" fill="#BBC7CD"/>
<rect x="221" y="94" width="5" height="5" rx="2.5" fill="#BBC7CD"/>
<rect x="203" y="78" width="34" height="4" rx="2" fill="#263238"/>
<g filter="url(#filter8_d)">
<path d="M220 58.1074C219.535 58.1074 219.098 58.0163 218.688 57.834C218.268 57.6608 217.904 57.4193 217.594 57.1094C217.293 56.7995 217.056 56.4395 216.883 56.0293C216.701 55.6191 216.609 55.1816 216.609 54.7168C216.609 54.2428 216.701 53.8008 216.883 53.3906C217.056 52.9805 217.293 52.625 217.594 52.3242C217.904 52.0143 218.268 51.7728 218.688 51.5996C219.098 51.4173 219.535 51.3262 220 51.3262C220.465 51.3262 220.902 51.4173 221.312 51.5996C221.732 51.7728 222.092 52.0143 222.393 52.3242C222.702 52.625 222.944 52.9805 223.117 53.3906C223.299 53.8008 223.391 54.2428 223.391 54.7168C223.391 55.1816 223.299 55.6191 223.117 56.0293C222.944 56.4395 222.702 56.7995 222.393 57.1094C222.092 57.4193 221.732 57.6608 221.312 57.834C220.902 58.0163 220.465 58.1074 220 58.1074ZM220 52.6797C219.435 52.6797 218.952 52.8802 218.551 53.2812C218.159 53.6732 217.963 54.1517 217.963 54.7168C217.963 55.2728 218.159 55.7513 218.551 56.1523C218.952 56.5443 219.435 56.7402 220 56.7402C220.565 56.7402 221.044 56.5443 221.436 56.1523C221.837 55.7513 222.037 55.2728 222.037 54.7168C222.037 54.1517 221.837 53.6732 221.436 53.2812C221.044 52.8802 220.565 52.6797 220 52.6797ZM226.316 64.4238C226.134 64.4238 225.975 64.3555 225.838 64.2188C225.71 64.0911 225.646 63.9316 225.646 63.7402C225.646 63.3027 225.574 62.9017 225.428 62.5371C225.273 62.1816 224.99 61.8763 224.58 61.6211C224.17 61.3659 223.596 61.1654 222.857 61.0195C222.128 60.8828 221.176 60.8145 220 60.8145C218.824 60.8145 217.872 60.8828 217.143 61.0195C216.404 61.1654 215.83 61.3659 215.42 61.6211C215.01 61.8763 214.727 62.1816 214.572 62.5371C214.426 62.9017 214.354 63.3027 214.354 63.7402C214.354 63.9316 214.285 64.0911 214.148 64.2188C214.021 64.3555 213.866 64.4238 213.684 64.4238C213.492 64.4238 213.328 64.3555 213.191 64.2188C213.064 64.0911 213 63.9316 213 63.7402C213 62.6738 213.264 61.849 213.793 61.2656C214.331 60.6823 214.969 60.2585 215.707 59.9941C216.454 59.7207 217.225 59.5658 218.018 59.5293C218.82 59.4837 219.48 59.4609 220 59.4609C220.52 59.4609 221.18 59.4837 221.982 59.5293C222.775 59.5658 223.541 59.7207 224.279 59.9941C225.027 60.2585 225.669 60.6823 226.207 61.2656C226.736 61.849 227 62.6738 227 63.7402C227 63.9316 226.932 64.0911 226.795 64.2188C226.667 64.3555 226.508 64.4238 226.316 64.4238Z" fill="white"/>
</g>
<rect x="89" y="24" width="105" height="4" rx="2" fill="#BBC7CD"/>
<rect x="110" y="12" width="64" height="4" rx="2" fill="#263238"/>
<defs>
<filter id="filter0_d" x="108" y="40" width="68" height="72" filterUnits="userSpaceOnUse" color-interpolation-filters="sRGB">
<feFlood flood-opacity="0" result="BackgroundImageFix"/>
<feColorMatrix in="SourceAlpha" type="matrix" values="0 0 0 0 0 0 0 0 0 0 0 0 0 0 0 0 0 0 127 0"/>
<feOffset dy="2"/>
<feGaussianBlur stdDeviation="1"/>
<feColorMatrix type="matrix" values="0 0 0 0 0 0 0 0 0 0 0 0 0 0 0 0 0 0 0.03 0"/>
<feBlend mode="normal" in2="BackgroundImageFix" result="effect1_dropShadow"/>
<feBlend mode="normal" in="SourceGraphic" in2="effect1_dropShadow" result="shape"/>
</filter>
<filter id="filter1_d" x="128" y="46" width="28" height="28" filterUnits="userSpaceOnUse" color-interpolation-filters="sRGB">
<feFlood flood-opacity="0" result="BackgroundImageFix"/>
<feColorMatrix in="SourceAlpha" type="matrix" values="0 0 0 0 0 0 0 0 0 0 0 0 0 0 0 0 0 0 127 0"/>
<feOffset dy="2"/>
<feGaussianBlur stdDeviation="1"/>
<feColorMatrix type="matrix" values="0 0 0 0 0 0 0 0 0 0 0 0 0 0 0 0 0 0 0.03 0"/>
<feBlend mode="normal" in2="BackgroundImageFix" result="effect1_dropShadow"/>
<feBlend mode="normal" in="SourceGraphic" in2="effect1_dropShadow" result="shape"/>
</filter>
<filter id="filter2_d" x="134.5" y="51.3262" width="14.5" height="13.5977" filterUnits="userSpaceOnUse" color-interpolation-filters="sRGB">
<feFlood flood-opacity="0" result="BackgroundImageFix"/>
<feColorMatrix in="SourceAlpha" type="matrix" values="0 0 0 0 0 0 0 0 0 0 0 0 0 0 0 0 0 0 127 0"/>
<feOffset dx="-0.5" dy="0.5"/>
<feColorMatrix type="matrix" values="0 0 0 0 0 0 0 0 0 0 0 0 0 0 0 0 0 0 0.15 0"/>
<feBlend mode="normal" in2="BackgroundImageFix" result="effect1_dropShadow"/>
<feBlend mode="normal" in="SourceGraphic" in2="effect1_dropShadow" result="shape"/>
</filter>
<filter id="filter3_d" x="30" y="40" width="68" height="72" filterUnits="userSpaceOnUse" color-interpolation-filters="sRGB">
<feFlood flood-opacity="0" result="BackgroundImageFix"/>
<feColorMatrix in="SourceAlpha" type="matrix" values="0 0 0 0 0 0 0 0 0 0 0 0 0 0 0 0 0 0 127 0"/>
<feOffset dy="2"/>
<feGaussianBlur stdDeviation="1"/>
<feColorMatrix type="matrix" values="0 0 0 0 0 0 0 0 0 0 0 0 0 0 0 0 0 0 0.03 0"/>
<feBlend mode="normal" in2="BackgroundImageFix" result="effect1_dropShadow"/>
<feBlend mode="normal" in="SourceGraphic" in2="effect1_dropShadow" result="shape"/>
</filter>
<filter id="filter4_d" x="50" y="46" width="28" height="28" filterUnits="userSpaceOnUse" color-interpolation-filters="sRGB">
<feFlood flood-opacity="0" result="BackgroundImageFix"/>
<feColorMatrix in="SourceAlpha" type="matrix" values="0 0 0 0 0 0 0 0 0 0 0 0 0 0 0 0 0 0 127 0"/>
<feOffset dy="2"/>
<feGaussianBlur stdDeviation="1"/>
<feColorMatrix type="matrix" values="0 0 0 0 0 0 0 0 0 0 0 0 0 0 0 0 0 0 0.03 0"/>
<feBlend mode="normal" in2="BackgroundImageFix" result="effect1_dropShadow"/>
<feBlend mode="normal" in="SourceGraphic" in2="effect1_dropShadow" result="shape"/>
</filter>
<filter id="filter5_d" x="56.5" y="51.3262" width="14.5" height="13.5977" filterUnits="userSpaceOnUse" color-interpolation-filters="sRGB">
<feFlood flood-opacity="0" result="BackgroundImageFix"/>
<feColorMatrix in="SourceAlpha" type="matrix" values="0 0 0 0 0 0 0 0 0 0 0 0 0 0 0 0 0 0 127 0"/>
<feOffset dx="-0.5" dy="0.5"/>
<feColorMatrix type="matrix" values="0 0 0 0 0 0 0 0 0 0 0 0 0 0 0 0 0 0 0.15 0"/>
<feBlend mode="normal" in2="BackgroundImageFix" result="effect1_dropShadow"/>
<feBlend mode="normal" in="SourceGraphic" in2="effect1_dropShadow" result="shape"/>
</filter>
<filter id="filter6_d" x="186" y="40" width="68" height="72" filterUnits="userSpaceOnUse" color-interpolation-filters="sRGB">
<feFlood flood-opacity="0" result="BackgroundImageFix"/>
<feColorMatrix in="SourceAlpha" type="matrix" values="0 0 0 0 0 0 0 0 0 0 0 0 0 0 0 0 0 0 127 0"/>
<feOffset dy="2"/>
<feGaussianBlur stdDeviation="1"/>
<feColorMatrix type="matrix" values="0 0 0 0 0 0 0 0 0 0 0 0 0 0 0 0 0 0 0.03 0"/>
<feBlend mode="normal" in2="BackgroundImageFix" result="effect1_dropShadow"/>
<feBlend mode="normal" in="SourceGraphic" in2="effect1_dropShadow" result="shape"/>
</filter>
<filter id="filter7_d" x="206" y="46" width="28" height="28" filterUnits="userSpaceOnUse" color-interpolation-filters="sRGB">
<feFlood flood-opacity="0" result="BackgroundImageFix"/>
<feColorMatrix in="SourceAlpha" type="matrix" values="0 0 0 0 0 0 0 0 0 0 0 0 0 0 0 0 0 0 127 0"/>
<feOffset dy="2"/>
<feGaussianBlur stdDeviation="1"/>
<feColorMatrix type="matrix" values="0 0 0 0 0 0 0 0 0 0 0 0 0 0 0 0 0 0 0.03 0"/>
<feBlend mode="normal" in2="BackgroundImageFix" result="effect1_dropShadow"/>
<feBlend mode="normal" in="SourceGraphic" in2="effect1_dropShadow" result="shape"/>
</filter>
<filter id="filter8_d" x="212.5" y="51.3262" width="14.5" height="13.5977" filterUnits="userSpaceOnUse" color-interpolation-filters="sRGB">
<feFlood flood-opacity="0" result="BackgroundImageFix"/>
<feColorMatrix in="SourceAlpha" type="matrix" values="0 0 0 0 0 0 0 0 0 0 0 0 0 0 0 0 0 0 127 0"/>
<feOffset dx="-0.5" dy="0.5"/>
<feColorMatrix type="matrix" values="0 0 0 0 0 0 0 0 0 0 0 0 0 0 0 0 0 0 0.15 0"/>
<feBlend mode="normal" in2="BackgroundImageFix" result="effect1_dropShadow"/>
<feBlend mode="normal" in="SourceGraphic" in2="effect1_dropShadow" result="shape"/>
</filter>
</defs>
</svg>
