<svg width="283" height="134" viewBox="0 0 283 134" fill="none" xmlns="http://www.w3.org/2000/svg">
<rect width="283" height="132" rx="4" fill="white" fill-opacity="0.15"/>
<rect x="1" y="1" width="281" height="130" rx="3" stroke="#BBC7CD" stroke-opacity="0.5" stroke-width="2"/>
<g filter="url(#filter0_d)">
<rect x="2" y="75" width="279" height="55" fill="#212121"/>
</g>
<rect x="211" y="97" width="10" height="10" rx="5" fill="#BBC7CD"/>
<rect x="229" y="97" width="10" height="10" rx="5" fill="#BBC7CD"/>
<rect x="247" y="97" width="10" height="10" rx="5" fill="#BBC7CD"/>
<rect x="26" y="98" width="18" height="3" rx="1.5" fill="#BBC7CD"/>
<rect x="26" y="105" width="22" height="3" rx="1.5" fill="#BBC7CD"/>
<rect x="26" y="113" width="14" height="3" rx="1.5" fill="#BBC7CD"/>
<rect x="26" y="88" width="28" height="4" rx="2" fill="white"/>
<rect x="82" y="98" width="22" height="3" rx="1.5" fill="#BBC7CD"/>
<rect x="82" y="105" width="16" height="3" rx="1.5" fill="#BBC7CD"/>
<rect x="82" y="113" width="20" height="3" rx="1.5" fill="#BBC7CD"/>
<rect x="82" y="88" width="30" height="4" rx="2" fill="white"/>
<rect x="138" y="98" width="27" height="3" rx="1.5" fill="#BBC7CD"/>
<rect x="138" y="105" width="29" height="3" rx="1.5" fill="#BBC7CD"/>
<rect x="138" y="113" width="16" height="3" rx="1.5" fill="#BBC7CD"/>
<rect x="138" y="88" width="31" height="4" rx="2" fill="white"/>
<defs>
<filter id="filter0_d" x="0" y="75" width="283" height="59" filterUnits="userSpaceOnUse" color-interpolation-filters="sRGB">
<feFlood flood-opacity="0" result="BackgroundImageFix"/>
<feColorMatrix in="SourceAlpha" type="matrix" values="0 0 0 0 0 0 0 0 0 0 0 0 0 0 0 0 0 0 127 0"/>
<feOffset dy="2"/>
<feGaussianBlur stdDeviation="1"/>
<feColorMatrix type="matrix" values="0 0 0 0 0 0 0 0 0 0 0 0 0 0 0 0 0 0 0.03 0"/>
<feBlend mode="normal" in2="BackgroundImageFix" result="effect1_dropShadow"/>
<feBlend mode="normal" in="SourceGraphic" in2="effect1_dropShadow" result="shape"/>
</filter>
</defs>
</svg>
