<svg width="283" height="133" viewBox="0 0 283 133" fill="none" xmlns="http://www.w3.org/2000/svg">
<rect y="0.443359" width="283" height="132" rx="4" fill="white" fill-opacity="0.15"/>
<rect x="1" y="1.44336" width="281" height="130" rx="3" stroke="#BBC7CD" stroke-opacity="0.5" stroke-width="2"/>
<g filter="url(#filter0_d)">
<rect x="2" y="54.4434" width="279" height="25" fill="#212121"/>
</g>
<rect x="78" y="65.4434" width="32" height="3" rx="1.5" fill="#BBC7CD"/>
<rect x="148" y="65.4434" width="32" height="3" rx="1.5" fill="white"/>
<path d="M39.4102 67.1133C39.3372 67.1133 39.2689 67.1042 39.2051 67.0859C39.1504 67.0677 39.0957 67.0358 39.041 66.9902V67.0039L32.998 62.4648L26.9551 67.0039C26.9004 67.0404 26.8411 67.0677 26.7773 67.0859C26.7227 67.1042 26.6589 67.1133 26.5859 67.1133C26.4219 67.1133 26.2806 67.0586 26.1621 66.9492C26.0436 66.8307 25.9844 66.6849 25.9844 66.5117C25.9844 66.4206 26.0072 66.334 26.0527 66.252C26.0983 66.1608 26.1576 66.0879 26.2305 66.0332L32.6426 61.2344C32.6882 61.1979 32.7428 61.1706 32.8066 61.1523C32.8704 61.125 32.9342 61.1113 32.998 61.1113C33.0618 61.1113 33.1257 61.125 33.1895 61.1523C33.2533 61.1706 33.3079 61.1979 33.3535 61.2344L39.7656 66.0332C39.8385 66.0879 39.8932 66.1562 39.9297 66.2383C39.9661 66.3203 39.9844 66.4069 39.9844 66.498C39.9844 66.5618 39.9753 66.6257 39.957 66.6895C39.9388 66.7441 39.916 66.7943 39.8887 66.8398C39.834 66.9219 39.7656 66.9902 39.6836 67.0449C39.6016 67.0905 39.5104 67.1133 39.4102 67.1133ZM37.8105 73.5254H28.1855C28.0215 73.5254 27.8802 73.4661 27.7617 73.3477C27.6523 73.2292 27.5977 73.0879 27.5977 72.9238V65.3223C27.5977 65.1491 27.6523 65.0078 27.7617 64.8984C27.8802 64.7799 28.0215 64.7207 28.1855 64.7207C28.3587 64.7207 28.5 64.7799 28.6094 64.8984C28.7279 65.0078 28.7871 65.1491 28.7871 65.3223V72.3223H37.209V65.3223C37.209 65.1491 37.2637 65.0078 37.373 64.8984C37.4915 64.7799 37.6374 64.7207 37.8105 64.7207C37.9746 64.7207 38.1113 64.7799 38.2207 64.8984C38.3392 65.0078 38.3984 65.1491 38.3984 65.3223V72.9238C38.3984 73.0879 38.3392 73.2292 38.2207 73.3477C38.1113 73.4661 37.9746 73.5254 37.8105 73.5254ZM34.5977 73.5254C34.4336 73.5254 34.2923 73.4661 34.1738 73.3477C34.0553 73.2292 33.9961 73.0879 33.9961 72.9238V67.9199H32V72.9238C32 73.0879 31.9408 73.2292 31.8223 73.3477C31.7038 73.4661 31.5625 73.5254 31.3984 73.5254C31.2344 73.5254 31.0931 73.4661 30.9746 73.3477C30.8561 73.2292 30.7969 73.0879 30.7969 72.9238V67.3184C30.7969 67.1543 30.8561 67.013 30.9746 66.8945C31.0931 66.776 31.2344 66.7168 31.3984 66.7168H34.5977C34.7617 66.7168 34.903 66.776 35.0215 66.8945C35.14 67.013 35.1992 67.1543 35.1992 67.3184V72.9238C35.1992 73.0879 35.14 73.2292 35.0215 73.3477C34.903 73.4661 34.7617 73.5254 34.5977 73.5254Z" fill="#BBC7CD"/>
<path d="M57.168 71.7754C57.0586 71.7663 56.9538 71.7389 56.8535 71.6934C56.7624 71.6478 56.6803 71.5885 56.6074 71.5156C56.5345 71.4427 56.4753 71.3607 56.4297 71.2695C56.3932 71.1693 56.375 71.0645 56.375 70.9551C56.375 70.8457 56.3932 70.7454 56.4297 70.6543C56.4753 70.554 56.5345 70.4674 56.6074 70.3945L59.752 67.25L56.6074 64.1055C56.5892 64.0599 56.5755 64.0143 56.5664 63.9688C56.5573 63.9141 56.5527 63.8594 56.5527 63.8047C56.5527 63.5951 56.6302 63.4128 56.7852 63.2578C56.9401 63.1029 57.1224 63.0254 57.332 63.0254C57.4049 63.0254 57.4733 63.0345 57.5371 63.0527C57.6009 63.071 57.6647 63.0938 57.7285 63.1211H57.7148L61.3926 66.7988C61.4655 66.8626 61.5202 66.9447 61.5566 67.0449C61.6022 67.1361 61.625 67.2363 61.625 67.3457C61.625 67.4551 61.6022 67.5599 61.5566 67.6602C61.5202 67.7513 61.4655 67.8333 61.3926 67.9062L57.7148 71.5156C57.651 71.5885 57.569 71.6478 57.4688 71.6934C57.3776 71.7389 57.2773 71.7663 57.168 71.7754Z" fill="#BBC7CD"/>
<path d="M127.168 71.7754C127.059 71.7663 126.954 71.7389 126.854 71.6934C126.762 71.6478 126.68 71.5885 126.607 71.5156C126.535 71.4427 126.475 71.3607 126.43 71.2695C126.393 71.1693 126.375 71.0645 126.375 70.9551C126.375 70.8457 126.393 70.7454 126.43 70.6543C126.475 70.554 126.535 70.4674 126.607 70.3945L129.752 67.25L126.607 64.1055C126.589 64.0599 126.576 64.0143 126.566 63.9688C126.557 63.9141 126.553 63.8594 126.553 63.8047C126.553 63.5951 126.63 63.4128 126.785 63.2578C126.94 63.1029 127.122 63.0254 127.332 63.0254C127.405 63.0254 127.473 63.0345 127.537 63.0527C127.601 63.071 127.665 63.0938 127.729 63.1211H127.715L131.393 66.7988C131.465 66.8626 131.52 66.9447 131.557 67.0449C131.602 67.1361 131.625 67.2363 131.625 67.3457C131.625 67.4551 131.602 67.5599 131.557 67.6602C131.52 67.7513 131.465 67.8333 131.393 67.9062L127.715 71.5156C127.651 71.5885 127.569 71.6478 127.469 71.6934C127.378 71.7389 127.277 71.7663 127.168 71.7754Z" fill="#BBC7CD"/>
<defs>
<filter id="filter0_d" x="0" y="54.4434" width="283" height="29" filterUnits="userSpaceOnUse" color-interpolation-filters="sRGB">
<feFlood flood-opacity="0" result="BackgroundImageFix"/>
<feColorMatrix in="SourceAlpha" type="matrix" values="0 0 0 0 0 0 0 0 0 0 0 0 0 0 0 0 0 0 127 0"/>
<feOffset dy="2"/>
<feGaussianBlur stdDeviation="1"/>
<feColorMatrix type="matrix" values="0 0 0 0 0 0 0 0 0 0 0 0 0 0 0 0 0 0 0.03 0"/>
<feBlend mode="normal" in2="BackgroundImageFix" result="effect1_dropShadow"/>
<feBlend mode="normal" in="SourceGraphic" in2="effect1_dropShadow" result="shape"/>
</filter>
</defs>
</svg>
