<svg width="283" height="133" viewBox="0 0 283 133" fill="none" xmlns="http://www.w3.org/2000/svg">
<g clip-path="url(#clip0)">
<rect y="0.00634766" width="283" height="132" rx="4" fill="white" fill-opacity="0.15"/>
<rect x="1" y="1.00635" width="281" height="130" rx="3" stroke="#BBC7CD" stroke-opacity="0.5" stroke-width="2"/>
<rect x="113" y="99.0063" width="57" height="10" rx="5" fill="#BBC7CD"/>
<rect x="132" y="103.006" width="20" height="2" rx="1" fill="#263238"/>
<rect x="114" y="73.0063" width="55" height="3" rx="1.5" fill="white"/>
<rect x="124" y="84.0063" width="36" height="3" rx="1.5" fill="#BBC7CD"/>
<path d="M132.616 52.3182V49.4862C132.616 49.1742 132.448 49.0062 132.136 49.0062H130.048C129.736 49.0062 129.568 49.1742 129.568 49.4862V52.3662H125.92L131.944 42.3822C132.16 42.0462 132.016 41.8062 131.632 41.8062H129.112C128.848 41.8062 128.656 41.9022 128.536 42.1182L122.368 52.1022C122.248 52.2942 122.2 52.4622 122.2 52.6782V54.8142C122.2 55.1262 122.368 55.2942 122.68 55.2942H129.568V60.5262C129.568 60.8382 129.736 61.0062 130.048 61.0062H132.136C132.448 61.0062 132.616 60.8382 132.616 60.5262V55.3422H133.6C133.912 55.3422 134.08 55.1742 134.08 54.8622V52.7982C134.08 52.4862 133.912 52.3182 133.6 52.3182H132.616Z" fill="white"/>
<path d="M136.473 57.5502C136.473 59.8062 137.673 61.0062 139.929 61.0062H142.617C144.873 61.0062 146.073 59.8062 146.073 57.5502V45.2622C146.073 43.0062 144.873 41.8062 142.617 41.8062H139.929C137.673 41.8062 136.473 43.0062 136.473 45.2622V57.5502ZM140.625 57.9102C140.001 57.9102 139.665 57.5982 139.665 56.9502V45.8622C139.665 45.2382 140.001 44.9022 140.625 44.9022H142.017C142.641 44.9022 142.977 45.2382 142.977 45.8622V56.9502C142.977 57.5982 142.641 57.9102 142.017 57.9102H140.625Z" fill="white"/>
<path d="M158.889 52.3182V49.4862C158.889 49.1742 158.721 49.0062 158.409 49.0062H156.321C156.009 49.0062 155.841 49.1742 155.841 49.4862V52.3662H152.193L158.217 42.3822C158.433 42.0462 158.289 41.8062 157.905 41.8062H155.385C155.121 41.8062 154.929 41.9022 154.809 42.1182L148.641 52.1022C148.521 52.2942 148.473 52.4622 148.473 52.6782V54.8142C148.473 55.1262 148.641 55.2942 148.953 55.2942H155.841V60.5262C155.841 60.8382 156.009 61.0062 156.321 61.0062H158.409C158.721 61.0062 158.889 60.8382 158.889 60.5262V55.3422H159.873C160.185 55.3422 160.353 55.1742 160.353 54.8622V52.7982C160.353 52.4862 160.185 52.3182 159.873 52.3182H158.889Z" fill="white"/>
<g filter="url(#filter0_ddd)">
<path d="M2 4.00635C2 2.90178 2.89543 2.00635 4 2.00635H279C280.105 2.00635 281 2.90178 281 4.00635V26.0063H2V4.00635Z" fill="#212121"/>
</g>
<circle cx="25" cy="14.0063" r="5" fill="#F7F9F9"/>
<rect x="219" y="12.5063" width="16" height="3" rx="1.5" fill="#BBC7CD"/>
<rect x="247" y="12.5063" width="16" height="3" rx="1.5" fill="white"/>
</g>
<defs>
<filter id="filter0_ddd" x="-8" y="-3.99365" width="299" height="44" filterUnits="userSpaceOnUse" color-interpolation-filters="sRGB">
<feFlood flood-opacity="0" result="BackgroundImageFix"/>
<feColorMatrix in="SourceAlpha" type="matrix" values="0 0 0 0 0 0 0 0 0 0 0 0 0 0 0 0 0 0 127 0" result="hardAlpha"/>
<feOffset dy="2"/>
<feGaussianBlur stdDeviation="3"/>
<feColorMatrix type="matrix" values="0 0 0 0 0 0 0 0 0 0 0 0 0 0 0 0 0 0 0.12 0"/>
<feBlend mode="normal" in2="BackgroundImageFix" result="effect1_dropShadow"/>
<feColorMatrix in="SourceAlpha" type="matrix" values="0 0 0 0 0 0 0 0 0 0 0 0 0 0 0 0 0 0 127 0" result="hardAlpha"/>
<feOffset/>
<feGaussianBlur stdDeviation="1"/>
<feColorMatrix type="matrix" values="0 0 0 0 0 0 0 0 0 0 0 0 0 0 0 0 0 0 0.06 0"/>
<feBlend mode="normal" in2="effect1_dropShadow" result="effect2_dropShadow"/>
<feColorMatrix in="SourceAlpha" type="matrix" values="0 0 0 0 0 0 0 0 0 0 0 0 0 0 0 0 0 0 127 0" result="hardAlpha"/>
<feOffset dy="4"/>
<feGaussianBlur stdDeviation="5"/>
<feColorMatrix type="matrix" values="0 0 0 0 0 0 0 0 0 0 0 0 0 0 0 0 0 0 0.03 0"/>
<feBlend mode="normal" in2="effect2_dropShadow" result="effect3_dropShadow"/>
<feBlend mode="normal" in="SourceGraphic" in2="effect3_dropShadow" result="shape"/>
</filter>
<clipPath id="clip0">
<rect width="283" height="132" fill="white" transform="translate(0 0.00634766)"/>
</clipPath>
</defs>
</svg>
