<svg width="283" height="133" viewBox="0 0 283 133" fill="none" xmlns="http://www.w3.org/2000/svg">
<rect x="1" y="1.48999" width="281" height="130" rx="3" fill="white" stroke="#BBC7CD" stroke-width="2"/>
<rect x="57" y="17.49" width="35" height="3" rx="1.5" fill="#BBC7CD"/>
<rect x="57.75" y="29.24" width="70.5" height="8.5" rx="3.25" fill="#F7F9F9" stroke="#BBC7CD" stroke-width="1.5"/>
<rect x="57" y="55.49" width="24" height="3" rx="1.5" fill="#BBC7CD"/>
<rect x="57.75" y="67.24" width="70.5" height="8.5" rx="3.25" fill="#F7F9F9" stroke="#BBC7CD" stroke-width="1.5"/>
<rect x="57" y="93.49" width="48" height="3" rx="1.5" fill="#BBC7CD"/>
<rect x="57.75" y="105.24" width="70.5" height="8.5" rx="3.25" fill="#F7F9F9" stroke="#BBC7CD" stroke-width="1.5"/>
<rect x="153" y="17.49" width="27" height="3" rx="1.5" fill="#BBC7CD"/>
<rect x="153.75" y="29.24" width="70.5" height="8.5" rx="3.25" fill="#F7F9F9" stroke="#BBC7CD" stroke-width="1.5"/>
<rect x="153" y="55.49" width="35" height="3" rx="1.5" fill="#BBC7CD"/>
<rect x="153.75" y="67.24" width="70.5" height="8.5" rx="3.25" fill="#F7F9F9" stroke="#BBC7CD" stroke-width="1.5"/>
<rect x="153" y="93.49" width="32" height="3" rx="1.5" fill="#BBC7CD"/>
<rect x="153.75" y="105.24" width="70.5" height="8.5" rx="3.25" fill="#F7F9F9" stroke="#BBC7CD" stroke-width="1.5"/>
</svg>
