<svg width="283" height="133" viewBox="0 0 283 133" fill="none" xmlns="http://www.w3.org/2000/svg">
<rect x="1" y="1.88086" width="281" height="130" rx="3" fill="#ECEFF1" stroke="#BBC7CD" stroke-width="2"/>
<g filter="url(#filter0_ddd)">
<rect x="70" y="36.8809" width="144" height="60" rx="3" fill="white"/>
</g>
<rect x="176" y="78.8809" width="32" height="10" rx="5" fill="#263238"/>
<rect x="184" y="82.8809" width="16" height="2" rx="1" fill="#BBC7CD"/>
<rect x="176" y="78.8809" width="32" height="10" rx="5" fill="#263238"/>
<rect x="184" y="82.8809" width="16" height="2" rx="1" fill="#BBC7CD"/>
<rect x="138" y="78.8809" width="32" height="10" rx="5" fill="#263238"/>
<rect x="146" y="82.8809" width="16" height="2" rx="1" fill="#BBC7CD"/>
<rect x="138" y="78.8809" width="32" height="10" rx="5" fill="#BBC7CD"/>
<rect x="146" y="82.8809" width="16" height="2" rx="1" fill="#263238"/>
<path d="M202 54.6309C201.172 54.6309 200.395 54.4746 199.668 54.1621C198.934 53.8496 198.293 53.4238 197.746 52.8848C197.207 52.3379 196.781 51.6973 196.469 50.9629C196.156 50.2363 196 49.459 196 48.6309C196 47.8027 196.156 47.0254 196.469 46.2988C196.781 45.5645 197.207 44.9277 197.746 44.3887C198.293 43.8418 198.934 43.4121 199.668 43.0996C200.395 42.7871 201.172 42.6309 202 42.6309C202.828 42.6309 203.605 42.7871 204.332 43.0996C205.066 43.4121 205.703 43.8418 206.242 44.3887C206.789 44.9277 207.219 45.5645 207.531 46.2988C207.844 47.0254 208 47.8027 208 48.6309C208 49.459 207.844 50.2363 207.531 50.9629C207.219 51.6973 206.789 52.3379 206.242 52.8848C205.703 53.4238 205.066 53.8496 204.332 54.1621C203.605 54.4746 202.828 54.6309 202 54.6309ZM202 43.627C201.312 43.627 200.664 43.7598 200.055 44.0254C199.445 44.2832 198.914 44.6387 198.461 45.0918C198.008 45.5449 197.652 46.0762 197.395 46.6855C197.129 47.2949 196.996 47.9434 196.996 48.6309C196.996 49.3184 197.129 49.9668 197.395 50.5762C197.652 51.1855 198.008 51.7168 198.461 52.1699C198.914 52.623 199.445 52.9785 200.055 53.2363C200.664 53.502 201.312 53.6348 202 53.6348C202.688 53.6348 203.336 53.502 203.945 53.2363C204.555 52.9785 205.086 52.623 205.539 52.1699C205.992 51.7168 206.348 51.1855 206.605 50.5762C206.871 49.9668 207.004 49.3184 207.004 48.6309C207.004 47.9434 206.871 47.2949 206.605 46.6855C206.348 46.0762 205.992 45.5449 205.539 45.0918C205.086 44.6387 204.555 44.2832 203.945 44.0254C203.336 43.7598 202.688 43.627 202 43.627ZM199.996 51.127C199.926 51.127 199.859 51.1152 199.797 51.0918C199.742 51.0684 199.691 51.0332 199.645 50.9863C199.598 50.9395 199.562 50.8848 199.539 50.8223C199.516 50.7598 199.504 50.6973 199.504 50.6348C199.504 50.5645 199.516 50.498 199.539 50.4355C199.562 50.373 199.598 50.3223 199.645 50.2832L203.652 46.2754C203.691 46.2363 203.738 46.2051 203.793 46.1816C203.855 46.1582 203.922 46.1465 203.992 46.1465C204.125 46.1465 204.238 46.1973 204.332 46.2988C204.434 46.3926 204.484 46.5059 204.484 46.6387C204.484 46.709 204.473 46.7754 204.449 46.8379C204.426 46.8926 204.395 46.9434 204.355 46.9902V46.9785L200.348 50.9863C200.309 51.0332 200.258 51.0684 200.195 51.0918C200.133 51.1152 200.07 51.127 200.008 51.127C200 51.127 199.996 51.127 199.996 51.127ZM204.004 51.127C204.004 51.127 204 51.127 203.992 51.127C203.93 51.127 203.867 51.1152 203.805 51.0918C203.742 51.0684 203.691 51.0332 203.652 50.9863L199.645 46.9785C199.605 46.9395 199.574 46.8926 199.551 46.8379C199.527 46.7754 199.516 46.709 199.516 46.6387C199.516 46.5059 199.562 46.3926 199.656 46.2988C199.758 46.1973 199.875 46.1465 200.008 46.1465C200.078 46.1465 200.141 46.1582 200.195 46.1816C200.258 46.2051 200.312 46.2363 200.359 46.2754H200.348L204.355 50.2832C204.402 50.3223 204.438 50.373 204.461 50.4355C204.484 50.498 204.496 50.5645 204.496 50.6348C204.496 50.6973 204.484 50.7598 204.461 50.8223C204.438 50.8848 204.402 50.9395 204.355 50.9863C204.309 51.0332 204.254 51.0684 204.191 51.0918C204.137 51.1152 204.074 51.127 204.004 51.127Z" fill="#9CAEB7"/>
<rect x="82" y="44.8809" width="36" height="3" rx="1.5" fill="#263238"/>
<rect x="82" y="55.8809" width="77" height="3" rx="1.5" fill="#BBC7CD"/>
<rect x="82" y="64.8809" width="62" height="3" rx="1.5" fill="#BBC7CD"/>
<defs>
<filter id="filter0_ddd" x="60" y="27.8809" width="164" height="80" filterUnits="userSpaceOnUse" color-interpolation-filters="sRGB">
<feFlood flood-opacity="0" result="BackgroundImageFix"/>
<feColorMatrix in="SourceAlpha" type="matrix" values="0 0 0 0 0 0 0 0 0 0 0 0 0 0 0 0 0 0 127 0"/>
<feMorphology radius="1" operator="erode" in="SourceAlpha" result="effect1_dropShadow"/>
<feOffset dy="2"/>
<feGaussianBlur stdDeviation="2"/>
<feColorMatrix type="matrix" values="0 0 0 0 0 0 0 0 0 0 0 0 0 0 0 0 0 0 0.2 0"/>
<feBlend mode="normal" in2="BackgroundImageFix" result="effect1_dropShadow"/>
<feColorMatrix in="SourceAlpha" type="matrix" values="0 0 0 0 0 0 0 0 0 0 0 0 0 0 0 0 0 0 127 0"/>
<feOffset dy="4"/>
<feGaussianBlur stdDeviation="2.5"/>
<feColorMatrix type="matrix" values="0 0 0 0 0 0 0 0 0 0 0 0 0 0 0 0 0 0 0.14 0"/>
<feBlend mode="normal" in2="effect1_dropShadow" result="effect2_dropShadow"/>
<feColorMatrix in="SourceAlpha" type="matrix" values="0 0 0 0 0 0 0 0 0 0 0 0 0 0 0 0 0 0 127 0"/>
<feOffset dy="1"/>
<feGaussianBlur stdDeviation="5"/>
<feColorMatrix type="matrix" values="0 0 0 0 0 0 0 0 0 0 0 0 0 0 0 0 0 0 0.12 0"/>
<feBlend mode="normal" in2="effect2_dropShadow" result="effect3_dropShadow"/>
<feBlend mode="normal" in="SourceGraphic" in2="effect3_dropShadow" result="shape"/>
</filter>
</defs>
</svg>
