<svg width="283" height="132" viewBox="0 0 283 132" fill="none" xmlns="http://www.w3.org/2000/svg">
<g clip-path="url(#clip0)">
<rect x="1" y="1" width="281" height="130" rx="3" fill="#ECEFF1" stroke="#BBC7CD" stroke-width="2"/>
<g filter="url(#filter0_ddd)">
<path d="M2 4C2 2.89543 2.89543 2 4 2H279C280.105 2 281 2.89543 281 4V26H2V4Z" fill="white"/>
</g>
<rect x="52" y="12" width="16" height="3" rx="1.5" fill="#BBC7CD"/>
<rect x="16" y="34" width="24" height="3" rx="1.5" fill="#263238"/>
<rect x="80" y="12" width="16" height="3" rx="1.5" fill="#BBC7CD"/>
<rect x="108" y="12" width="16" height="3" rx="1.5" fill="#BBC7CD"/>
<rect x="136" y="12" width="16" height="3" rx="1.5" fill="#BBC7CD"/>
<rect x="164" y="12" width="16" height="3" rx="1.5" fill="#BBC7CD"/>
<g filter="url(#filter1_d)">
<path d="M16 48C16 46.3431 17.3431 45 19 45H264C265.657 45 267 46.3431 267 48V130H16V48Z" fill="white"/>
</g>
<circle cx="259" cy="14" r="6" fill="#F57C00"/>
<path d="M23.5372 9.13189C23.7066 8.71753 24.2934 8.71753 24.4628 9.13189L25.959 12.791C25.9761 12.8329 25.9988 12.8722 26.0265 12.908L28.4473 16.0333C28.7214 16.3872 28.4281 16.8953 27.9845 16.8349L24.0675 16.301C24.0227 16.2949 23.9773 16.2949 23.9325 16.301L20.0155 16.8349C19.5719 16.8953 19.2786 16.3872 19.5527 16.0333L21.9735 12.908C22.0012 12.8722 22.0239 12.8329 22.041 12.791L23.5372 9.13189Z" fill="#9CAEB7"/>
</g>
<defs>
<filter id="filter0_ddd" x="-8" y="-4" width="299" height="44" filterUnits="userSpaceOnUse" color-interpolation-filters="sRGB">
<feFlood flood-opacity="0" result="BackgroundImageFix"/>
<feColorMatrix in="SourceAlpha" type="matrix" values="0 0 0 0 0 0 0 0 0 0 0 0 0 0 0 0 0 0 127 0"/>
<feOffset dy="2"/>
<feGaussianBlur stdDeviation="3"/>
<feColorMatrix type="matrix" values="0 0 0 0 0 0 0 0 0 0 0 0 0 0 0 0 0 0 0.12 0"/>
<feBlend mode="normal" in2="BackgroundImageFix" result="effect1_dropShadow"/>
<feColorMatrix in="SourceAlpha" type="matrix" values="0 0 0 0 0 0 0 0 0 0 0 0 0 0 0 0 0 0 127 0"/>
<feOffset/>
<feGaussianBlur stdDeviation="1"/>
<feColorMatrix type="matrix" values="0 0 0 0 0 0 0 0 0 0 0 0 0 0 0 0 0 0 0.06 0"/>
<feBlend mode="normal" in2="effect1_dropShadow" result="effect2_dropShadow"/>
<feColorMatrix in="SourceAlpha" type="matrix" values="0 0 0 0 0 0 0 0 0 0 0 0 0 0 0 0 0 0 127 0"/>
<feOffset dy="4"/>
<feGaussianBlur stdDeviation="5"/>
<feColorMatrix type="matrix" values="0 0 0 0 0 0 0 0 0 0 0 0 0 0 0 0 0 0 0.03 0"/>
<feBlend mode="normal" in2="effect2_dropShadow" result="effect3_dropShadow"/>
<feBlend mode="normal" in="SourceGraphic" in2="effect3_dropShadow" result="shape"/>
</filter>
<filter id="filter1_d" x="13" y="44" width="257" height="91" filterUnits="userSpaceOnUse" color-interpolation-filters="sRGB">
<feFlood flood-opacity="0" result="BackgroundImageFix"/>
<feColorMatrix in="SourceAlpha" type="matrix" values="0 0 0 0 0 0 0 0 0 0 0 0 0 0 0 0 0 0 127 0"/>
<feOffset dy="2"/>
<feGaussianBlur stdDeviation="1.5"/>
<feColorMatrix type="matrix" values="0 0 0 0 0 0 0 0 0 0 0 0 0 0 0 0 0 0 0.06 0"/>
<feBlend mode="normal" in2="BackgroundImageFix" result="effect1_dropShadow"/>
<feBlend mode="normal" in="SourceGraphic" in2="effect1_dropShadow" result="shape"/>
</filter>
<clipPath id="clip0">
<rect width="283" height="132" fill="white"/>
</clipPath>
</defs>
</svg>
